<?xml version="1.0" encoding="utf-8"?>
<!-- Generator: Adobe Illustrator 22.0.1, SVG Export Plug-In . SVG Version: 6.00 Build 0)  -->
<svg version="1.1" id="Capa_1" xmlns="http://www.w3.org/2000/svg" xmlns:xlink="http://www.w3.org/1999/xlink" x="0px" y="0px"
	 viewBox="0 0 512 512" style="enable-background:new 0 0 512 512;" xml:space="preserve">
<style type="text/css">
	.st0{fill:#C501FE;}
</style>
<path class="st0" d="M37,476.3v-438h17.5v36.3l7.8-3.1c16.2-6.4,34.6-9.8,53.2-9.8c28.5,0,55.4,7.7,75.7,21.6
	c17.3,11.9,40.3,18.4,65,18.4c24.6,0,47.7-6.5,65.1-18.4c20.2-13.9,47.1-21.6,75.6-21.6c28.4,0,55.3,7.7,75.6,21.6l3.9,2.8v301.7
	l-14.6-10c-17.3-11.9-40.3-18.4-65-18.4s-47.7,6.5-65,18.4c-20.2,13.9-47.1,21.6-75.6,21.6s-55.4-7.7-75.7-21.6
	c-17.3-11.9-40.3-18.4-65-18.4c-21.3,0-41.9,5-58.1,14l-2.9,1.6v101.4H31.7L37,476.3z M115.4,340.7c28.5,0,55.4,7.7,75.7,21.6
	c17.3,11.9,40.3,18.4,65,18.4c24.6,0,47.7-6.5,65.1-18.4c20.2-13.9,47.1-21.6,75.6-21.6c18.8,0,37.1,3.4,53.1,9.8l7.8,3.1V304
	l-2.9-1.6c-16.4-9.2-36.5-14-58.1-14c-24.7,0-47.7,6.5-65,18.4c-20.2,13.9-47.1,21.6-75.6,21.6s-55.4-7.7-75.7-21.6
	c-17.3-11.9-40.3-18.4-65-18.4c-21.3,0-41.9,5-58.1,14l-2.9,1.6v49.6l7.8-3.1C78.2,344.1,96.6,340.7,115.4,340.7z M115.4,269.7
	c28.5,0,55.4,7.7,75.7,21.6c17.3,11.9,40.3,18.4,65,18.4c24.6,0,47.7-6.5,65.1-18.4c20.2-13.9,47.1-21.6,75.6-21.6
	c18.8,0,37.1,3.4,53.1,9.8l7.8,3.1V233l-2.9-1.6c-16.4-9.2-36.5-14-58.1-14c-24.7,0-47.7,6.5-65,18.4
	c-20.2,13.9-47.1,21.6-75.6,21.6s-55.4-7.7-75.7-21.6c-17.3-11.9-40.3-18.4-65-18.4c-21.3,0-41.9,5-58.1,14l-2.9,1.6v49.6l7.8-3.1
	C78.4,273.1,96.8,269.7,115.4,269.7z M115.4,198.7c28.5,0,55.4,7.7,75.7,21.6c17.3,11.9,40.3,18.4,65,18.4
	c24.6,0,47.7-6.5,65.1-18.4c20.2-13.9,47.1-21.6,75.6-21.6c18.8,0,37.1,3.4,53.1,9.8l7.8,3.1V162l-2.9-1.6
	c-16.4-9.2-36.5-14-58.1-14c-24.7,0-47.7,6.5-65,18.4c-20.2,13.9-47.1,21.6-75.6,21.6s-55.4-7.7-75.7-21.6
	c-17.3-11.9-40.3-18.4-65-18.4c-21.3,0-41.9,5-58.1,14l-2.9,1.6v49.6l7.8-3.1C78.4,202.1,96.8,198.7,115.4,198.7z M115.4,127.7
	c28.5,0,55.4,7.7,75.7,21.6c17.3,11.9,40.3,18.4,65,18.4c24.6,0,47.7-6.5,65.1-18.4c20.2-13.9,47.1-21.6,75.6-21.6
	c18.6,0,37,3.4,53.2,9.8l7.8,3.1V96l-2.9-1.6c-16.4-9.2-36.5-14-58.1-14c-24.7,0-47.8,6.5-65.1,18.4c-20.2,13.9-47.1,21.6-75.6,21.6
	s-55.4-7.7-75.7-21.6c-17.3-11.9-40.3-18.4-65-18.4c-21.3,0-41.9,5-58.1,14L54.4,96v44.6l7.8-3.1C78.4,131.1,96.8,127.7,115.4,127.7
	z"/>
</svg>
