<?xml version="1.0" encoding="utf-8"?>
<!-- Generator: Adobe Illustrator 22.0.1, SVG Export Plug-In . SVG Version: 6.00 Build 0)  -->
<svg version="1.1" id="Layer_1" xmlns="http://www.w3.org/2000/svg" xmlns:xlink="http://www.w3.org/1999/xlink" x="0px" y="0px"
	 viewBox="0 0 448 448" style="enable-background:new 0 0 448 448;" xml:space="preserve">
<style type="text/css">
	.st0{fill:#C501FE;}
</style>
<path class="st0" d="M432.6,38.5c-0.4-4.1-3.9-7.1-7.9-7.2H23.3c-4.1,0-7.5,3.1-7.9,7.2L4.8,134.9c-6.3,57.7-6.4,116-0.2,173.7
	l10.8,101.3c0.4,4.1,3.9,7.2,7.9,7.2h148.1c3.1,0,6-1.9,7.3-4.7l26.8-59.1c10.2,2.8,21,3.2,31.4,1.2l27.4,58
	c1.3,2.8,4.1,4.6,7.2,4.6h153.1c4.1,0,7.5-3.1,8-7.2l10.8-101.2c6.2-57.7,6.1-116-0.2-173.7L432.6,38.5z M423.3,100.3H307.9v-53
	h109.6L423.3,100.3z M156.1,100.3v-53H292v53H156.1z M140.1,47.3v53H24.7l5.8-53C30.5,47.3,140.1,47.3,140.1,47.3z M427.5,306.9
	l-10,94.1H276.6l-24.1-51.4c25.7-11.3,42.3-36.6,42.4-64.7v-39.3c0-4.4-3.6-8-8-8s-8,3.6-8,8V285c0,30.1-24.8,54.6-55,54.6
	s-55-24.5-55-54.6v-39.3c0-4.4-3.6-8-8-8s-8,3.6-8,8V285c0.1,26.1,14.5,50,37.4,62.3l-24,53.7H30.5l-10-94.1
	c-6-56.6-5.9-113.6,0.2-170.1l2.3-20.5h402.1l2.3,20.5C433.5,193.3,433.6,250.4,427.5,306.9z"/>
</svg>
