<?xml version="1.0" encoding="utf-8"?>
<!-- Generator: Adobe Illustrator 22.0.1, SVG Export Plug-In . SVG Version: 6.00 Build 0)  -->
<svg version="1.1" id="Layer_1" xmlns="http://www.w3.org/2000/svg" xmlns:xlink="http://www.w3.org/1999/xlink" x="0px" y="0px"
	 viewBox="0 0 512 512" style="enable-background:new 0 0 512 512;" xml:space="preserve">
<style type="text/css">
	.st0{fill:#C501FE;}
</style>
<path class="st0" d="M60.7,506.3v-18.7h60.1V220.3h125.8v-41.9l-4.5-0.9c-31.1-6.5-53.7-34.3-53.7-66.2c0-61.6,60.1-99.9,62.6-101.5
	l4.9-3.1l4.9,3.1c2.6,1.6,62.6,39.9,62.6,101.5c0,31.8-22.6,59.7-53.8,66.2l-4.5,0.9v41.9h125.8v267.4H451v18.7H60.7V506.3z
	 M139.4,487.7h232.9v-41.4H139.4V487.7z M139.4,427.6h232.9V238.9H139.4V427.6z M252.3,31.8c-17,13.5-45.4,41.7-45.4,79.5
	c0,27,22,48.9,48.9,48.9c27,0,48.9-21.9,48.9-48.9c0-38-28.4-66.2-45.4-79.5l-3.5-2.8L252.3,31.8z"/>
</svg>
