<?xml version="1.0" encoding="utf-8"?>
<!-- Generator: Adobe Illustrator 22.0.1, SVG Export Plug-In . SVG Version: 6.00 Build 0)  -->
<svg version="1.1" id="Capa_1" xmlns="http://www.w3.org/2000/svg" xmlns:xlink="http://www.w3.org/1999/xlink" x="0px" y="0px"
	 viewBox="0 0 378.1 378.1" style="enable-background:new 0 0 378.1 378.1;" xml:space="preserve">
<style type="text/css">
	.st0{fill:#C501FE;}
</style>
<g>
	<g>
		<path class="st0" d="M312.4,60.9C281.8,25.2,236.5,4.6,188.8,4.7c-89,0.2-161,70.8-160.7,157.7s72.6,157,161.6,156.8
			c9.1,0,18.3-0.8,27.3-2.3l62,54.6c3.3,2.9,8.3,2.6,11.3-0.6c1.3-1.4,2.1-3.3,2.1-5.2v-83.3C360.5,226.6,369.5,127.4,312.4,60.9z
			 M279.4,272.4c-1.9,1.5-3,3.7-3,6.1V348l-51.5-45.5c-1.5-1.3-3.4-2-5.4-2h-1.6C139.3,316.1,62.6,266.7,46.5,190
			S81.2,38.6,159.8,23C238.3,7.3,315,56.8,331.1,133.4c2,9.4,2.9,18.9,2.9,28.5C334.1,204.9,313.9,245.7,279.4,272.4z"/>
	</g>
</g>
<g>
	<g>
		<path class="st0" d="M255.1,112.9c-8.1-8.2-19-13-30.5-13.3c-13.7,0.8-26.5,6.9-35.8,17c-9.3-10.1-22.1-16.2-35.8-17
			c-11.5,0.3-22.5,5.1-30.6,13.3c-10.6,9.8-15.6,24.3-13,38.6c5.4,37.6,47.4,77,75.8,91.3c2.3,1.1,4.9,1.1,7.2,0
			c28.4-14.3,70.4-53.7,75.7-91.3C270.6,137.2,265.7,122.7,255.1,112.9z M252.3,149c-3.8,26.8-35.8,61.8-63.4,77.4
			c-27.7-15.5-59.7-50.6-63.4-77.4c-1.8-9,1.2-18.4,8-24.6c5.2-5.4,12.2-8.7,19.7-9c16,0,29.1,17.6,29.2,17.8
			c2.6,3.6,7.6,4.4,11.2,1.9c0.7-0.5,1.4-1.2,1.9-1.9c0,0,13.1-17.8,29.2-17.8c7.5,0.4,14.5,3.6,19.7,9
			C251,130.6,254.1,140,252.3,149z"/>
	</g>
</g>
</svg>
