<?xml version="1.0" encoding="utf-8"?>
<!-- Generator: Adobe Illustrator 22.0.1, SVG Export Plug-In . SVG Version: 6.00 Build 0)  -->
<svg version="1.1" id="Layer_1" xmlns="http://www.w3.org/2000/svg" xmlns:xlink="http://www.w3.org/1999/xlink" x="0px" y="0px"
	 viewBox="0 0 512 512" style="enable-background:new 0 0 512 512;" xml:space="preserve">
<style type="text/css">
	.st0{fill:#C501FE;}
</style>
<g>
	<path class="st0" d="M428.4,469.4l-15.9-188.6l-8.7,9.2c-28.4,30-47.4,64.8-67.5,101.7c-5.7,10.5-11.6,21.3-17.7,32
		c-16.2,28.2-46.8,45.7-80,45.7H52.1c-25.6,0-46.4-20.8-46.4-46.4c0-17.6,9.8-33.5,25.6-41.4L144,325.2l0.4,14.6
		c0.4,11.7,9.9,20.9,21.6,20.9h11.2c27.3,0,52.3-14.9,65.2-38.8L402.9,45c2.6,1.9,4.3,3.1,5.7,4.1c3.6,2.6,4.9,3.6,13.4,9.1
		c43.8,28.1,84.3,62.6,84.3,124.4c0,9.9-4,45.2-11.9,115.4c-4.7,41.9-11.2,98.9-19.1,171.5h-46.9V469.4z M473,239.6
		c-1.2,0.7-2.6,1.5-4.2,2.3c-13.2,6.7-25.1,14-36.3,22.4l-2.5,1.9l15.6,184.6h13.1l24.1-217.1L473,239.6z M39.7,398.2
		c-9.5,4.8-15.3,14.3-15.3,24.9c0,15.3,12.4,27.7,27.6,27.7h186.8c26.4,0,50.8-13.9,63.7-36.3c6.1-10.6,12-21.5,17.7-32
		c33.6-61.6,65.2-119.7,140.3-157.1c16.5-8.3,27.2-25,27.2-42.7c0-60-47.9-90.9-73.7-107.5l-5-3.2L258.8,331
		c-16.2,29.9-47.4,48.5-81.5,48.5h-11.2c-14.7,0-28.2-7.9-35.2-20.7l-2.6-4.8L39.7,398.2z"/>
</g>
</svg>
