<?xml version="1.0" encoding="utf-8"?>
<!-- Generator: Adobe Illustrator 24.0.1, SVG Export Plug-In . SVG Version: 6.00 Build 0)  -->
<svg version="1.1" id="Capa_1" xmlns="http://www.w3.org/2000/svg" xmlns:xlink="http://www.w3.org/1999/xlink" x="0px" y="0px"
	 viewBox="0 0 265.53 249.19" style="enable-background:new 0 0 265.53 249.19;" xml:space="preserve">
<style type="text/css">
	.st0{fill:#FFFFFF;}
	.st1{fill:#C501FE;}
</style>
<g>
	<path class="st0" d="M310.04,302.28c-120.01,0-240.01,0-360,0c0-119.13,0-238.25,0-357.36c120.01,0,240.01,0,360,0
		C310.04,64.05,310.04,183.17,310.04,302.28z M197.07,48.36c1.84-2.08,3.66-4.1,5.42-6.17c0.15-0.18,0.03-0.84-0.18-1.04
		c-0.8-0.77-1.65-1.51-2.55-2.16c-3.29-2.38-6.53-4.85-9.95-7.04c-3.43-2.2-6.99-4.21-10.59-6.12c-2.36-1.25-4.86-2.24-7.34-3.21
		c-3.56-1.39-7.12-2.78-10.75-3.95c-2.79-0.9-5.66-1.57-8.53-2.17c-2.85-0.6-5.72-1.18-8.62-1.43c-4.63-0.4-9.29-0.57-13.94-0.75
		c-2.11-0.08-4.25-0.12-6.35,0.06c-3.15,0.27-6.28,0.72-9.42,1.13c-1.95,0.25-3.92,0.46-5.84,0.88c-2.63,0.57-5.24,1.27-7.84,1.99
		c-2.83,0.79-5.67,1.58-8.45,2.53c-1.77,0.6-3.46,1.45-5.16,2.24c-3.45,1.59-6.96,3.05-10.3,4.84c-5,2.69-9.77,5.78-14.2,9.36
		c-2.96,2.39-5.96,4.75-8.67,7.4c-3.1,3.02-6,6.26-8.79,9.57c-2.51,2.99-4.87,6.12-7.08,9.34c-1.97,2.86-3.74,5.87-5.41,8.92
		c-1.47,2.68-2.73,5.48-3.98,8.27c-0.87,1.94-1.58,3.94-2.32,5.94c-0.7,1.87-1.38,3.74-2,5.64c-0.35,1.07-0.54,2.19-0.83,3.28
		c-0.6,2.27-1.32,4.51-1.8,6.79c-0.59,2.77-1.07,5.57-1.43,8.38c-0.36,2.75-0.73,5.53-0.71,8.3c0.03,4.78-0.23,9.55,0.32,14.35
		c0.44,3.81,0.68,7.62,1.52,11.38c0.6,2.67,1.03,5.39,1.69,8.05c0.53,2.13,1.22,4.23,1.94,6.31c0.89,2.57,1.79,5.15,2.85,7.66
		c1.35,3.18,2.73,6.36,4.37,9.39c2.08,3.87,4.23,7.73,6.73,11.33c2.64,3.79,5.66,7.33,8.66,10.85c3.43,4.03,7.12,7.83,11.29,11.12
		c2.65,2.09,5.31,4.17,8.06,6.12c2.2,1.56,4.49,3.01,6.84,4.33c3.5,1.97,7.05,3.85,10.64,5.66c1.79,0.9,3.69,1.61,5.58,2.31
		c2.63,0.97,5.29,1.86,7.95,2.75c0.96,0.32,1.95,0.56,2.92,0.81c2.34,0.62,4.67,1.32,7.03,1.8c2.23,0.46,4.51,0.74,6.78,1
		c3.77,0.44,7.55,1.01,11.33,1.14c6.6,0.23,13.2,0.08,19.73-1.14c3.05-0.57,6.15-0.92,9.16-1.62c3.17-0.74,6.29-1.71,9.39-2.71
		c2.63-0.85,5.23-1.79,7.77-2.87c3.17-1.35,6.33-2.77,9.39-4.35c3.13-1.62,6.22-3.35,9.17-5.28c3.15-2.07,6.19-4.33,9.14-6.69
		c2.47-1.98,4.77-4.17,7.07-6.36c1.82-1.73,3.56-3.55,5.23-5.41c1.63-1.82,3.16-3.73,4.7-5.64c1.58-1.96,3.26-3.86,4.63-5.96
		c2.16-3.29,4.19-6.67,6.09-10.11c1.51-2.74,2.8-5.61,4.09-8.47c0.86-1.9,1.57-3.87,2.3-5.82c0.7-1.87,1.39-3.74,2.01-5.64
		c0.35-1.07,0.55-2.19,0.83-3.28c0.61-2.38,1.32-4.75,1.81-7.16c0.46-2.24,0.73-4.51,1.01-6.78c0.43-3.5,1.05-6.99,1.11-10.5
		c0.09-4.89-0.19-9.8-0.44-14.69c-0.13-2.52-0.48-5.04-0.87-7.53c-0.32-2.09-0.8-4.15-1.26-6.21c-0.53-2.41-1.09-4.81-1.72-7.19
		c-0.07-0.25-0.73-0.57-1.02-0.5c-1.15,0.3-2.27,0.74-3.39,1.13c-1.41,0.49-2.81,0.99-4.21,1.48c7.15,24.84,4.98,53.15-8.14,76.97
		c-13.18,23.94-32.77,40.32-58.76,48.66c-21.72,6.97-43.56,6.55-65.04-1.19c-23.49-8.47-41.58-23.63-54-45.32
		c-12.98-22.67-16.54-46.99-11.01-72.39c5.37-24.68,18.53-44.66,38.8-59.77c17.58-13.1,37.5-19.76,59.38-19.95
		C154.7,23.01,177.39,31.56,197.07,48.36z M161.84,121.21c0.27-0.22,0.46-0.42,0.69-0.56c5.2-3.2,7.83-8.1,8.45-13.95
		c0.41-3.86,0.28-7.77-1.24-11.58c-1.37-3.43-3.41-6.22-6.33-8.3c-3.33-2.37-7.14-3.78-11.24-4.12c-4.54-0.37-9.09-0.64-13.63,0.4
		c-3.13,0.72-5.98,1.8-8.7,3.56c-5.27,3.43-7.47,8.53-8.12,14.41c-0.37,3.29,0.04,6.59,1.09,9.82c0.95,2.93,2.46,5.43,4.64,7.52
		c1.07,1.02,2.32,1.86,3.47,2.76c-0.9,0.54-1.76,1.06-2.62,1.57c-3.75,2.25-6.47,5.44-8.18,9.41c-0.77,1.8-1.19,3.77-1.58,5.7
		c-0.37,1.81-0.75,3.69-0.66,5.52c0.17,3.42,0.58,6.82,2.06,10.02c1.05,2.27,2.31,4.34,4.03,6.14c2.07,2.16,4.49,3.78,7.24,5.04
		c3.33,1.53,6.8,2.57,10.37,2.69c4.46,0.16,9,0.65,13.42-0.63c1.97-0.57,4.01-0.94,5.9-1.7c3.51-1.41,6.57-3.51,8.98-6.51
		c2.39-2.98,3.89-6.36,4.53-10.1c0.26-1.48,0.26-3.01,0.31-4.51c0.09-3.04-0.03-6.05-0.97-9c-0.94-2.94-2.31-5.62-4.34-7.95
		C167.28,124.48,164.78,122.56,161.84,121.21z M97.9,93.82c0,0.69,0,1.13,0,1.57c0,22.52,0.01,45.04-0.02,67.56
		c0,1.73,1.45,3.91,3.79,3.79c2.44-0.12,3.87-1.38,3.87-3.75c0-25.44-0.01-50.88,0.03-76.32c0-1.49-0.59-2.58-1.77-3.19
		c-1.22-0.62-2.69-0.7-3.91,0.01c-1.92,1.12-3.74,2.42-5.59,3.67c-2.6,1.76-5.21,3.52-7.77,5.34c-2.26,1.6-4.41,3.37-6.72,4.89
		c-1.65,1.09-1.81,2.54-1.59,4.23c0.18,1.38,2.34,3.14,3.63,2.79c1.02-0.28,2.03-0.77,2.9-1.37C89.09,100.07,93.38,97,97.9,93.82z
		 M222.23,65.13c0,0.62,0,1.06,0,1.5c0,6.24-0.01,12.48,0,18.72c0.01,2.45,2.71,4.3,4.83,3.27c1.53-0.74,2.33-2.04,2.33-3.79
		c-0.01-6.12,0-12.24,0-18.36c0-0.42,0-0.84,0-1.34c0.64,0,1.12,0,1.59,0c6.24,0,12.48,0.01,18.72-0.01c1.73,0,3.23-1.61,3.21-3.36
		c-0.02-1.75-1.37-3.07-3.14-3.08c-6.36,0-12.72,0-19.08,0c-0.42,0-0.84,0-1.3,0c0-2.56,0.03-4.92-0.01-7.27
		c-0.03-1.99-0.16-3.98-0.19-5.96c-0.03-1.78-0.01-3.55-0.01-5.33c0-0.32-0.02-0.65,0.05-0.95c0.39-1.51-0.16-2.69-1.28-3.64
		c-1.22-1.04-2.66-1.01-3.97-0.32c-1.24,0.65-1.79,1.82-1.78,3.3c0.04,6.28,0.01,12.56,0.01,18.84c0,0.42,0,0.85,0,1.35
		c-0.6,0-1.03,0-1.46,0c-6.36,0-12.72-0.01-19.07,0.02c-0.56,0-1.19,0.17-1.66,0.46c-1.08,0.66-1.53,2.38-1.11,3.79
		c0.39,1.29,1.6,2.18,3.03,2.18c6.28,0.01,12.56,0,18.84,0C221.22,65.13,221.65,65.13,222.23,65.13z"/>
	<path class="st1" d="M197.07,48.36c-19.68-16.8-42.37-25.35-68.13-25.13c-21.89,0.18-41.8,6.84-59.38,19.95
		c-20.27,15.11-33.43,35.09-38.8,59.77c-5.53,25.4-1.97,49.72,11.01,72.39c12.42,21.69,30.51,36.86,54,45.32
		c21.48,7.74,43.32,8.16,65.04,1.19c25.98-8.34,45.58-24.73,58.76-48.66c13.12-23.82,15.28-52.12,8.14-76.97
		c1.39-0.49,2.8-0.99,4.21-1.48c1.13-0.39,2.24-0.83,3.39-1.13c0.29-0.08,0.95,0.25,1.02,0.5c0.63,2.38,1.19,4.78,1.72,7.19
		c0.46,2.06,0.94,4.13,1.26,6.21c0.38,2.5,0.74,5.01,0.87,7.53c0.26,4.89,0.53,9.8,0.44,14.69c-0.06,3.51-0.69,7-1.11,10.5
		c-0.28,2.27-0.55,4.54-1.01,6.78c-0.49,2.41-1.2,4.77-1.81,7.16c-0.28,1.09-0.48,2.21-0.83,3.28c-0.62,1.9-1.31,3.77-2.01,5.64
		c-0.73,1.95-1.44,3.92-2.3,5.82c-1.29,2.86-2.58,5.73-4.09,8.47c-1.9,3.44-3.94,6.82-6.09,10.11c-1.38,2.1-3.05,4-4.63,5.96
		c-1.53,1.9-3.06,3.82-4.7,5.64c-1.68,1.87-3.42,3.68-5.23,5.41c-2.29,2.19-4.6,4.38-7.07,6.36c-2.94,2.36-5.98,4.62-9.14,6.69
		c-2.94,1.93-6.04,3.66-9.17,5.28c-3.06,1.59-6.21,3.01-9.39,4.35c-2.54,1.08-5.15,2.02-7.77,2.87c-3.1,1-6.22,1.97-9.39,2.71
		c-3.02,0.7-6.11,1.05-9.16,1.62c-6.53,1.22-13.13,1.37-19.73,1.14c-3.79-0.13-7.56-0.71-11.33-1.14c-2.27-0.26-4.54-0.54-6.78-1
		c-2.37-0.48-4.69-1.19-7.03-1.8c-0.98-0.26-1.97-0.49-2.92-0.81c-2.66-0.89-5.32-1.78-7.95-2.75c-1.89-0.7-3.79-1.41-5.58-2.31
		c-3.59-1.81-7.14-3.69-10.64-5.66c-2.35-1.33-4.64-2.77-6.84-4.33c-2.75-1.95-5.41-4.03-8.06-6.12
		c-4.17-3.29-7.86-7.09-11.29-11.12c-3-3.53-6.02-7.06-8.66-10.85c-2.51-3.6-4.65-7.46-6.73-11.33c-1.64-3.03-3.01-6.21-4.37-9.39
		c-1.07-2.5-1.96-5.08-2.85-7.66c-0.72-2.08-1.41-4.17-1.94-6.31c-0.66-2.66-1.08-5.37-1.69-8.05c-0.84-3.75-1.08-7.57-1.52-11.38
		c-0.56-4.8-0.3-9.57-0.32-14.35c-0.02-2.76,0.35-5.54,0.71-8.3c0.37-2.81,0.85-5.61,1.43-8.38c0.48-2.29,1.2-4.53,1.8-6.79
		c0.29-1.09,0.48-2.21,0.83-3.28c0.62-1.89,1.3-3.77,2-5.64c0.74-1.99,1.46-4,2.32-5.94c1.25-2.79,2.51-5.59,3.98-8.27
		c1.67-3.05,3.44-6.05,5.41-8.92c2.21-3.22,4.56-6.35,7.08-9.34c2.79-3.31,5.69-6.55,8.79-9.57c2.71-2.65,5.72-5.01,8.67-7.4
		c4.42-3.58,9.19-6.67,14.2-9.36c3.34-1.79,6.85-3.26,10.3-4.84c1.7-0.78,3.39-1.64,5.16-2.24c2.78-0.94,5.62-1.74,8.45-2.53
		c2.6-0.72,5.2-1.42,7.84-1.99c1.92-0.41,3.89-0.62,5.84-0.88c3.14-0.41,6.27-0.86,9.42-1.13c2.11-0.18,4.24-0.15,6.35-0.06
		c4.65,0.19,9.3,0.35,13.94,0.75c2.89,0.25,5.77,0.83,8.62,1.43c2.87,0.6,5.74,1.27,8.53,2.17c3.63,1.18,7.2,2.56,10.75,3.95
		c2.49,0.97,4.99,1.97,7.34,3.21c3.6,1.91,7.16,3.92,10.59,6.12c3.42,2.19,6.66,4.66,9.95,7.04c0.9,0.65,1.75,1.38,2.55,2.16
		c0.21,0.21,0.34,0.86,0.18,1.04C200.73,44.26,198.91,46.28,197.07,48.36z"/>
	<path class="st1" d="M161.84,121.21c2.94,1.36,5.45,3.27,7.57,5.69c2.03,2.33,3.4,5.01,4.34,7.95s1.06,5.96,0.97,9
		c-0.05,1.51-0.06,3.03-0.31,4.51c-0.65,3.74-2.14,7.12-4.53,10.1c-2.4,3-5.47,5.1-8.98,6.51c-1.89,0.76-3.93,1.13-5.9,1.7
		c-4.42,1.28-8.95,0.78-13.42,0.63c-3.57-0.13-7.04-1.16-10.37-2.69c-2.75-1.26-5.17-2.88-7.24-5.04c-1.72-1.79-2.98-3.87-4.03-6.14
		c-1.49-3.2-1.89-6.6-2.06-10.02c-0.09-1.83,0.29-3.7,0.66-5.52c0.39-1.93,0.8-3.91,1.58-5.7c1.71-3.97,4.42-7.17,8.18-9.41
		c0.86-0.52,1.72-1.03,2.62-1.57c-1.15-0.91-2.4-1.74-3.47-2.76c-2.19-2.09-3.69-4.59-4.64-7.52c-1.05-3.23-1.46-6.53-1.09-9.82
		c0.65-5.89,2.85-10.98,8.12-14.41c2.71-1.77,5.57-2.84,8.7-3.56c4.55-1.05,9.09-0.77,13.63-0.4c4.09,0.33,7.9,1.75,11.24,4.12
		c2.92,2.08,4.96,4.86,6.33,8.3c1.52,3.81,1.65,7.72,1.24,11.58c-0.62,5.84-3.25,10.74-8.45,13.95
		C162.3,120.79,162.1,120.99,161.84,121.21z M145.82,160.24c4.37,0.01,8.16-0.55,11.81-1.98c5.05-1.98,8.09-5.77,9.07-10.97
		c0.6-3.2,0.55-6.5-0.32-9.77c-0.84-3.16-2.29-5.82-4.75-7.94c-1.8-1.55-3.91-2.64-6.17-3.18c-2.4-0.58-4.89-0.84-7.36-1.01
		c-4.84-0.33-9.6,0.02-14.01,2.38c-1.86,1-3.63,2.06-4.86,3.84c-1.66,2.39-2.65,4.98-3.17,7.89c-0.64,3.56-0.21,6.89,0.85,10.25
		c1.5,4.76,5.07,7.42,9.49,8.96C139.55,159.8,142.89,160.38,145.82,160.24z M146.42,89.36c-0.01,0.11-0.02,0.21-0.03,0.32
		c-3.34-0.37-6.54,0.28-9.65,1.4c-2.1,0.75-3.94,2.05-5.2,3.84c-1.43,2.06-2.37,4.4-2.25,7.03c0.06,1.34-0.18,2.72,0.06,4.02
		c0.33,1.77,0.69,3.65,1.56,5.18c2.4,4.19,6.56,5.89,11.05,6.52c3.56,0.5,7.18,0.47,10.76-0.39c2.19-0.53,4.33-1.25,6.07-2.62
		c2.39-1.88,4.04-4.34,4.5-7.49c0.47-3.2,0.52-6.33-0.57-9.45c-1.44-4.14-4.64-6.27-8.57-7.31C151.66,89.75,149,89.69,146.42,89.36z
		"/>
	<path class="st1" d="M97.9,93.82c-4.51,3.18-8.81,6.24-13.14,9.24c-0.87,0.6-1.88,1.09-2.9,1.37c-1.29,0.35-3.45-1.41-3.63-2.79
		c-0.22-1.69-0.06-3.14,1.59-4.23c2.31-1.53,4.46-3.29,6.72-4.89c2.57-1.82,5.17-3.58,7.77-5.34c1.85-1.25,3.66-2.55,5.59-3.67
		c1.22-0.71,2.69-0.63,3.91-0.01c1.18,0.6,1.77,1.7,1.77,3.19c-0.03,25.44-0.02,50.88-0.03,76.32c0,2.37-1.43,3.63-3.87,3.75
		c-2.34,0.12-3.8-2.05-3.79-3.79c0.03-22.52,0.02-45.04,0.02-67.56C97.9,94.95,97.9,94.51,97.9,93.82z"/>
	<path class="st1" d="M222.23,65.13c-0.57,0-1.01,0-1.44,0c-6.28,0-12.56,0.01-18.84,0c-1.43,0-2.65-0.9-3.03-2.18
		c-0.42-1.41,0.02-3.12,1.11-3.79c0.47-0.29,1.1-0.45,1.66-0.46c6.36-0.03,12.72-0.02,19.07-0.02c0.43,0,0.87,0,1.46,0
		c0-0.51,0-0.93,0-1.35c0-6.28,0.02-12.56-0.01-18.84c-0.01-1.47,0.54-2.65,1.78-3.3c1.31-0.69,2.75-0.71,3.97,0.32
		c1.11,0.94,1.67,2.13,1.28,3.64c-0.08,0.3-0.05,0.63-0.05,0.95c0,1.78-0.03,3.56,0.01,5.33c0.04,1.99,0.16,3.98,0.19,5.96
		c0.04,2.36,0.01,4.72,0.01,7.27c0.47,0,0.88,0,1.3,0c6.36,0,12.72,0,19.08,0c1.78,0,3.12,1.33,3.14,3.08
		c0.02,1.75-1.48,3.36-3.21,3.36c-6.24,0.01-12.48,0.01-18.72,0.01c-0.47,0-0.95,0-1.59,0c0,0.5,0,0.92,0,1.34
		c0,6.12,0,12.24,0,18.36c0,1.75-0.8,3.04-2.33,3.79c-2.12,1.03-4.82-0.82-4.83-3.27c-0.01-6.24,0-12.48,0-18.72
		C222.23,66.19,222.23,65.76,222.23,65.13z"/>
	<path class="st0" d="M145.82,160.24c-2.93,0.14-6.27-0.44-9.43-1.53c-4.42-1.53-7.99-4.2-9.49-8.96
		c-1.06-3.36-1.49-6.69-0.85-10.25c0.52-2.91,1.51-5.5,3.17-7.89c1.23-1.78,3-2.85,4.86-3.84c4.42-2.36,9.17-2.71,14.01-2.38
		c2.47,0.17,4.96,0.43,7.36,1.01c2.26,0.54,4.37,1.63,6.17,3.18c2.46,2.12,3.91,4.78,4.75,7.94c0.87,3.27,0.93,6.57,0.32,9.77
		c-0.98,5.2-4.02,8.99-9.07,10.97C153.98,159.69,150.19,160.25,145.82,160.24z"/>
	<path class="st0" d="M146.42,89.36c2.58,0.33,5.24,0.39,7.73,1.05c3.93,1.04,7.13,3.17,8.57,7.31c1.09,3.12,1.04,6.25,0.57,9.45
		c-0.46,3.14-2.11,5.61-4.5,7.49c-1.74,1.37-3.88,2.09-6.07,2.62c-3.57,0.86-7.2,0.89-10.76,0.39c-4.49-0.63-8.65-2.33-11.05-6.52
		c-0.88-1.53-1.24-3.41-1.56-5.18c-0.24-1.3,0-2.68-0.06-4.02c-0.11-2.63,0.82-4.97,2.25-7.03c1.25-1.8,3.1-3.09,5.2-3.84
		c3.11-1.12,6.31-1.77,9.65-1.4C146.41,89.57,146.41,89.47,146.42,89.36z"/>
</g>
</svg>
