<?xml version="1.0" encoding="utf-8"?>
<!-- Generator: Adobe Illustrator 22.0.1, SVG Export Plug-In . SVG Version: 6.00 Build 0)  -->
<svg version="1.1" id="Layer_1" xmlns="http://www.w3.org/2000/svg" xmlns:xlink="http://www.w3.org/1999/xlink" x="0px" y="0px"
	 viewBox="0 0 2113.4 428.3" style="enable-background:new 0 0 2113.4 428.3;" xml:space="preserve">
<style type="text/css">
	.st0{fill:#E6E6E6;}
	.st1{opacity:0.9;fill:#EFEFEF;enable-background:new    ;}
</style>
<rect x="-24.6" y="-56.6" class="st0" width="2336.9" height="637.4"/>
<path class="st1" d="M177.1,494.1L44.7,76.6l16.7-5.3l11,34.6l6.5-5.3c13.5-11,30-19.8,47.7-25.4c27.2-8.6,55.1-9.4,78.7-2.3
	c20.1,6.1,44,5.4,67.5-2.1c23.4-7.4,43.5-20.6,56.5-37.2c15.1-19.4,38.4-34.8,65.5-43.4s55-9.4,78.6-2.3l4.6,1.5L569.2,277
	l-16.9-5.1c-20.1-6.1-44-5.4-67.5,2.1s-43.5,20.6-56.4,37.2c-15.1,19.4-38.4,34.8-65.5,43.4c-27.2,8.6-55.1,9.4-78.7,2.3
	c-20.1-6.1-44-5.4-67.5,2.1c-20.3,6.4-38.4,17.4-51.1,30.9l-2.3,2.4L194,489l-21.7,6.9L177.1,494.1z M210.8,341.2
	c27.2-8.6,55.1-9.4,78.7-2.3c20.1,6.1,44,5.4,67.5-2.1c23.4-7.4,43.5-20.6,56.5-37.2c15.1-19.4,38.4-34.8,65.5-43.4
	c17.9-5.7,36.4-8,53.6-6.7l8.4,0.6l-15-47.3l-3.2-0.6c-18.4-3.8-39-2.3-59.6,4.2c-23.5,7.5-43.5,20.6-56.4,37.2
	c-15.1,19.4-38.4,34.8-65.5,43.4c-27.2,8.6-55.1,9.4-78.7,2.3c-20.1-6.1-44-5.4-67.5,2.1c-20.3,6.4-38.4,17.4-51.1,30.9l-2.3,2.4
	l15,47.3l6.5-5.3C176.4,355.7,192.9,346.9,210.8,341.2z M189.3,273.5c27.2-8.6,55.1-9.4,78.7-2.3c20.1,6.1,44,5.4,67.5-2.1
	c23.4-7.4,43.5-20.6,56.5-37.2c15.1-19.4,38.4-34.8,65.5-43.4c17.9-5.7,36.4-8,53.6-6.7l8.4,0.6l-15-47.3l-3.2-0.6
	c-18.4-3.8-39-2.3-59.6,4.2c-23.5,7.5-43.5,20.6-56.4,37.2c-15.1,19.4-38.4,34.8-65.5,43.4c-27.2,8.6-55.1,9.4-78.7,2.3
	c-20.1-6.1-44-5.4-67.5,2.1c-20.3,6.4-38.4,17.4-51.1,30.9l-2.3,2.4l15,47.3l6.5-5.3C155.1,287.9,171.6,279.1,189.3,273.5z
	 M167.9,205.8c27.2-8.6,55.1-9.4,78.7-2.3c20.1,6.1,44,5.4,67.5-2.1c23.4-7.4,43.5-20.6,56.5-37.2c15.1-19.4,38.4-34.8,65.5-43.4
	c17.9-5.7,36.4-8,53.6-6.7l8.4,0.6l-15-47.3l-3.2-0.6c-18.4-3.8-39-2.3-59.6,4.2c-23.5,7.5-43.5,20.6-56.4,37.2
	c-15.1,19.4-38.4,34.8-65.5,43.4c-27.2,8.6-55.1,9.4-78.7,2.3c-20.1-6.1-44-5.4-67.5,2.1c-20.3,6.4-38.4,17.4-51.1,30.9l-2.3,2.4
	l15,47.3l6.5-5.3C133.6,220.3,150.1,211.4,167.9,205.8z M146.4,138.1c27.2-8.6,55.1-9.4,78.7-2.3c20.1,6.1,44,5.4,67.5-2.1
	c23.4-7.4,43.5-20.6,56.5-37.2c15.1-19.4,38.4-34.8,65.5-43.4c17.7-5.6,36.3-7.9,53.7-6.7l8.4,0.6L463.2,4.4L460,3.8
	C441.6,0,421,1.5,400.4,8c-23.5,7.5-43.6,20.6-56.5,37.2c-15.1,19.4-38.4,34.8-65.5,43.4c-27.2,8.6-55.1,9.4-78.7,2.3
	c-20.1-6.1-44-5.4-67.5,2.1c-20.4,6.5-38.5,17.5-51.2,31l-2.3,2.4l13.5,42.5l6.5-5.3C112.2,152.6,128.7,143.8,146.4,138.1z"/>
</svg>
