<?xml version="1.0" encoding="utf-8"?>
<!-- Generator: Adobe Illustrator 22.0.1, SVG Export Plug-In . SVG Version: 6.00 Build 0)  -->
<svg version="1.1" id="Layer_1" xmlns="http://www.w3.org/2000/svg" xmlns:xlink="http://www.w3.org/1999/xlink" x="0px" y="0px"
	 viewBox="0 0 2113.4 428.3" style="enable-background:new 0 0 2113.4 428.3;" xml:space="preserve">
<style type="text/css">
	.st0{fill:#E6E6E6;}
	.st1{fill:none;stroke:#000000;stroke-miterlimit:10;}
	.st2{opacity:0.9;}
	.st3{fill:#EFEFEF;}
</style>
<rect x="-24.6" y="-56.6" class="st0" width="2336.9" height="637.4"/>
<path class="st1" d="M1239.1-256.9"/>
<g class="st2">
	<g>
		<path class="st3" d="M394.5,11.1c-58-34.3-129.1-41.4-193.8-19.2C79.9,33.3,14.8,162.4,55.4,280.3s171.1,179.6,291.9,138.3
			c12.4-4.2,24.5-9.5,36-15.7l109.4,45.5c5.8,2.4,12.5-0.3,15.1-6c1.1-2.5,1.3-5.5,0.4-8l-38.5-113.1
			C536.4,213.9,502.8,75,394.5,11.1z M447.4,313.5c-1.9,2.9-2.4,6.4-1.3,9.7l32.1,94.4l-91-38c-2.6-1.1-5.5-1.1-8.3-0.2l-2.2,0.7
			c-99.5,57.5-226.5,25.9-283.8-70.8S70.3,87.6,169.8,30.1c99.3-57.6,226.4-25.8,283.6,70.8c7.1,11.8,12.7,24.3,17.1,37.4
			C490.5,196.6,481.9,261.3,447.4,313.5z"/>
	</g>
</g>
<g class="st2">
	<g>
		<path class="st3" d="M340.7,108.2c-14.8-7.4-31.8-8.9-47.6-4c-18.2,7.4-32.8,21.6-40.8,39.6c-17.3-9.4-37.5-11.8-56.5-6.5
			c-15.5,5.7-28.2,17.3-35.4,32.2c-9.9,18.2-10,40.2,0.2,58.4c24.7,48.6,99.9,82.7,145.1,89c3.6,0.4,7.2-0.8,9.8-3.3
			c32-32.5,70.8-105.5,60.6-159C373,134,359.7,116.6,340.7,108.2z M353.6,158.5c7.2,38.1-20.1,100.5-50.3,134.4
			c-44.8-8.2-104.5-41.1-121.9-75.8c-6.6-11.4-6.9-25.5-0.5-37.1c4.6-9.7,12.5-17.5,22.6-21.3c21.7-7.4,47.6,10.5,47.9,10.7
			c5.2,3.7,12.4,2.5,16.1-2.6c0.7-1,1.3-2.3,1.7-3.5c0,0,9.6-30.2,31.4-37.7c10.4-2.9,21.4-1.8,30.9,3.1
			C343.3,134.1,351.9,145.4,353.6,158.5z"/>
	</g>
</g>
</svg>
