<?xml version="1.0" encoding="utf-8"?>
<!-- Generator: Adobe Illustrator 22.0.1, SVG Export Plug-In . SVG Version: 6.00 Build 0)  -->
<svg version="1.1" id="Layer_1" xmlns="http://www.w3.org/2000/svg" xmlns:xlink="http://www.w3.org/1999/xlink" x="0px" y="0px"
	 viewBox="0 0 2113.4 428.3" style="enable-background:new 0 0 2113.4 428.3;" xml:space="preserve">
<style type="text/css">
	.st0{fill:#E6E6E6;}
	.st1{opacity:0.9;}
	.st2{fill:#EFEFEF;}
	.st3{fill:none;stroke:#000000;stroke-miterlimit:10;}
</style>
<rect x="-24.6" y="-56.6" class="st0" width="2336.9" height="637.4"/>
<g class="st1">
	<path class="st2" d="M471.4,366.6l-69.4-176l-5.7,11.3c-18.6,36.9-26.8,75.7-35.4,116.8c-2.4,11.7-5,23.7-7.7,35.7
		c-7.4,31.7-31.7,57.2-63.5,66.8L111,474.9c-24.5,7.4-50.4-6.6-57.8-31.1c-5.1-16.9-0.3-34.9,12.6-47l91.7-86.4l4.6,13.9
		c3.7,11.1,15.5,17.2,26.7,13.8l10.7-3.2c26.1-7.9,45.8-29.3,51.3-55.9l74.1-311.4c3,1.1,5,1.7,6.6,2.3c4.2,1.5,5.7,2,15.5,4.9
		c50,14.3,98.7,35.7,116.5,94.9c2.8,9.5,9.2,44.4,21.8,113.9c7.6,41.5,17.7,97.9,31,169.7L471.4,366.6L471.4,366.6z M448.1,133.7
		c-0.9,1-2.1,2.2-3.4,3.4c-10.7,10.2-20,20.6-28.3,31.9l-1.8,2.5l68,172.3l12.5-3.8l-39.4-214.9L448.1,133.7z M78.7,410.3
		c-7.7,7.3-10.5,18.1-7.5,28.2c4.4,14.7,19.8,23,34.4,18.6l178.9-53.7c25.3-7.6,44.7-27.9,50.6-53.1c2.8-11.9,5.3-24,7.7-35.7
		c14.5-68.7,28-133.4,89.2-190.8c13.4-12.7,18.9-31.8,13.8-48.7c-17.3-57.5-72-73.3-101.5-81.8l-5.7-1.6L269.3,283
		c-6.9,33.3-31.4,60.1-64.1,69.9l-10.7,3.2c-14.1,4.2-29.3,0.5-39.7-9.7l-3.9-3.8L78.7,410.3z"/>
</g>
<path class="st3" d="M1239.1-256.9"/>
</svg>
