<?xml version="1.0" encoding="utf-8"?>
<!-- Generator: Adobe Illustrator 22.0.1, SVG Export Plug-In . SVG Version: 6.00 Build 0)  -->
<svg version="1.1" id="Layer_1" xmlns="http://www.w3.org/2000/svg" xmlns:xlink="http://www.w3.org/1999/xlink" x="0px" y="0px"
	 viewBox="0 0 2113.4 428.3" style="enable-background:new 0 0 2113.4 428.3;" xml:space="preserve">
<style type="text/css">
	.st0{fill:#E6E6E6;}
	.st1{opacity:0.9;fill:#EFEFEF;enable-background:new    ;}
</style>
<rect x="-19.6" y="-56.6" class="st0" width="2336.9" height="637.4"/>
<path class="st1" d="M456.1-29c-1.9-3.6-6.2-5.1-9.9-3.7L79.5,114.2c-3.7,1.5-5.7,5.6-4.6,9.5l25.6,92
	c15.4,55,36.6,108.3,63.4,158.8l47,88.6c1.9,3.6,6.2,5.2,9.9,3.7l135.3-54.2c2.8-1.1,4.8-3.9,4.9-7l2.8-63.8
	c10.3-1.2,20.4-4.8,29.1-10.4l46.3,43c2.2,2.1,5.4,2.7,8.3,1.6l139.9-56c3.7-1.5,5.7-5.6,4.7-9.5l-27.2-96.4
	c-15.5-55-36.9-108.2-63.8-158.6L456.1-29z M470.2,30.8L364.8,73.1l-19.4-48.4l100.1-40.1L470.2,30.8z M226.1,128.6l-19.4-48.4
	l124.2-49.8l19.4,48.4L226.1,128.6z M192.1,86.1l19.4,48.4l-105.4,42.2L92,126.2C91.9,126.2,192.1,86.1,192.1,86.1z M549.7,218
	l25.3,89.6l-128.7,51.6l-40.8-38.1c19.3-19.7,25.2-48.9,15.1-74.6l-14.4-35.9c-1.6-4-6.2-6-10.2-4.4s-6,6.2-4.4,10.2l14.4,36
	c11,27.5-2.7,59-30.3,70s-59.2-2.2-70.2-29.7L291,256.8c-1.6-4-6.2-6-10.2-4.4s-6,6.2-4.4,10.2l14.4,35.9
	c9.6,23.8,31.6,40.4,57,43.2l-2.3,57.8l-124.1,49.7L177.8,367c-26.2-49.5-47-101.6-62.1-155.5l-5.4-19.6L477.7,44.8l9.6,17.9
	C513.6,112,534.6,164.2,549.7,218z"/>
</svg>
