<?xml version="1.0" encoding="utf-8"?>
<!-- Generator: Adobe Illustrator 22.0.1, SVG Export Plug-In . SVG Version: 6.00 Build 0)  -->
<svg version="1.1" id="Layer_1" xmlns="http://www.w3.org/2000/svg" xmlns:xlink="http://www.w3.org/1999/xlink" x="0px" y="0px"
	 viewBox="0 0 2113.4 428.3" style="enable-background:new 0 0 2113.4 428.3;" xml:space="preserve">
<style type="text/css">
	.st0{fill:#E6E6E6;}
	.st1{opacity:0.9;fill:#EFEFEF;enable-background:new    ;}
</style>
<rect x="-24.6" y="-56.6" class="st0" width="2336.9" height="637.4"/>
<path class="st1" d="M172.8,507l-5.6-17.8l57.3-18.1l-80.3-254.9l120-37.8l-12.6-40l-4.6,0.5c-31.6,3.1-61.5-16.6-71.1-47
	c-18.5-58.8,27.3-113.3,29.2-115.6l3.7-4.4l5.6,1.5c3,0.7,71.7,19.2,90.2,78c9.6,30.3-3.6,63.7-31.4,79.3l-4,2.2l12.6,40l120-37.8
	l80.4,255l57.3-18.1l5.6,17.8L172.8,507L172.8,507z M242.2,465.6l222.1-70l-12.4-39.5l-222.1,70L242.2,465.6z M224.2,408.3l222.1-70
	l-56.7-180l-222.1,70L224.2,408.3z M212.9-3.1c-12.2,18-30.8,53.4-19.4,89.5c8.1,25.8,35.7,40,61.3,31.9
	c25.8-8.1,40.1-35.6,31.9-61.3c-11.4-36.2-47-54.6-67.2-62.2l-4.2-1.6L212.9-3.1z"/>
</svg>
