<?xml version="1.0" encoding="utf-8"?>
<!-- Generator: Adobe Illustrator 22.0.1, SVG Export Plug-In . SVG Version: 6.00 Build 0)  -->
<svg version="1.1" id="Layer_1" xmlns="http://www.w3.org/2000/svg" xmlns:xlink="http://www.w3.org/1999/xlink" x="0px" y="0px"
	 viewBox="0 0 2113.4 428.3" style="enable-background:new 0 0 2113.4 428.3;" xml:space="preserve">
<style type="text/css">
	.st0{fill:#E6E6E6;}
	.st1{opacity:0.9;fill:#EFEFEF;enable-background:new    ;}
</style>
<rect x="-24.6" y="-56.6" class="st0" width="2336.9" height="637.4"/>
<path class="st1" d="M488.7,386.1c-1.9,0.6-3.8,0.5-5.7-0.1c-4.7-1.6-7.4-6.9-5.8-11.8c18.6-54.1,18.5-98.8-0.2-132.8
	c-12.4-22.8-29.2-33.6-48.6-46.3l-0.5-0.2c-16.6-10.9-35.5-23.2-51.3-45.3c-9.8-13.9-17.2-30.2-22-48.5l-3.6-14l-12,8
	c-6.4,4.1-12.8,7.3-19,9.2c-20.6,6.4-43.2,3.8-62-7.2l-10.3-6l-4.6,10.9c-7.7,19-23.2,33.4-42.5,39.4c-8,2.5-16.8,3.6-26.3,3.2
	l-15.6-0.5l5.7,14.7c6.8,18,10.2,36.1,10.1,53.8c-0.2,26.8-8.4,47.7-15.7,66.2l-0.2,0.3l-0.2,0.3c-8.1,20.4-15.7,39.6-12.9,65.3
	c4,38.8,29.2,75.8,74.9,110c2,1.4,3.2,3.5,3.7,6c0.4,2.4-0.3,4.8-1.6,6.6c-1.3,1.7-2.8,2.8-4.6,3.3c-2.8,0.9-5.9,0.3-8.2-1.5
	c-50.1-37.3-77.6-78.5-82.2-122.6c-3.2-29.8,5.9-52.8,13.8-73.1l0.2-0.3l0.2-0.3l0.2-0.3c7.1-17.8,14.4-36.1,14.8-60.2
	c0.4-26.9-8.8-54.9-27.3-83.2c-0.2-0.3-0.4-0.6-0.7-0.9v-0.1C114.6,107,95.6,85.5,71.9,64.4c-1.9-1.7-3-3.8-3-6.1
	c-0.1-2.5,0.8-4.9,2.2-6.7c1.1-1.2,2.5-2.2,4.1-2.7c3-0.9,6.3-0.2,8.6,1.9c23.9,21.4,43.1,42.8,57.5,63.9l1.3,1.8l1.9,1.3l0.2,0.2
	c15.2,8.7,35.2,11.1,50.8,6.2c26.1-8.1,40.8-36.4,32.5-63c-1.5-4.9,1.2-9.9,6-11.4c4.9-1.5,9.9,1.2,11.4,6
	c8.3,26.7,44.8,38.9,69.5,31.2c12.3-3.8,24.1-12.7,32.3-24.3l2-2.7l0.1-3.5v-0.1c-0.7-27.3,3.3-58.2,11.6-92.1
	c0.8-3.1,3.1-5.6,6.1-6.5c1.6-0.5,3.4-0.5,5.2-0.1c4.7,1.2,7.7,6.2,6.4,11.1C360,43,364.5,100.2,392.1,138.9
	c13.7,19.3,29.6,29.6,46.5,40.7l0.3,0.2l0.5,0.2c18.4,12,39.3,25.6,54.2,52.6c21.4,38.7,21.7,88.6,1.4,147.9
	C493.7,383.1,491.5,385.2,488.7,386.1z"/>
<path class="st1" d="M248.2,370c-14.3-7.5-24.7-20.1-29.5-35.5s-3.3-31.9,4.1-46s20.1-24.7,35.4-29.5c11.8-3.7,24.2-3.7,35.8-0.1
	l6.8,2.1l4.4-5.6c7.5-9.5,17.7-16.5,29.4-20.1c15.3-4.8,31.7-3.4,46,4.1s24.7,20.1,29.5,35.5s3.3,31.9-4.1,46l-54.3,103.3L248.2,370
	z M263,274.2c-11.5,3.6-20.8,11.3-26.1,21.8c-5.4,10.4-6.5,22.4-3,33.8s11.3,20.6,21.8,26.1l89.4,46.9l46.9-89.4
	c11.4-21.6,3-48.6-18.7-60.1c-10.5-5.5-22.6-6.6-33.8-3.1s-20.6,11.3-26.2,21.7l-5.6,10.7L297,277
	C286.4,271.7,274.3,270.6,263,274.2z"/>
</svg>
