<?xml version="1.0" encoding="utf-8"?>
<!-- Generator: Adobe Illustrator 22.0.1, SVG Export Plug-In . SVG Version: 6.00 Build 0)  -->
<svg version="1.1" id="Layer_1" xmlns="http://www.w3.org/2000/svg" xmlns:xlink="http://www.w3.org/1999/xlink" x="0px" y="0px"
	 viewBox="0 0 528.1 457.5" style="enable-background:new 0 0 528.1 457.5;" xml:space="preserve">
<style type="text/css">
	.st0{fill:#BFBFBF;}
</style>
<g>
	<path class="st0" d="M264.4,438.5c-64.3,0-128.7,0-193,0c-27.2,0-46.9-19.7-46.9-47c0-88.7,0-177.3,0-266c0-27.3,19.7-47,46.9-47
		c24.8,0,49.7-0.1,74.5,0.1c4.6,0,6.9-1.5,8.4-5.8c3.2-9.1,6.7-18.1,10.3-27.1c6.4-15.9,23.1-27.2,40.3-27.2c41-0.1,82-0.1,123,0
		c16.5,0,29.9,9.6,35.7,25c3.7,9.8,7.6,19.6,11.1,29.5c1.4,4,3.6,5.7,8,5.6c25.5-0.2,51-0.1,76.5-0.1c24.9,0.1,45.2,20.3,45.2,45.2
		c0,89.8,0,179.7,0,269.5c0,25.1-20.3,45.3-45.6,45.3C394.1,438.6,329.3,438.5,264.4,438.5z M264,408.5c63.5,0,127,0,190.4,0
		c15.1,0,20.1-5,20.1-20.1c0-86.6,0-173.3,0-259.9c0-1.5,0-3,0-4.5c-0.5-9-6.2-14.8-15.2-15.4c-1.8-0.1-3.7-0.1-5.5-0.1
		c-30.7,0-61.3,0-92,0c-3.4,0-5.9-0.5-7.3-4.3C348.9,88.6,342.8,73,337,57.4c-3-8-4-8.9-12.8-8.9c-16.2,0-32.3,0-48.5,0
		c-22.2,0-44.3,0-66.5,0c-10.5,0-14.8,2.9-18.6,12.6c-5.3,13.8-10.7,27.7-15.6,41.6c-1.5,4.4-3.6,5.9-8.3,5.9
		c-30.8-0.2-61.6-0.1-92.5-0.1c-14.7,0-19.8,5.1-19.8,19.8c0,86.6,0,173.3,0,259.9c0,15.1,5,20.2,20,20.2
		C137.7,408.5,200.9,408.5,264,408.5z"/>
	<path class="st0" d="M377,258.5c-0.1,61.8-50.2,112.2-112.3,112.4c-62.1,0.2-112.7-50.8-112.5-112.7
		c0.2-62.9,51.9-112.5,112.6-112.1C326.9,146.4,377,196.8,377,258.5z M346.6,258.7c1.4-44.8-37.3-83.2-83.4-82.5
		c-43.4,0.6-81.9,37.4-81,84.1c0.8,43,37.3,81.4,84.1,80.5C309.7,339.9,347.6,303.5,346.6,258.7z"/>
</g>
</svg>
