<?xml version="1.0" encoding="utf-8"?>
<!-- Generator: Adobe Illustrator 22.0.1, SVG Export Plug-In . SVG Version: 6.00 Build 0)  -->
<svg version="1.1" id="Capa_1" xmlns="http://www.w3.org/2000/svg" xmlns:xlink="http://www.w3.org/1999/xlink" x="0px" y="0px"
	 viewBox="0 0 85 56.7" style="enable-background:new 0 0 85 56.7;" xml:space="preserve">
<style type="text/css">
	.st0{opacity:0.5;}
	.st1{fill:none;stroke:#B7B7B7;stroke-width:0.4;stroke-linecap:round;stroke-linejoin:round;stroke-miterlimit:10;}
</style>
<g class="st0">
	<path class="st1" d="M39-3.8c0-0.2-0.2-0.4-0.3-0.6c-0.1-0.2-0.2-0.4-0.1-0.6c0.3-1.1-0.2-2.2-1.4-2.6c-1.5-0.4-3,0.9-2.7,2.6
		c0.2,0.8,0.8,1.4,1.6,1.5c0.6,0.1,1.2,0,1.7-0.4c0.1-0.1,0.1-0.1,0.3-0.1c0.4,0.1,0.7,0.2,1.1,0.2"/>
	<path class="st1" d="M-5.6,18.7c0.5,0.7,1,1.4,1.5,2.2c0.2,0,0.2-0.1,0.4-0.2c-0.4-0.9-0.8-1.9-1.2-2.8c-0.1-0.3-0.2-0.5-0.3-0.8
		c-0.2-0.5-0.7-0.8-1.3-0.9c-0.2,0-0.5-0.1-0.7-0.1c-0.1,0.1,0,0.2,0,0.4c0,1.4-0.1,2.7-0.1,4.1c0,0.7-0.7,1.2-1.3,0.9"/>
	<path class="st1" d="M-5.1,17.7c-0.5,0.7-0.8,1.6-0.8,2.5c0,0.3,0,0.5,0,0.8c0.1,0.7-0.3,1.1-0.8,1.4c-0.7,0.3-1.3,0.7-2,1.1
		c-0.2,0.1-0.4,0.2-0.6,0.1c-0.3-0.2-0.4-0.5-0.2-0.8c0.2-0.4,0.5-0.7,0.8-1.1c0.1-0.1,0.1-0.2,0.1-0.3"/>
	<path class="st1" d="M31-0.3c-0.2-0.5-0.5-1-0.7-1.4c-0.3-0.6-0.6-1.1-0.9-1.6c-0.1-0.3-0.3-0.3-0.6-0.3c-0.5,0.1-1,0.4-1.2,0.9
		c-0.4,0.7-1,1.1-1.9,1c-0.5,0-0.9,0.2-1.3,0.5C24.2-1.1,24.1-1,24-0.9"/>
	<path class="st1" d="M10.5,12.3c0.1-0.4,0.3-0.8,0.4-1.1c0.1-0.3-0.1-0.6-0.3-0.8c-0.2-0.1-0.5,0-0.8,0.3c-0.1,0.1-0.1,0.2-0.3,0.2
		c-0.4,0-0.6,0.2-0.6,0.5c0,0.2,0.1,0.6,0.4,0.7C9.6,12.1,10,12.2,10.5,12.3"/>
	<path class="st1" d="M30.5-1.2c-0.5,0.1-1,0.2-1.4,0.7c-0.1,0.2-0.2,0.3-0.4,0.5c-0.4,0.6-1,0.8-1.7,0.8c-0.5,0-0.9,0.1-1.3,0.5
		c-0.1,0.1-0.3,0.3-0.4,0.4"/>
	<path class="st1" d="M30-2c-0.4,0.1-0.7,0.2-1.1,0.4c-0.2,0.2-0.4,0.3-0.5,0.6c-0.4,0.7-1,1-1.9,1c-0.7,0-1.2,0.3-1.6,0.9"/>
	<path class="st1" d="M31.1-0.2c-0.5-0.1-0.9,0.1-1.3,0.4c-0.2,0.2-0.4,0.4-0.6,0.6c-0.4,0.6-1,0.9-1.7,0.9c-0.4,0-0.9,0.1-1.2,0.4
		c-0.2,0.1-0.3,0.3-0.4,0.4"/>
	<path class="st1" d="M29.5-2.9c-0.8,0.1-1.3,0.5-1.7,1.2c-0.4,0.6-1,0.9-1.7,0.8c-0.6,0-1.1,0.2-1.5,0.7c0,0.1-0.1,0.1-0.1,0.1"/>
	<path class="st1" d="M0.8,13.1c0.3-0.2,0.5-0.5,0.4-0.9c-0.1-0.5-0.5-0.7-0.9-0.8c-0.5-0.2-0.5-0.1-0.6,0.4c-0.1,0.7,0,1.1,0.4,1.3
		C0.3,13.3,0.5,13.2,0.8,13.1"/>
	<path class="st1" d="M4.3,16.2c-0.5-0.9-0.9-1.8-1.4-2.6c-0.1-0.2-0.1-0.4-0.3-0.5c-0.9,0.5-1.9,1.1-2.9,1.6c0.6,1,1.1,2.1,1.7,3.1
		"/>
	<path class="st1" d="M6.6,8.9c0.2,0.3,0.5,0.4,0.8,0.6C7.9,10,8,10.6,7.9,11.3C7.7,12,8,12.4,8.5,12.9c0.2,0.1,0.4,0.3,0.6,0.3"/>
	<path class="st1" d="M18.3,6.9c0,0.3,0.1,0.5,0.1,0.8c0,0.1,0,0.2-0.1,0.2c-0.6,0.3-1.1,0.6-1.7,0.9c-1.1-1.4-1.9-2.9-2.5-4.5
		c1.6-0.9,3.2-1.8,4.9-2.7c1.1,1.3,1.9,2.8,2.5,4.5c-0.5,0.4-1.2,0.6-1.7,1c0,0-0.1,0.1-0.2,0c-0.1-0.1-0.2-0.1-0.2-0.2
		c-0.3-0.3-0.6-0.4-1-0.2c-0.4,0.2-0.8,0-1-0.5c-0.1-0.1-0.1-0.2-0.2-0.4"/>
	<path class="st1" d="M9.8,8.5c0.2,0.5,0.6,0.9,1.1,1c0.8,0.2,1.2,1.1,1,2"/>
	<path class="st1" d="M5.1,15.8c-1.2,0.6-2.4,1.4-3.6,2C1.2,17.9,1,18,0.8,18.2"/>
	<path class="st1" d="M3.9,15.5C3,16,2.1,16.5,1.1,17"/>
	<path class="st1" d="M9.7,7.2c0,0.3,0,0.6,0.1,0.9c0.1,0.4-0.3,0.8-0.8,0.8c-0.1,0-0.3-0.1-0.4-0.1"/>
	<path class="st1" d="M19.5,2.5c-1.1,0.6-2.2,1.2-3.4,1.9c-0.6,0.3-1.1,0.7-1.7,1"/>
	<path class="st1" d="M18.7,5.1c0.2,0.3,0.4,0.6,0.4,0.9c0,0.2-0.2,0.4-0.2,0.6"/>
	<path class="st1" d="M23.7-1.3c0.4,0.6,0.7,1.2,1,1.8c0.6,1.1,1.2,2.2,1.9,3.4c0,0,0.1,0,0.1,0.1"/>
	<path class="st1" d="M8.3,8.5c0.2,0.5,0,0.9-0.5,1c-0.1,0-0.2,0-0.3,0.1"/>
	<path class="st1" d="M15.6,3.6c0.2,0.2,0.3,0.5,0.4,0.7"/>
	<path class="st1" d="M17.5,2.6c0.1,0.2,0.3,0.5,0.4,0.7"/>
	<path class="st1" d="M0.8,13.2c0.1,0.2,0.2,0.3,0.3,0.5"/>
	<path class="st1" d="M36.7-6.5c-0.2,0.1-0.3,0.3-0.4,0.5c-0.2-0.1-0.3-0.1-0.5,0c-0.4,0.3-0.4,0.7,0.1,1c0.3,0.2,0.5,0.2,0.8,0.3
		c0.2,0,0.4,0,0.5-0.3c0.1-0.3,0.2-0.6,0.2-0.9C37.4-6.3,37.3-6.5,36.7-6.5"/>
</g>
<g class="st0">
	<path class="st1" d="M9.8,23.9c0-0.2-0.2-0.4-0.3-0.6c-0.1-0.2-0.2-0.4-0.1-0.6c0.3-1.1-0.2-2.2-1.4-2.6c-1.5-0.4-3,0.9-2.7,2.6
		c0.2,0.8,0.8,1.4,1.6,1.5c0.6,0.1,1.2,0,1.7-0.4c0.1-0.1,0.1-0.1,0.3-0.1c0.4,0.1,0.7,0.2,1.1,0.2"/>
	<path class="st1" d="M-34.8,46.3c0.5,0.7,1,1.4,1.5,2.2c0.2,0,0.2-0.1,0.4-0.2c-0.4-0.9-0.8-1.9-1.2-2.8c-0.1-0.3-0.2-0.5-0.3-0.8
		c-0.2-0.5-0.7-0.8-1.3-0.9c-0.2,0-0.5-0.1-0.7-0.1c-0.1,0.1,0,0.2,0,0.4c0,1.4-0.1,2.7-0.1,4.1c0,0.7-0.7,1.2-1.3,0.9"/>
	<path class="st1" d="M-34.3,45.3c-0.5,0.7-0.8,1.6-0.8,2.5c0,0.3,0,0.5,0,0.8c0.1,0.7-0.3,1.1-0.8,1.4c-0.7,0.3-1.3,0.7-2,1.1
		c-0.2,0.1-0.4,0.2-0.6,0.1c-0.3-0.2-0.4-0.5-0.2-0.8c0.2-0.4,0.5-0.7,0.8-1.1c0.1-0.1,0.1-0.2,0.1-0.3"/>
	<path class="st1" d="M1.8,27.3c-0.2-0.5-0.5-1-0.7-1.4c-0.3-0.6-0.6-1.1-0.9-1.6C0,24-0.2,23.9-0.5,24c-0.5,0.1-1,0.4-1.2,0.9
		c-0.4,0.7-1,1.1-1.9,1c-0.5,0-0.9,0.2-1.3,0.5c-0.1,0.1-0.2,0.2-0.3,0.3"/>
	<path class="st1" d="M-18.7,39.9c0.1-0.4,0.3-0.8,0.4-1.1c0.1-0.3-0.1-0.6-0.3-0.8c-0.2-0.1-0.5,0-0.8,0.3
		c-0.1,0.1-0.1,0.2-0.3,0.2c-0.4,0-0.6,0.2-0.6,0.5c0,0.2,0.1,0.6,0.4,0.7C-19.6,39.7-19.2,39.9-18.7,39.9"/>
	<path class="st1" d="M1.3,26.5c-0.5,0.1-1,0.2-1.4,0.7c-0.1,0.2-0.2,0.3-0.4,0.5c-0.4,0.6-1,0.8-1.7,0.8c-0.5,0-0.9,0.1-1.3,0.5
		c-0.1,0.1-0.3,0.3-0.4,0.4"/>
	<path class="st1" d="M0.8,25.6c-0.4,0.1-0.7,0.2-1.1,0.4c-0.2,0.2-0.4,0.3-0.5,0.6c-0.4,0.7-1,1-1.9,1c-0.7,0-1.2,0.3-1.6,0.9"/>
	<path class="st1" d="M2,27.4c-0.5-0.1-0.9,0.1-1.3,0.4c-0.2,0.2-0.4,0.4-0.6,0.6c-0.4,0.6-1,0.9-1.7,0.9c-0.4,0-0.9,0.1-1.2,0.4
		c-0.2,0.1-0.3,0.3-0.4,0.4"/>
	<path class="st1" d="M0.3,24.7c-0.8,0.1-1.3,0.5-1.7,1.2c-0.4,0.6-1,0.9-1.7,0.8c-0.6,0-1.1,0.2-1.5,0.7c0,0.1-0.1,0.1-0.1,0.1"/>
	<path class="st1" d="M-28.4,40.8c0.3-0.2,0.5-0.5,0.4-0.9c-0.1-0.5-0.5-0.7-0.9-0.8c-0.5-0.2-0.5-0.1-0.6,0.4
		c-0.1,0.7,0,1.1,0.4,1.3C-28.9,40.9-28.7,40.8-28.4,40.8"/>
	<path class="st1" d="M-24.8,43.8c-0.5-0.9-0.9-1.8-1.4-2.6c-0.1-0.2-0.1-0.4-0.3-0.5c-0.9,0.5-1.9,1.1-2.9,1.6
		c0.6,1,1.1,2.1,1.7,3.1"/>
	<path class="st1" d="M-22.6,36.5c0.2,0.3,0.5,0.4,0.8,0.6c0.6,0.5,0.7,1.1,0.6,1.8c-0.1,0.7,0.1,1.2,0.6,1.6
		c0.2,0.1,0.4,0.3,0.6,0.3"/>
	<path class="st1" d="M-10.9,34.6c0,0.3,0.1,0.5,0.1,0.8c0,0.1,0,0.2-0.1,0.2c-0.6,0.3-1.1,0.6-1.7,0.9c-1.1-1.4-1.9-2.9-2.5-4.5
		c1.6-0.9,3.2-1.8,4.9-2.7c1.1,1.3,1.9,2.8,2.5,4.5c-0.5,0.4-1.2,0.6-1.7,1c0,0-0.1,0.1-0.2,0c-0.1-0.1-0.2-0.1-0.2-0.2
		c-0.3-0.3-0.6-0.4-1-0.2c-0.4,0.2-0.8,0-1-0.5c-0.1-0.1-0.1-0.2-0.2-0.4"/>
	<path class="st1" d="M-19.4,36.2c0.2,0.5,0.6,0.9,1.1,1c0.8,0.2,1.2,1.1,1,2"/>
	<path class="st1" d="M-24.1,43.4c-1.2,0.6-2.4,1.4-3.6,2c-0.2,0.1-0.5,0.2-0.7,0.4"/>
	<path class="st1" d="M-25.2,43.2c-0.9,0.5-1.9,1-2.8,1.5"/>
	<path class="st1" d="M-19.5,34.8c0,0.3,0,0.6,0.1,0.9c0.1,0.4-0.3,0.8-0.8,0.8c-0.1,0-0.3-0.1-0.4-0.1"/>
	<path class="st1" d="M-9.6,30.1c-1.1,0.6-2.2,1.2-3.4,1.9c-0.6,0.3-1.1,0.7-1.7,1"/>
	<path class="st1" d="M-10.5,32.8c0.2,0.3,0.4,0.6,0.4,0.9c0,0.2-0.2,0.4-0.2,0.6"/>
	<path class="st1" d="M-5.5,26.3c0.4,0.6,0.7,1.2,1,1.8c0.6,1.1,1.2,2.2,1.9,3.4c0,0,0.1,0,0.1,0.1"/>
	<path class="st1" d="M-20.8,36.2c0.2,0.5,0,0.9-0.5,1c-0.1,0-0.2,0-0.3,0.1"/>
	<path class="st1" d="M-13.6,31.3c0.2,0.2,0.3,0.5,0.4,0.7"/>
	<path class="st1" d="M-11.7,30.2c0.1,0.2,0.3,0.5,0.4,0.7"/>
	<path class="st1" d="M-28.4,40.9c0.1,0.2,0.2,0.3,0.3,0.5"/>
	<path class="st1" d="M7.5,21.2c-0.2,0.1-0.3,0.3-0.4,0.5c-0.2-0.1-0.3-0.1-0.5,0c-0.4,0.3-0.4,0.7,0.1,1C7,22.9,7.2,22.9,7.5,23
		c0.2,0,0.4,0,0.5-0.3c0.1-0.3,0.2-0.6,0.2-0.9C8.2,21.3,8.1,21.2,7.5,21.2"/>
</g>
<g class="st0">
	<path class="st1" d="M62.6-6.1c0-0.2-0.2-0.4-0.3-0.6c-0.1-0.2-0.2-0.4-0.1-0.6c0.3-1.1-0.2-2.2-1.4-2.6c-1.5-0.4-3,0.9-2.7,2.6
		c0.2,0.8,0.8,1.4,1.6,1.5c0.6,0.1,1.2,0,1.7-0.4c0.1-0.1,0.1-0.1,0.3-0.1C62-6.2,62.4-6.1,62.8-6"/>
	<path class="st1" d="M18,16.4c0.5,0.7,1,1.4,1.5,2.2c0.2,0,0.2-0.1,0.4-0.2c-0.4-0.9-0.8-1.9-1.2-2.8c-0.1-0.3-0.2-0.5-0.3-0.8
		c-0.2-0.5-0.7-0.8-1.3-0.9c-0.2,0-0.5-0.1-0.7-0.1c-0.1,0.1,0,0.2,0,0.4c0,1.4-0.1,2.7-0.1,4.1c0,0.7-0.7,1.2-1.3,0.9"/>
	<path class="st1" d="M18.5,15.3c-0.5,0.7-0.8,1.6-0.8,2.5c0,0.3,0,0.5,0,0.8c0.1,0.7-0.3,1.1-0.8,1.4c-0.7,0.3-1.3,0.7-2,1.1
		c-0.2,0.1-0.4,0.2-0.6,0.1c-0.3-0.2-0.4-0.5-0.2-0.8c0.2-0.4,0.5-0.7,0.8-1.1C15,19.2,15,19.1,15,19"/>
	<path class="st1" d="M54.6-2.6c-0.2-0.5-0.5-1-0.7-1.4c-0.3-0.6-0.6-1.1-0.9-1.6C52.8-6,52.6-6.1,52.3-6c-0.5,0.1-1,0.4-1.2,0.9
		c-0.4,0.7-1,1.1-1.9,1c-0.5,0-0.9,0.2-1.3,0.5c-0.1,0.1-0.2,0.2-0.3,0.3"/>
	<path class="st1" d="M34.1,9.9c0.1-0.4,0.3-0.8,0.4-1.1c0.1-0.3-0.1-0.6-0.3-0.8c-0.2-0.1-0.5,0-0.8,0.3c-0.1,0.1-0.1,0.2-0.3,0.2
		c-0.4,0-0.6,0.2-0.6,0.5c0,0.2,0.1,0.6,0.4,0.7C33.2,9.7,33.6,9.9,34.1,9.9"/>
	<path class="st1" d="M54.1-3.5c-0.5,0.1-1,0.2-1.4,0.7c-0.1,0.2-0.2,0.3-0.4,0.5c-0.4,0.6-1,0.8-1.7,0.8c-0.5,0-0.9,0.1-1.3,0.5
		c-0.1,0.1-0.3,0.3-0.4,0.4"/>
	<path class="st1" d="M53.6-4.4c-0.4,0.1-0.7,0.2-1.1,0.4c-0.2,0.2-0.4,0.3-0.5,0.6c-0.4,0.7-1,1-1.9,1c-0.7,0-1.2,0.3-1.6,0.9"/>
	<path class="st1" d="M54.7-2.5c-0.5-0.1-0.9,0.1-1.3,0.4C53.2-2,53-1.8,52.9-1.5c-0.4,0.6-1,0.9-1.7,0.9c-0.4,0-0.9,0.1-1.2,0.4
		c-0.2,0.1-0.3,0.3-0.4,0.4"/>
	<path class="st1" d="M53.1-5.2c-0.8,0.1-1.3,0.5-1.7,1.2c-0.4,0.6-1,0.9-1.7,0.8c-0.6,0-1.1,0.2-1.5,0.7c0,0.1-0.1,0.1-0.1,0.1"/>
	<path class="st1" d="M24.4,10.8c0.3-0.2,0.5-0.5,0.4-0.9c-0.1-0.5-0.5-0.7-0.9-0.8C23.3,9,23.3,9,23.2,9.5c-0.1,0.7,0,1.1,0.4,1.3
		C23.9,10.9,24.1,10.8,24.4,10.8"/>
	<path class="st1" d="M27.9,13.8c-0.5-0.9-0.9-1.8-1.4-2.6c-0.1-0.2-0.1-0.4-0.3-0.5c-0.9,0.5-1.9,1.1-2.9,1.6
		c0.6,1,1.1,2.1,1.7,3.1"/>
	<path class="st1" d="M30.2,6.5c0.2,0.3,0.5,0.4,0.8,0.6c0.6,0.5,0.7,1.1,0.6,1.8c-0.1,0.7,0.1,1.2,0.6,1.6c0.2,0.1,0.4,0.3,0.6,0.3
		"/>
	<path class="st1" d="M41.9,4.6c0,0.3,0.1,0.5,0.1,0.8c0,0.1,0,0.2-0.1,0.2c-0.6,0.3-1.1,0.6-1.7,0.9c-1.1-1.4-1.9-2.9-2.5-4.5
		c1.6-0.9,3.2-1.8,4.9-2.7c1.1,1.3,1.9,2.8,2.5,4.5c-0.5,0.4-1.2,0.6-1.7,1c0,0-0.1,0.1-0.2,0C43.1,4.8,43,4.7,43,4.7
		c-0.3-0.3-0.6-0.4-1-0.2c-0.4,0.2-0.8,0-1-0.5c-0.1-0.1-0.1-0.2-0.2-0.4"/>
	<path class="st1" d="M33.4,6.2c0.2,0.5,0.6,0.9,1.1,1c0.8,0.2,1.2,1.1,1,2"/>
	<path class="st1" d="M28.7,13.5c-1.2,0.6-2.4,1.4-3.6,2c-0.2,0.1-0.5,0.2-0.7,0.4"/>
	<path class="st1" d="M27.5,13.2c-0.9,0.5-1.9,1-2.8,1.5"/>
	<path class="st1" d="M33.3,4.9c0,0.3,0,0.6,0.1,0.9c0.1,0.4-0.3,0.8-0.8,0.8c-0.1,0-0.3-0.1-0.4-0.1"/>
	<path class="st1" d="M43.1,0.1C42,0.7,40.9,1.4,39.8,2c-0.6,0.3-1.1,0.7-1.7,1"/>
	<path class="st1" d="M42.3,2.8c0.2,0.3,0.4,0.6,0.4,0.9c0,0.2-0.2,0.4-0.2,0.6"/>
	<path class="st1" d="M47.3-3.6c0.4,0.6,0.7,1.2,1,1.8c0.6,1.1,1.2,2.2,1.9,3.4c0,0,0.1,0,0.1,0.1"/>
	<path class="st1" d="M31.9,6.2c0.2,0.5,0,0.9-0.5,1c-0.1,0-0.2,0-0.3,0.1"/>
	<path class="st1" d="M39.2,1.3c0.2,0.2,0.3,0.5,0.4,0.7"/>
	<path class="st1" d="M41.1,0.2c0.1,0.2,0.3,0.5,0.4,0.7"/>
	<path class="st1" d="M24.4,10.9c0.1,0.2,0.2,0.3,0.3,0.5"/>
	<path class="st1" d="M60.3-8.8c-0.2,0.1-0.3,0.3-0.4,0.5c-0.2-0.1-0.3-0.1-0.5,0c-0.4,0.3-0.4,0.7,0.1,1C59.7-7.1,60-7,60.3-7
		c0.2,0,0.4,0,0.5-0.3C60.9-7.5,61-7.8,61-8.1C61-8.6,60.8-8.8,60.3-8.8"/>
</g>
<g class="st0">
	<path class="st1" d="M34.3,21.5c0-0.2-0.2-0.4-0.3-0.6c-0.1-0.2-0.2-0.4-0.1-0.6c0.3-1.1-0.2-2.2-1.4-2.6c-1.5-0.4-3,0.9-2.7,2.6
		c0.2,0.8,0.8,1.4,1.6,1.5c0.6,0.1,1.2,0,1.7-0.4c0.1-0.1,0.1-0.1,0.3-0.1c0.4,0.1,0.7,0.2,1.1,0.2"/>
	<path class="st1" d="M-10.3,44c0.5,0.7,1,1.4,1.5,2.2c0.2,0,0.2-0.1,0.4-0.2c-0.4-0.9-0.8-1.9-1.2-2.8c-0.1-0.3-0.2-0.5-0.3-0.8
		c-0.2-0.5-0.7-0.8-1.3-0.9c-0.2,0-0.5-0.1-0.7-0.1c-0.1,0.1,0,0.2,0,0.4c0,1.4-0.1,2.7-0.1,4.1c0,0.7-0.7,1.2-1.3,0.9"/>
	<path class="st1" d="M-9.8,43c-0.5,0.7-0.8,1.6-0.8,2.5c0,0.3,0,0.5,0,0.8c0.1,0.7-0.3,1.1-0.8,1.4c-0.7,0.3-1.3,0.7-2,1.1
		c-0.2,0.1-0.4,0.2-0.6,0.1c-0.3-0.2-0.4-0.5-0.2-0.8c0.2-0.4,0.5-0.7,0.8-1.1c0.1-0.1,0.1-0.2,0.1-0.3"/>
	<path class="st1" d="M26.2,25c-0.2-0.5-0.5-1-0.7-1.4c-0.3-0.6-0.6-1.1-0.9-1.6c-0.1-0.3-0.3-0.3-0.6-0.3c-0.5,0.1-1,0.4-1.2,0.9
		c-0.4,0.7-1,1.1-1.9,1c-0.5,0-0.9,0.2-1.3,0.5c-0.1,0.1-0.2,0.2-0.3,0.3"/>
	<path class="st1" d="M5.7,37.6c0.1-0.4,0.3-0.8,0.4-1.1c0.1-0.3-0.1-0.6-0.3-0.8c-0.2-0.1-0.5,0-0.8,0.3c-0.1,0.1-0.1,0.2-0.3,0.2
		c-0.4,0-0.6,0.2-0.6,0.5c0,0.2,0.1,0.6,0.4,0.7C4.9,37.4,5.3,37.6,5.7,37.6"/>
	<path class="st1" d="M25.8,24.2c-0.5,0.1-1,0.2-1.4,0.7c-0.1,0.2-0.2,0.3-0.4,0.5c-0.4,0.6-1,0.8-1.7,0.8c-0.5,0-0.9,0.1-1.3,0.5
		c-0.1,0.1-0.3,0.3-0.4,0.4"/>
	<path class="st1" d="M25.2,23.3c-0.4,0.1-0.7,0.2-1.1,0.4c-0.2,0.2-0.4,0.3-0.5,0.6c-0.4,0.7-1,1-1.9,1c-0.7,0-1.2,0.3-1.6,0.9"/>
	<path class="st1" d="M26.4,25.1c-0.5-0.1-0.9,0.1-1.3,0.4c-0.2,0.2-0.4,0.4-0.6,0.6c-0.4,0.6-1,0.9-1.7,0.9c-0.4,0-0.9,0.1-1.2,0.4
		c-0.2,0.1-0.3,0.3-0.4,0.4"/>
	<path class="st1" d="M24.8,22.4c-0.8,0.1-1.3,0.5-1.7,1.2c-0.4,0.6-1,0.9-1.7,0.8c-0.6,0-1.1,0.2-1.5,0.7c0,0.1-0.1,0.1-0.1,0.1"/>
	<path class="st1" d="M-4,38.5c0.3-0.2,0.5-0.5,0.4-0.9c-0.1-0.5-0.5-0.7-0.9-0.8C-5,36.6-5,36.6-5.1,37.1c-0.1,0.7,0,1.1,0.4,1.3
		C-4.4,38.6-4.2,38.5-4,38.5"/>
	<path class="st1" d="M-0.4,41.5c-0.5-0.9-0.9-1.8-1.4-2.6c-0.1-0.2-0.1-0.4-0.3-0.5C-3.1,38.9-4.1,39.4-5,40c0.6,1,1.1,2.1,1.7,3.1
		"/>
	<path class="st1" d="M1.8,34.2c0.2,0.3,0.5,0.4,0.8,0.6c0.6,0.5,0.7,1.1,0.6,1.8c-0.1,0.7,0.1,1.2,0.6,1.6c0.2,0.1,0.4,0.3,0.6,0.3
		"/>
	<path class="st1" d="M13.6,32.3c0,0.3,0.1,0.5,0.1,0.8c0,0.1,0,0.2-0.1,0.2c-0.6,0.3-1.1,0.6-1.7,0.9c-1.1-1.4-1.9-2.9-2.5-4.5
		c1.6-0.9,3.2-1.8,4.9-2.7c1.1,1.3,1.9,2.8,2.5,4.5c-0.5,0.4-1.2,0.6-1.7,1c0,0-0.1,0.1-0.2,0c-0.1-0.1-0.2-0.1-0.2-0.2
		c-0.3-0.3-0.6-0.4-1-0.2c-0.4,0.2-0.8,0-1-0.5c-0.1-0.1-0.1-0.2-0.2-0.4"/>
	<path class="st1" d="M5.1,33.9c0.2,0.5,0.6,0.9,1.1,1c0.8,0.2,1.2,1.1,1,2"/>
	<path class="st1" d="M0.3,41.1c-1.2,0.6-2.4,1.4-3.6,2c-0.2,0.1-0.5,0.2-0.7,0.4"/>
	<path class="st1" d="M-0.8,40.8c-0.9,0.5-1.9,1-2.8,1.5"/>
	<path class="st1" d="M4.9,32.5c0,0.3,0,0.6,0.1,0.9c0.1,0.4-0.3,0.8-0.8,0.8c-0.1,0-0.3-0.1-0.4-0.1"/>
	<path class="st1" d="M14.8,27.8c-1.1,0.6-2.2,1.2-3.4,1.9c-0.6,0.3-1.1,0.7-1.7,1"/>
	<path class="st1" d="M14,30.4c0.2,0.3,0.4,0.6,0.4,0.9c0,0.2-0.2,0.4-0.2,0.6"/>
	<path class="st1" d="M18.9,24c0.4,0.6,0.7,1.2,1,1.8c0.6,1.1,1.2,2.2,1.9,3.4c0,0,0.1,0,0.1,0.1"/>
	<path class="st1" d="M3.6,33.9c0.2,0.5,0,0.9-0.5,1c-0.1,0-0.2,0-0.3,0.1"/>
	<path class="st1" d="M10.9,28.9c0.2,0.2,0.3,0.5,0.4,0.7"/>
	<path class="st1" d="M12.8,27.9c0.1,0.2,0.3,0.5,0.4,0.7"/>
	<path class="st1" d="M-3.9,38.5c0.1,0.2,0.2,0.3,0.3,0.5"/>
	<path class="st1" d="M32,18.8c-0.2,0.1-0.3,0.3-0.4,0.5c-0.2-0.1-0.3-0.1-0.5,0c-0.4,0.3-0.4,0.7,0.1,1c0.3,0.2,0.5,0.2,0.8,0.3
		c0.2,0,0.4,0,0.5-0.3c0.1-0.3,0.2-0.6,0.2-0.9C32.7,19,32.5,18.8,32,18.8"/>
</g>
<g class="st0">
	<path class="st1" d="M87.1-8.4c0-0.2-0.2-0.4-0.3-0.6c-0.1-0.2-0.2-0.4-0.1-0.6c0.3-1.1-0.2-2.2-1.4-2.6c-1.5-0.4-3,0.9-2.7,2.6
		c0.2,0.8,0.8,1.4,1.6,1.5c0.6,0.1,1.2,0,1.7-0.4c0.1-0.1,0.1-0.1,0.3-0.1c0.4,0.1,0.7,0.2,1.1,0.2"/>
	<path class="st1" d="M42.5,14c0.5,0.7,1,1.4,1.5,2.2c0.2,0,0.2-0.1,0.4-0.2c-0.4-0.9-0.8-1.9-1.2-2.8C43,13,43,12.7,42.9,12.5
		c-0.2-0.5-0.7-0.8-1.3-0.9c-0.2,0-0.5-0.1-0.7-0.1c-0.1,0.1,0,0.2,0,0.4c0,1.4-0.1,2.7-0.1,4.1c0,0.7-0.7,1.2-1.3,0.9"/>
	<path class="st1" d="M42.9,13c-0.5,0.7-0.8,1.6-0.8,2.5c0,0.3,0,0.5,0,0.8c0.1,0.7-0.3,1.1-0.8,1.4c-0.7,0.3-1.3,0.7-2,1.1
		c-0.2,0.1-0.4,0.2-0.6,0.1c-0.3-0.2-0.4-0.5-0.2-0.8c0.2-0.4,0.5-0.7,0.8-1.1c0.1-0.1,0.1-0.2,0.1-0.3"/>
	<path class="st1" d="M79-5c-0.2-0.5-0.5-1-0.7-1.4C78-6.9,77.6-7.5,77.4-8c-0.1-0.3-0.3-0.3-0.6-0.3c-0.5,0.1-1,0.4-1.2,0.9
		c-0.4,0.7-1,1.1-1.9,1c-0.5,0-0.9,0.2-1.3,0.5c-0.1,0.1-0.2,0.2-0.3,0.3"/>
	<path class="st1" d="M58.5,7.6c0.1-0.4,0.3-0.8,0.4-1.1c0.1-0.3-0.1-0.6-0.3-0.8c-0.2-0.1-0.5,0-0.8,0.3c-0.1,0.1-0.1,0.2-0.3,0.2
		c-0.4,0-0.6,0.2-0.6,0.5c0,0.2,0.1,0.6,0.4,0.7C57.7,7.4,58,7.6,58.5,7.6"/>
	<path class="st1" d="M78.5-5.8c-0.5,0.1-1,0.2-1.4,0.7C77-5,76.9-4.8,76.8-4.6c-0.4,0.6-1,0.8-1.7,0.8c-0.5,0-0.9,0.1-1.3,0.5
		c-0.1,0.1-0.3,0.3-0.4,0.4"/>
	<path class="st1" d="M78-6.7c-0.4,0.1-0.7,0.2-1.1,0.4c-0.2,0.2-0.4,0.3-0.5,0.6c-0.4,0.7-1,1-1.9,1c-0.7,0-1.2,0.3-1.6,0.9"/>
	<path class="st1" d="M79.2-4.9c-0.5-0.1-0.9,0.1-1.3,0.4c-0.2,0.2-0.4,0.4-0.6,0.6c-0.4,0.6-1,0.9-1.7,0.9c-0.4,0-0.9,0.1-1.2,0.4
		c-0.2,0.1-0.3,0.3-0.4,0.4"/>
	<path class="st1" d="M77.5-7.6c-0.8,0.1-1.3,0.5-1.7,1.2c-0.4,0.6-1,0.9-1.7,0.8c-0.6,0-1.1,0.2-1.5,0.7c0,0.1-0.1,0.1-0.1,0.1"/>
	<path class="st1" d="M48.8,8.5c0.3-0.2,0.5-0.5,0.4-0.9c-0.1-0.5-0.5-0.7-0.9-0.8c-0.5-0.2-0.5-0.1-0.6,0.4c-0.1,0.7,0,1.1,0.4,1.3
		C48.3,8.6,48.6,8.5,48.8,8.5"/>
	<path class="st1" d="M52.4,11.5c-0.5-0.9-0.9-1.8-1.4-2.6c-0.1-0.2-0.1-0.4-0.3-0.5c-0.9,0.5-1.9,1.1-2.9,1.6
		c0.6,1,1.1,2.1,1.7,3.1"/>
	<path class="st1" d="M54.6,4.2c0.2,0.3,0.5,0.4,0.8,0.6C56,5.3,56.1,6,55.9,6.6c-0.1,0.7,0.1,1.2,0.6,1.6c0.2,0.1,0.4,0.3,0.6,0.3"
		/>
	<path class="st1" d="M66.4,2.3c0,0.3,0.1,0.5,0.1,0.8c0,0.1,0,0.2-0.1,0.2c-0.6,0.3-1.1,0.6-1.7,0.9c-1.1-1.4-1.9-2.9-2.5-4.5
		C63.7-1.2,65.4-2.1,67-3c1.1,1.3,1.9,2.8,2.5,4.5c-0.5,0.4-1.2,0.6-1.7,1c0,0-0.1,0.1-0.2,0c-0.1-0.1-0.2-0.1-0.2-0.2
		c-0.3-0.3-0.6-0.4-1-0.2c-0.4,0.2-0.8,0-1-0.5c-0.1-0.1-0.1-0.2-0.2-0.4"/>
	<path class="st1" d="M57.9,3.9c0.2,0.5,0.6,0.9,1.1,1c0.8,0.2,1.2,1.1,1,2"/>
	<path class="st1" d="M53.1,11.1c-1.2,0.6-2.4,1.4-3.6,2c-0.2,0.1-0.5,0.2-0.7,0.4"/>
	<path class="st1" d="M52,10.9c-0.9,0.5-1.9,1-2.8,1.5"/>
	<path class="st1" d="M57.7,2.5c0,0.3,0,0.6,0.1,0.9c0.1,0.4-0.3,0.8-0.8,0.8c-0.1,0-0.3-0.1-0.4-0.1"/>
	<path class="st1" d="M67.6-2.2c-1.1,0.6-2.2,1.2-3.4,1.9c-0.6,0.3-1.1,0.7-1.7,1"/>
	<path class="st1" d="M66.8,0.5c0.2,0.3,0.4,0.6,0.4,0.9c0,0.2-0.2,0.4-0.2,0.6"/>
	<path class="st1" d="M71.7-6c0.4,0.6,0.7,1.2,1,1.8c0.6,1.1,1.2,2.2,1.9,3.4c0,0,0.1,0,0.1,0.1"/>
	<path class="st1" d="M56.4,3.9c0.2,0.5,0,0.9-0.5,1c-0.1,0-0.2,0-0.3,0.1"/>
	<path class="st1" d="M63.7-1c0.2,0.2,0.3,0.5,0.4,0.7"/>
	<path class="st1" d="M65.6-2.1c0.1,0.2,0.3,0.5,0.4,0.7"/>
	<path class="st1" d="M48.8,8.6c0.1,0.2,0.2,0.3,0.3,0.5"/>
	<path class="st1" d="M84.7-11.1c-0.2,0.1-0.3,0.3-0.4,0.5c-0.2-0.1-0.3-0.1-0.5,0c-0.4,0.3-0.4,0.7,0.1,1c0.3,0.2,0.5,0.2,0.8,0.3
		c0.2,0,0.4,0,0.5-0.3c0.1-0.3,0.2-0.6,0.2-0.9C85.5-11,85.3-11.1,84.7-11.1"/>
</g>
<g class="st0">
	<path class="st1" d="M5.7,49.9c0-0.2-0.2-0.4-0.3-0.6c-0.1-0.2-0.2-0.4-0.1-0.6c0.3-1.1-0.2-2.2-1.4-2.6c-1.5-0.4-3,0.9-2.7,2.6
		c0.2,0.8,0.8,1.4,1.6,1.5c0.6,0.1,1.2,0,1.7-0.4c0.1-0.1,0.1-0.1,0.3-0.1c0.4,0.1,0.7,0.2,1.1,0.2"/>
	<path class="st1" d="M-38.9,72.4c0.5,0.7,1,1.4,1.5,2.2c0.2,0,0.2-0.1,0.4-0.2c-0.4-0.9-0.8-1.9-1.2-2.8c-0.1-0.3-0.2-0.5-0.3-0.8
		c-0.2-0.5-0.7-0.8-1.3-0.9c-0.2,0-0.5-0.1-0.7-0.1c-0.1,0.1,0,0.2,0,0.4c0,1.4-0.1,2.7-0.1,4.1c0,0.7-0.7,1.2-1.3,0.9"/>
	<path class="st1" d="M-38.4,71.3c-0.5,0.7-0.8,1.6-0.8,2.5c0,0.3,0,0.5,0,0.8c0.1,0.7-0.3,1.1-0.8,1.4c-0.7,0.3-1.3,0.7-2,1.1
		c-0.2,0.1-0.4,0.2-0.6,0.1c-0.3-0.2-0.4-0.5-0.2-0.8c0.2-0.4,0.5-0.7,0.8-1.1c0.1-0.1,0.1-0.2,0.1-0.3"/>
	<path class="st1" d="M-2.4,53.4c-0.2-0.5-0.5-1-0.7-1.4c-0.3-0.6-0.6-1.1-0.9-1.6C-4.2,50-4.3,49.9-4.6,50c-0.5,0.1-1,0.4-1.2,0.9
		c-0.4,0.7-1,1.1-1.9,1c-0.5,0-0.9,0.2-1.3,0.5c-0.1,0.1-0.2,0.2-0.3,0.3"/>
	<path class="st1" d="M-22.9,65.9c0.1-0.4,0.3-0.8,0.4-1.1c0.1-0.3-0.1-0.6-0.3-0.8c-0.2-0.1-0.5,0-0.8,0.3
		c-0.1,0.1-0.1,0.2-0.3,0.2c-0.4,0-0.6,0.2-0.6,0.5c0,0.2,0.1,0.6,0.4,0.7C-23.7,65.7-23.3,65.9-22.9,65.9"/>
	<path class="st1" d="M-2.9,52.5c-0.5,0.1-1,0.2-1.4,0.7c-0.1,0.2-0.2,0.3-0.4,0.5c-0.4,0.6-1,0.8-1.7,0.8c-0.5,0-0.9,0.1-1.3,0.5
		c-0.1,0.1-0.3,0.3-0.4,0.4"/>
	<path class="st1" d="M-3.4,51.6c-0.4,0.1-0.7,0.2-1.1,0.4c-0.2,0.2-0.4,0.3-0.5,0.6c-0.4,0.7-1,1-1.9,1c-0.7,0-1.2,0.3-1.6,0.9"/>
	<path class="st1" d="M-2.2,53.5c-0.5-0.1-0.9,0.1-1.3,0.4c-0.2,0.2-0.4,0.4-0.6,0.6c-0.4,0.6-1,0.9-1.7,0.9c-0.4,0-0.9,0.1-1.2,0.4
		c-0.2,0.1-0.3,0.3-0.4,0.4"/>
	<path class="st1" d="M-3.9,50.8c-0.8,0.1-1.3,0.5-1.7,1.2c-0.4,0.6-1,0.9-1.7,0.8c-0.6,0-1.1,0.2-1.5,0.7c0,0.1-0.1,0.1-0.1,0.1"/>
	<path class="st1" d="M-32.6,66.8c0.3-0.2,0.5-0.5,0.4-0.9c-0.1-0.5-0.5-0.7-0.9-0.8c-0.5-0.2-0.5-0.1-0.6,0.4
		c-0.1,0.7,0,1.1,0.4,1.3C-33.1,66.9-32.8,66.8-32.6,66.8"/>
	<path class="st1" d="M-29,69.8c-0.5-0.9-0.9-1.8-1.4-2.6c-0.1-0.2-0.1-0.4-0.3-0.5c-0.9,0.5-1.9,1.1-2.9,1.6c0.6,1,1.1,2.1,1.7,3.1
		"/>
	<path class="st1" d="M-26.8,62.5c0.2,0.3,0.5,0.4,0.8,0.6c0.6,0.5,0.7,1.1,0.6,1.8c-0.1,0.7,0.1,1.2,0.6,1.6
		c0.2,0.1,0.4,0.3,0.6,0.3"/>
	<path class="st1" d="M-15,60.6c0,0.3,0.1,0.5,0.1,0.8c0,0.1,0,0.2-0.1,0.2c-0.6,0.3-1.1,0.6-1.7,0.9c-1.1-1.4-1.9-2.9-2.5-4.5
		c1.6-0.9,3.2-1.8,4.9-2.7c1.1,1.3,1.9,2.8,2.5,4.5c-0.5,0.4-1.2,0.6-1.7,1c0,0-0.1,0.1-0.2,0c-0.1-0.1-0.2-0.1-0.2-0.2
		c-0.3-0.3-0.6-0.4-1-0.2c-0.4,0.2-0.8,0-1-0.5c-0.1-0.1-0.1-0.2-0.2-0.4"/>
	<path class="st1" d="M-23.5,62.2c0.2,0.5,0.6,0.9,1.1,1c0.8,0.2,1.2,1.1,1,2"/>
	<path class="st1" d="M-28.3,69.5c-1.2,0.6-2.4,1.4-3.6,2c-0.2,0.1-0.5,0.2-0.7,0.4"/>
	<path class="st1" d="M-29.4,69.2c-0.9,0.5-1.9,1-2.8,1.5"/>
	<path class="st1" d="M-23.7,60.9c0,0.3,0,0.6,0.1,0.9c0.1,0.4-0.3,0.8-0.8,0.8c-0.1,0-0.3-0.1-0.4-0.1"/>
	<path class="st1" d="M-13.8,56.1c-1.1,0.6-2.2,1.2-3.4,1.9c-0.6,0.3-1.1,0.7-1.7,1"/>
	<path class="st1" d="M-14.6,58.8c0.2,0.3,0.4,0.6,0.4,0.9c0,0.2-0.2,0.4-0.2,0.6"/>
	<path class="st1" d="M-9.7,52.4c0.4,0.6,0.7,1.2,1,1.8c0.6,1.1,1.2,2.2,1.9,3.4c0,0,0.1,0,0.1,0.1"/>
	<path class="st1" d="M-25,62.2c0.2,0.5,0,0.9-0.5,1c-0.1,0-0.2,0-0.3,0.1"/>
	<path class="st1" d="M-17.7,57.3c0.2,0.2,0.3,0.5,0.4,0.7"/>
	<path class="st1" d="M-15.8,56.2c0.1,0.2,0.3,0.5,0.4,0.7"/>
	<path class="st1" d="M-32.5,66.9c0.1,0.2,0.2,0.3,0.3,0.5"/>
	<path class="st1" d="M3.3,47.2c-0.2,0.1-0.3,0.3-0.4,0.5c-0.2-0.1-0.3-0.1-0.5,0c-0.4,0.3-0.4,0.7,0.1,1C2.8,48.9,3.1,49,3.4,49
		c0.2,0,0.4,0,0.5-0.3c0.1-0.3,0.2-0.6,0.2-0.9C4.1,47.4,3.9,47.2,3.3,47.2"/>
</g>
<g class="st0">
	<path class="st1" d="M58.5,19.1c0-0.2-0.2-0.4-0.3-0.6c-0.1-0.2-0.2-0.4-0.1-0.6c0.3-1.1-0.2-2.2-1.4-2.6c-1.5-0.4-3,0.9-2.7,2.6
		c0.2,0.8,0.8,1.4,1.6,1.5c0.6,0.1,1.2,0,1.7-0.4c0.1-0.1,0.1-0.1,0.3-0.1c0.4,0.1,0.7,0.2,1.1,0.2"/>
	<path class="st1" d="M13.9,41.6c0.5,0.7,1,1.4,1.5,2.2c0.2,0,0.2-0.1,0.4-0.2c-0.4-0.9-0.8-1.9-1.2-2.8c-0.1-0.3-0.2-0.5-0.3-0.8
		c-0.2-0.5-0.7-0.8-1.3-0.9c-0.2,0-0.5-0.1-0.7-0.1c-0.1,0.1,0,0.2,0,0.4c0,1.4-0.1,2.7-0.1,4.1c0,0.7-0.7,1.2-1.3,0.9"/>
	<path class="st1" d="M14.3,40.6c-0.5,0.7-0.8,1.6-0.8,2.5c0,0.3,0,0.5,0,0.8c0.1,0.7-0.3,1.1-0.8,1.4c-0.7,0.3-1.3,0.7-2,1.1
		c-0.2,0.1-0.4,0.2-0.6,0.1c-0.3-0.2-0.4-0.5-0.2-0.8c0.2-0.4,0.5-0.7,0.8-1.1c0.1-0.1,0.1-0.2,0.1-0.3"/>
	<path class="st1" d="M50.4,22.6c-0.2-0.5-0.5-1-0.7-1.4c-0.3-0.6-0.6-1.1-0.9-1.6c-0.1-0.3-0.3-0.3-0.6-0.3c-0.5,0.1-1,0.4-1.2,0.9
		c-0.4,0.7-1,1.1-1.9,1c-0.5,0-0.9,0.2-1.3,0.5c-0.1,0.1-0.2,0.2-0.3,0.3"/>
	<path class="st1" d="M29.9,35.2c0.1-0.4,0.3-0.8,0.4-1.1c0.1-0.3-0.1-0.6-0.3-0.8c-0.2-0.1-0.5,0-0.8,0.3c-0.1,0.1-0.1,0.2-0.3,0.2
		c-0.4,0-0.6,0.2-0.6,0.5c0,0.2,0.1,0.6,0.4,0.7C29,34.9,29.4,35.1,29.9,35.2"/>
	<path class="st1" d="M49.9,21.7c-0.5,0.1-1,0.2-1.4,0.7c-0.1,0.2-0.2,0.3-0.4,0.5c-0.4,0.6-1,0.8-1.7,0.8c-0.5,0-0.9,0.1-1.3,0.5
		c-0.1,0.1-0.3,0.3-0.4,0.4"/>
	<path class="st1" d="M49.4,20.9C49,21,48.7,21,48.3,21.3c-0.2,0.2-0.4,0.3-0.5,0.6c-0.4,0.7-1,1-1.9,1c-0.7,0-1.2,0.3-1.6,0.9"/>
	<path class="st1" d="M50.6,22.7c-0.5-0.1-0.9,0.1-1.3,0.4c-0.2,0.2-0.4,0.4-0.6,0.6c-0.4,0.6-1,0.9-1.7,0.9c-0.4,0-0.9,0.1-1.2,0.4
		c-0.2,0.1-0.3,0.3-0.4,0.4"/>
	<path class="st1" d="M48.9,20c-0.8,0.1-1.3,0.5-1.7,1.2c-0.4,0.6-1,0.9-1.7,0.8c-0.6,0-1.1,0.2-1.5,0.7c0,0.1-0.1,0.1-0.1,0.1"/>
	<path class="st1" d="M20.2,36c0.3-0.2,0.5-0.5,0.4-0.9c-0.1-0.5-0.5-0.7-0.9-0.8c-0.5-0.2-0.5-0.1-0.6,0.4c-0.1,0.7,0,1.1,0.4,1.3
		C19.7,36.2,20,36.1,20.2,36"/>
	<path class="st1" d="M23.8,39.1c-0.5-0.9-0.9-1.8-1.4-2.6c-0.1-0.2-0.1-0.4-0.3-0.5c-0.9,0.5-1.9,1.1-2.9,1.6
		c0.6,1,1.1,2.1,1.7,3.1"/>
	<path class="st1" d="M26,31.8c0.2,0.3,0.5,0.4,0.8,0.6c0.6,0.5,0.7,1.1,0.6,1.8c-0.1,0.7,0.1,1.2,0.6,1.6c0.2,0.1,0.4,0.3,0.6,0.3"
		/>
	<path class="st1" d="M37.7,29.8c0,0.3,0.1,0.5,0.1,0.8c0,0.1,0,0.2-0.1,0.2c-0.6,0.3-1.1,0.6-1.7,0.9c-1.1-1.4-1.9-2.9-2.5-4.5
		c1.6-0.9,3.2-1.8,4.9-2.7c1.1,1.3,1.9,2.8,2.5,4.5c-0.5,0.4-1.2,0.6-1.7,1c0,0-0.1,0.1-0.2,0C39,30,38.9,30,38.8,29.9
		c-0.3-0.3-0.6-0.4-1-0.2c-0.4,0.2-0.8,0-1-0.5c-0.1-0.1-0.1-0.2-0.2-0.4"/>
	<path class="st1" d="M29.2,31.4c0.2,0.5,0.6,0.9,1.1,1c0.8,0.2,1.2,1.1,1,2"/>
	<path class="st1" d="M24.5,38.7c-1.2,0.6-2.4,1.4-3.6,2c-0.2,0.1-0.5,0.2-0.7,0.4"/>
	<path class="st1" d="M23.4,38.4c-0.9,0.5-1.9,1-2.8,1.5"/>
	<path class="st1" d="M29.1,30.1c0,0.3,0,0.6,0.1,0.9c0.1,0.4-0.3,0.8-0.8,0.8c-0.1,0-0.3-0.1-0.4-0.1"/>
	<path class="st1" d="M39,25.4c-1.1,0.6-2.2,1.2-3.4,1.9c-0.6,0.3-1.1,0.7-1.7,1"/>
	<path class="st1" d="M38.1,28c0.2,0.3,0.4,0.6,0.4,0.9c0,0.2-0.2,0.4-0.2,0.6"/>
	<path class="st1" d="M43.1,21.6c0.4,0.6,0.7,1.2,1,1.8c0.6,1.1,1.2,2.2,1.9,3.4c0,0,0.1,0,0.1,0.1"/>
	<path class="st1" d="M27.8,31.4c0.2,0.5,0,0.9-0.5,1c-0.1,0-0.2,0-0.3,0.1"/>
	<path class="st1" d="M35,26.5c0.2,0.2,0.3,0.5,0.4,0.7"/>
	<path class="st1" d="M36.9,25.5c0.1,0.2,0.3,0.5,0.4,0.7"/>
	<path class="st1" d="M20.2,36.1c0.1,0.2,0.2,0.3,0.3,0.5"/>
	<path class="st1" d="M56.1,16.4c-0.2,0.1-0.3,0.3-0.4,0.5c-0.2-0.1-0.3-0.1-0.5,0c-0.4,0.3-0.4,0.7,0.1,1c0.3,0.2,0.5,0.2,0.8,0.3
		c0.2,0,0.4,0,0.5-0.3c0.1-0.3,0.2-0.6,0.2-0.9C56.9,16.6,56.7,16.4,56.1,16.4"/>
</g>
<g class="st0">
	<path class="st1" d="M111.2-10.9c0-0.2-0.2-0.4-0.3-0.6c-0.1-0.2-0.2-0.4-0.1-0.6c0.3-1.1-0.2-2.2-1.4-2.6c-1.5-0.4-3,0.9-2.7,2.6
		c0.2,0.8,0.8,1.4,1.6,1.5c0.6,0.1,1.2,0,1.7-0.4c0.1-0.1,0.1-0.1,0.3-0.1c0.4,0.1,0.7,0.2,1.1,0.2"/>
	<path class="st1" d="M66.6,11.6c0.5,0.7,1,1.4,1.5,2.2c0.2,0,0.2-0.1,0.4-0.2c-0.4-0.9-0.8-1.9-1.2-2.8c-0.1-0.3-0.2-0.5-0.3-0.8
		c-0.2-0.5-0.7-0.8-1.3-0.9c-0.2,0-0.5-0.1-0.7-0.1c-0.1,0.1,0,0.2,0,0.4c0,1.4-0.1,2.7-0.1,4.1c0,0.7-0.7,1.2-1.3,0.9"/>
	<path class="st1" d="M67.1,10.6c-0.5,0.7-0.8,1.6-0.8,2.5c0,0.3,0,0.5,0,0.8c0.1,0.7-0.3,1.1-0.8,1.4c-0.7,0.3-1.3,0.7-2,1.1
		c-0.2,0.1-0.4,0.2-0.6,0.1c-0.3-0.2-0.4-0.5-0.2-0.8c0.2-0.4,0.5-0.7,0.8-1.1c0.1-0.1,0.1-0.2,0.1-0.3"/>
	<path class="st1" d="M103.2-7.4c-0.2-0.5-0.5-1-0.7-1.4c-0.3-0.6-0.6-1.1-0.9-1.6c-0.1-0.3-0.3-0.3-0.6-0.3c-0.5,0.1-1,0.4-1.2,0.9
		c-0.4,0.7-1,1.1-1.9,1c-0.5,0-0.9,0.2-1.3,0.5c-0.1,0.1-0.2,0.2-0.3,0.3"/>
	<path class="st1" d="M82.7,5.2c0.1-0.4,0.3-0.8,0.4-1.1c0.1-0.3-0.1-0.6-0.3-0.8c-0.2-0.1-0.5,0-0.8,0.3c-0.1,0.1-0.1,0.2-0.3,0.2
		c-0.4,0-0.6,0.2-0.6,0.5c0,0.2,0.1,0.6,0.4,0.7C81.8,5,82.2,5.2,82.7,5.2"/>
	<path class="st1" d="M102.7-8.2c-0.5,0.1-1,0.2-1.4,0.7c-0.1,0.2-0.2,0.3-0.4,0.5c-0.4,0.6-1,0.8-1.7,0.8c-0.5,0-0.9,0.1-1.3,0.5
		c-0.1,0.1-0.3,0.3-0.4,0.4"/>
	<path class="st1" d="M102.2-9.1c-0.4,0.1-0.7,0.2-1.1,0.4c-0.2,0.2-0.4,0.3-0.5,0.6c-0.4,0.7-1,1-1.9,1c-0.7,0-1.2,0.3-1.6,0.9"/>
	<path class="st1" d="M103.4-7.3c-0.5-0.1-0.9,0.1-1.3,0.4c-0.2,0.2-0.4,0.4-0.6,0.6c-0.4,0.6-1,0.9-1.7,0.9c-0.4,0-0.9,0.1-1.2,0.4
		c-0.2,0.1-0.3,0.3-0.4,0.4"/>
	<path class="st1" d="M101.7-10c-0.8,0.1-1.3,0.5-1.7,1.2C99.6-8.2,99-8,98.3-8c-0.6,0-1.1,0.2-1.5,0.7c0,0.1-0.1,0.1-0.1,0.1"/>
	<path class="st1" d="M73,6.1c0.3-0.2,0.5-0.5,0.4-0.9c-0.1-0.5-0.5-0.7-0.9-0.8c-0.5-0.2-0.5-0.1-0.6,0.4c-0.1,0.7,0,1.1,0.4,1.3
		C72.5,6.2,72.7,6.1,73,6.1"/>
	<path class="st1" d="M76.5,9.1c-0.5-0.9-0.9-1.8-1.4-2.6C75,6.3,75,6.1,74.8,6c-0.9,0.5-1.9,1.1-2.9,1.6c0.6,1,1.1,2.1,1.7,3.1"/>
	<path class="st1" d="M78.8,1.8c0.2,0.3,0.5,0.4,0.8,0.6c0.6,0.5,0.7,1.1,0.6,1.8c-0.1,0.7,0.1,1.2,0.6,1.6c0.2,0.1,0.4,0.3,0.6,0.3
		"/>
	<path class="st1" d="M90.5-0.1c0,0.3,0.1,0.5,0.1,0.8c0,0.1,0,0.2-0.1,0.2c-0.6,0.3-1.1,0.6-1.7,0.9c-1.1-1.4-1.9-2.9-2.5-4.5
		c1.6-0.9,3.2-1.8,4.9-2.7c1.1,1.3,1.9,2.8,2.5,4.5c-0.5,0.4-1.2,0.6-1.7,1c0,0-0.1,0.1-0.2,0C91.7,0,91.6,0,91.6-0.1
		c-0.3-0.3-0.6-0.4-1-0.2c-0.4,0.2-0.8,0-1-0.5c-0.1-0.1-0.1-0.2-0.2-0.4"/>
	<path class="st1" d="M82,1.5c0.2,0.5,0.6,0.9,1.1,1c0.8,0.2,1.2,1.1,1,2"/>
	<path class="st1" d="M77.3,8.7c-1.2,0.6-2.4,1.4-3.6,2c-0.2,0.1-0.5,0.2-0.7,0.4"/>
	<path class="st1" d="M76.1,8.4c-0.9,0.5-1.9,1-2.8,1.5"/>
	<path class="st1" d="M81.9,0.1c0,0.3,0,0.6,0.1,0.9c0.1,0.4-0.3,0.8-0.8,0.8c-0.1,0-0.3-0.1-0.4-0.1"/>
	<path class="st1" d="M91.8-4.6c-1.1,0.6-2.2,1.2-3.4,1.9c-0.6,0.3-1.1,0.7-1.7,1"/>
	<path class="st1" d="M90.9-2c0.2,0.3,0.4,0.6,0.4,0.9c0,0.2-0.2,0.4-0.2,0.6"/>
	<path class="st1" d="M95.9-8.4c0.4,0.6,0.7,1.2,1,1.8c0.6,1.1,1.2,2.2,1.9,3.4c0,0,0.1,0,0.1,0.1"/>
	<path class="st1" d="M80.6,1.5c0.2,0.5,0,0.9-0.5,1c-0.1,0-0.2,0-0.3,0.1"/>
	<path class="st1" d="M87.8-3.5C88-3.2,88.1-3,88.3-2.7"/>
	<path class="st1" d="M89.7-4.5C89.9-4.3,90-4,90.2-3.8"/>
	<path class="st1" d="M73,6.1c0.1,0.2,0.2,0.3,0.3,0.5"/>
	<path class="st1" d="M108.9-13.6c-0.2,0.1-0.3,0.3-0.4,0.5c-0.2-0.1-0.3-0.1-0.5,0c-0.4,0.3-0.4,0.7,0.1,1c0.3,0.2,0.5,0.2,0.8,0.3
		c0.2,0,0.4,0,0.5-0.3c0.1-0.3,0.2-0.6,0.2-0.9C109.6-13.4,109.5-13.6,108.9-13.6"/>
</g>
<g class="st0">
	<path class="st1" d="M15.3-2.3c0-0.2-0.2-0.4-0.3-0.6c-0.1-0.2-0.2-0.4-0.1-0.6c0.3-1.1-0.2-2.2-1.4-2.6c-1.5-0.4-3,0.9-2.7,2.6
		c0.2,0.8,0.8,1.4,1.6,1.5c0.6,0.1,1.2,0,1.7-0.4c0.1-0.1,0.1-0.1,0.3-0.1c0.4,0.1,0.7,0.2,1.1,0.2"/>
	<path class="st1" d="M-29.3,20.1c0.5,0.7,1,1.4,1.5,2.2c0.2,0,0.2-0.1,0.4-0.2c-0.4-0.9-0.8-1.9-1.2-2.8c-0.1-0.3-0.2-0.5-0.3-0.8
		c-0.2-0.5-0.7-0.8-1.3-0.9c-0.2,0-0.5-0.1-0.7-0.1c-0.1,0.1,0,0.2,0,0.4c0,1.4-0.1,2.7-0.1,4.1c0,0.7-0.7,1.2-1.3,0.9"/>
	<path class="st1" d="M-28.9,19.1c-0.5,0.7-0.8,1.6-0.8,2.5c0,0.3,0,0.5,0,0.8c0.1,0.7-0.3,1.1-0.8,1.4c-0.7,0.3-1.3,0.7-2,1.1
		c-0.2,0.1-0.4,0.2-0.6,0.1c-0.3-0.2-0.4-0.5-0.2-0.8c0.2-0.4,0.5-0.7,0.8-1.1c0.1-0.1,0.1-0.2,0.1-0.3"/>
	<path class="st1" d="M7.2,1.2C7,0.6,6.7,0.2,6.5-0.3C6.2-0.8,5.8-1.4,5.6-1.9C5.4-2.2,5.2-2.3,4.9-2.2C4.4-2,4-1.8,3.7-1.3
		c-0.4,0.7-1,1.1-1.9,1c-0.5,0-0.9,0.2-1.3,0.5C0.4,0.3,0.3,0.4,0.2,0.5"/>
	<path class="st1" d="M-13.3,13.7c0.1-0.4,0.3-0.8,0.4-1.1c0.1-0.3-0.1-0.6-0.3-0.8c-0.2-0.1-0.5,0-0.8,0.3
		c-0.1,0.1-0.1,0.2-0.3,0.2c-0.4,0-0.6,0.2-0.6,0.5c0,0.2,0.1,0.6,0.4,0.7C-14.1,13.5-13.8,13.7-13.3,13.7"/>
	<path class="st1" d="M6.7,0.3C6.2,0.4,5.7,0.6,5.3,1C5.2,1.1,5.1,1.3,5,1.5C4.6,2.1,4,2.3,3.3,2.3C2.8,2.3,2.4,2.4,2,2.7
		C1.9,2.9,1.8,3,1.6,3.1"/>
	<path class="st1" d="M6.2-0.6C5.9-0.5,5.5-0.4,5.2-0.2C4.9,0,4.8,0.2,4.6,0.4c-0.4,0.7-1,1-1.9,1c-0.7,0-1.2,0.3-1.6,0.9"/>
	<path class="st1" d="M7.4,1.3C6.9,1.1,6.5,1.4,6.1,1.6C5.9,1.8,5.7,2,5.5,2.3c-0.4,0.6-1,0.9-1.7,0.9c-0.4,0-0.9,0.1-1.2,0.4
		C2.4,3.7,2.3,3.9,2.1,4"/>
	<path class="st1" d="M5.7-1.4C5-1.3,4.4-1,4-0.3c-0.4,0.6-1,0.9-1.7,0.8c-0.6,0-1.1,0.2-1.5,0.7c0,0.1-0.1,0.1-0.1,0.1"/>
	<path class="st1" d="M-23,14.6c0.3-0.2,0.5-0.5,0.4-0.9c-0.1-0.5-0.5-0.7-0.9-0.8c-0.5-0.2-0.5-0.1-0.6,0.4c-0.1,0.7,0,1.1,0.4,1.3
		C-23.5,14.7-23.2,14.6-23,14.6"/>
	<path class="st1" d="M-19.4,17.6c-0.5-0.9-0.9-1.8-1.4-2.6c-0.1-0.2-0.1-0.4-0.3-0.5c-0.9,0.5-1.9,1.1-2.9,1.6
		c0.6,1,1.1,2.1,1.7,3.1"/>
	<path class="st1" d="M-17.2,10.3c0.2,0.3,0.5,0.4,0.8,0.6c0.6,0.5,0.7,1.1,0.6,1.8c-0.1,0.7,0.1,1.2,0.6,1.6
		c0.2,0.1,0.4,0.3,0.6,0.3"/>
	<path class="st1" d="M-5.4,8.4c0,0.3,0.1,0.5,0.1,0.8c0,0.1,0,0.2-0.1,0.2C-6,9.7-6.6,10-7.2,10.4C-8.3,9-9.1,7.5-9.7,5.9
		C-8.1,5-6.4,4.1-4.8,3.1c1.1,1.3,1.9,2.8,2.5,4.5C-2.8,8-3.4,8.2-4,8.6c0,0-0.1,0.1-0.2,0c-0.1-0.1-0.2-0.1-0.2-0.2
		c-0.3-0.3-0.6-0.4-1-0.2c-0.4,0.2-0.8,0-1-0.5c-0.1-0.1-0.1-0.2-0.2-0.4"/>
	<path class="st1" d="M-13.9,10c0.2,0.5,0.6,0.9,1.1,1c0.8,0.2,1.2,1.1,1,2"/>
	<path class="st1" d="M-18.7,17.3c-1.2,0.6-2.4,1.4-3.6,2c-0.2,0.1-0.5,0.2-0.7,0.4"/>
	<path class="st1" d="M-19.8,17c-0.9,0.5-1.9,1-2.8,1.5"/>
	<path class="st1" d="M-14.1,8.7c0,0.3,0,0.6,0.1,0.9c0.1,0.4-0.3,0.8-0.8,0.8c-0.1,0-0.3-0.1-0.4-0.1"/>
	<path class="st1" d="M-4.2,3.9c-1.1,0.6-2.2,1.2-3.4,1.9c-0.6,0.3-1.1,0.7-1.7,1"/>
	<path class="st1" d="M-5,6.6c0.2,0.3,0.4,0.6,0.4,0.9c0,0.2-0.2,0.4-0.2,0.6"/>
	<path class="st1" d="M-0.1,0.2c0.4,0.6,0.7,1.2,1,1.8C1.5,3,2.1,4.1,2.8,5.3c0,0,0.1,0,0.1,0.1"/>
	<path class="st1" d="M-15.4,10c0.2,0.5,0,0.9-0.5,1c-0.1,0-0.2,0-0.3,0.1"/>
	<path class="st1" d="M-8.1,5.1C-8,5.3-7.8,5.5-7.7,5.8"/>
	<path class="st1" d="M-6.2,4C-6.1,4.3-6,4.5-5.8,4.8"/>
	<path class="st1" d="M-23,14.7c0.1,0.2,0.2,0.3,0.3,0.5"/>
	<path class="st1" d="M12.9-5c-0.2,0.1-0.3,0.3-0.4,0.5c-0.2-0.1-0.3-0.1-0.5,0c-0.4,0.3-0.4,0.7,0.1,1c0.3,0.2,0.5,0.2,0.8,0.3
		c0.2,0,0.4,0,0.5-0.3c0.1-0.3,0.2-0.6,0.2-0.9C13.7-4.9,13.5-5,12.9-5"/>
</g>
<g class="st0">
	<path class="st1" d="M80.5,42.8c0-0.2-0.2-0.4-0.3-0.6c-0.1-0.2-0.2-0.4-0.1-0.6c0.3-1.1-0.2-2.2-1.4-2.6c-1.5-0.4-3,0.9-2.7,2.6
		c0.2,0.8,0.8,1.4,1.6,1.5c0.6,0.1,1.2,0,1.7-0.4c0.1-0.1,0.1-0.1,0.3-0.1c0.4,0.1,0.7,0.2,1.1,0.2"/>
	<path class="st1" d="M35.9,65.3c0.5,0.7,1,1.4,1.5,2.2c0.2,0,0.2-0.1,0.4-0.2c-0.4-0.9-0.8-1.9-1.2-2.8c-0.1-0.3-0.2-0.5-0.3-0.8
		c-0.2-0.5-0.7-0.8-1.3-0.9c-0.2,0-0.5-0.1-0.7-0.1c-0.1,0.1,0,0.2,0,0.4c0,1.4-0.1,2.7-0.1,4.1c0,0.7-0.7,1.2-1.3,0.9"/>
	<path class="st1" d="M36.4,64.3c-0.5,0.7-0.8,1.6-0.8,2.5c0,0.3,0,0.5,0,0.8c0.1,0.7-0.3,1.1-0.8,1.4c-0.7,0.3-1.3,0.7-2,1.1
		c-0.2,0.1-0.4,0.2-0.6,0.1c-0.3-0.2-0.4-0.5-0.2-0.8c0.2-0.4,0.5-0.7,0.8-1.1c0.1-0.1,0.1-0.2,0.1-0.3"/>
	<path class="st1" d="M72.4,46.3c-0.2-0.5-0.5-1-0.7-1.4c-0.3-0.6-0.6-1.1-0.9-1.6c-0.1-0.3-0.3-0.3-0.6-0.3c-0.5,0.1-1,0.4-1.2,0.9
		c-0.4,0.7-1,1.1-1.9,1c-0.5,0-0.9,0.2-1.3,0.5c-0.1,0.1-0.2,0.2-0.3,0.3"/>
	<path class="st1" d="M51.9,58.9c0.1-0.4,0.3-0.8,0.4-1.1c0.1-0.3-0.1-0.6-0.3-0.8c-0.2-0.1-0.5,0-0.8,0.3c-0.1,0.1-0.1,0.2-0.3,0.2
		c-0.4,0-0.6,0.2-0.6,0.5c0,0.2,0.1,0.6,0.4,0.7C51.1,58.7,51.5,58.9,51.9,58.9"/>
	<path class="st1" d="M72,45.5c-0.5,0.1-1,0.2-1.4,0.7c-0.1,0.2-0.2,0.3-0.4,0.5c-0.4,0.6-1,0.8-1.7,0.8c-0.5,0-0.9,0.1-1.3,0.5
		c-0.1,0.1-0.3,0.3-0.4,0.4"/>
	<path class="st1" d="M71.5,44.6c-0.4,0.1-0.7,0.2-1.1,0.4c-0.2,0.2-0.4,0.3-0.5,0.6c-0.4,0.7-1,1-1.9,1c-0.7,0-1.2,0.3-1.6,0.9"/>
	<path class="st1" d="M72.6,46.4c-0.5-0.1-0.9,0.1-1.3,0.4c-0.2,0.2-0.4,0.4-0.6,0.6c-0.4,0.6-1,0.9-1.7,0.9c-0.4,0-0.9,0.1-1.2,0.4
		c-0.2,0.1-0.3,0.3-0.4,0.4"/>
	<path class="st1" d="M71,43.7c-0.8,0.1-1.3,0.5-1.7,1.2c-0.4,0.6-1,0.9-1.7,0.8c-0.6,0-1.1,0.2-1.5,0.7c0,0.1-0.1,0.1-0.1,0.1"/>
	<path class="st1" d="M42.2,59.8c0.3-0.2,0.5-0.5,0.4-0.9c-0.1-0.5-0.5-0.7-0.9-0.8c-0.5-0.2-0.5-0.1-0.6,0.4
		c-0.1,0.7,0,1.1,0.4,1.3C41.8,59.9,42,59.8,42.2,59.8"/>
	<path class="st1" d="M45.8,62.8c-0.5-0.9-0.9-1.8-1.4-2.6c-0.1-0.2-0.1-0.4-0.3-0.5c-0.9,0.5-1.9,1.1-2.9,1.6
		c0.6,1,1.1,2.1,1.7,3.1"/>
	<path class="st1" d="M48,55.5c0.2,0.3,0.5,0.4,0.8,0.6c0.6,0.5,0.7,1.1,0.6,1.8c-0.1,0.7,0.1,1.2,0.6,1.6c0.2,0.1,0.4,0.3,0.6,0.3"
		/>
	<path class="st1" d="M59.8,53.6c0,0.3,0.1,0.5,0.1,0.8c0,0.1,0,0.2-0.1,0.2c-0.6,0.3-1.1,0.6-1.7,0.9c-1.1-1.4-1.9-2.9-2.5-4.5
		c1.6-0.9,3.2-1.8,4.9-2.7c1.1,1.3,1.9,2.8,2.5,4.5c-0.5,0.4-1.2,0.6-1.7,1c0,0-0.1,0.1-0.2,0c-0.1-0.1-0.2-0.1-0.2-0.2
		c-0.3-0.3-0.6-0.4-1-0.2c-0.4,0.2-0.8,0-1-0.5c-0.1-0.1-0.1-0.2-0.2-0.4"/>
	<path class="st1" d="M51.3,55.2c0.2,0.5,0.6,0.9,1.1,1c0.8,0.2,1.2,1.1,1,2"/>
	<path class="st1" d="M46.5,62.4c-1.2,0.6-2.4,1.4-3.6,2c-0.2,0.1-0.5,0.2-0.7,0.4"/>
	<path class="st1" d="M45.4,62.1c-0.9,0.5-1.9,1-2.8,1.5"/>
	<path class="st1" d="M51.1,53.8c0,0.3,0,0.6,0.1,0.9c0.1,0.4-0.3,0.8-0.8,0.8c-0.1,0-0.3-0.1-0.4-0.1"/>
	<path class="st1" d="M61,49.1c-1.1,0.6-2.2,1.2-3.4,1.9c-0.6,0.3-1.1,0.7-1.7,1"/>
	<path class="st1" d="M60.2,51.7c0.2,0.3,0.4,0.6,0.4,0.9c0,0.2-0.2,0.4-0.2,0.6"/>
	<path class="st1" d="M65.2,45.3c0.4,0.6,0.7,1.2,1,1.8c0.6,1.1,1.2,2.2,1.9,3.4c0,0,0.1,0,0.1,0.1"/>
	<path class="st1" d="M49.8,55.2c0.2,0.5,0,0.9-0.5,1c-0.1,0-0.2,0-0.3,0.1"/>
	<path class="st1" d="M57.1,50.2c0.2,0.2,0.3,0.5,0.4,0.7"/>
	<path class="st1" d="M59,49.2c0.1,0.2,0.3,0.5,0.4,0.7"/>
	<path class="st1" d="M42.3,59.8c0.1,0.2,0.2,0.3,0.3,0.5"/>
	<path class="st1" d="M78.2,40.1c-0.2,0.1-0.3,0.3-0.4,0.5c-0.2-0.1-0.3-0.1-0.5,0c-0.4,0.3-0.4,0.7,0.1,1c0.3,0.2,0.5,0.2,0.8,0.3
		c0.2,0,0.4,0,0.5-0.3c0.1-0.3,0.2-0.6,0.2-0.9C78.9,40.3,78.7,40.1,78.2,40.1"/>
</g>
<g class="st0">
	<path class="st1" d="M133.3,12.9c0-0.2-0.2-0.4-0.3-0.6c-0.1-0.2-0.2-0.4-0.1-0.6c0.3-1.1-0.2-2.2-1.4-2.6c-1.5-0.4-3,0.9-2.7,2.6
		c0.2,0.8,0.8,1.4,1.6,1.5c0.6,0.1,1.2,0,1.7-0.4c0.1-0.1,0.1-0.1,0.3-0.1c0.4,0.1,0.7,0.2,1.1,0.2"/>
	<path class="st1" d="M88.7,35.3c0.5,0.7,1,1.4,1.5,2.2c0.2,0,0.2-0.1,0.4-0.2c-0.4-0.9-0.8-1.9-1.2-2.8c-0.1-0.3-0.2-0.5-0.3-0.8
		c-0.2-0.5-0.7-0.8-1.3-0.9c-0.2,0-0.5-0.1-0.7-0.1c-0.1,0.1,0,0.2,0,0.4c0,1.4-0.1,2.7-0.1,4.1c0,0.7-0.7,1.2-1.3,0.9"/>
	<path class="st1" d="M89.2,34.3c-0.5,0.7-0.8,1.6-0.8,2.5c0,0.3,0,0.5,0,0.8c0.1,0.7-0.3,1.1-0.8,1.4c-0.7,0.3-1.3,0.7-2,1.1
		c-0.2,0.1-0.4,0.2-0.6,0.1c-0.3-0.2-0.4-0.5-0.2-0.8c0.2-0.4,0.5-0.7,0.8-1.1c0.1-0.1,0.1-0.2,0.1-0.3"/>
	<path class="st1" d="M125.2,16.3c-0.2-0.5-0.5-1-0.7-1.4c-0.3-0.6-0.6-1.1-0.9-1.6c-0.1-0.3-0.3-0.3-0.6-0.3
		c-0.5,0.1-1,0.4-1.2,0.9c-0.4,0.7-1,1.1-1.9,1c-0.5,0-0.9,0.2-1.3,0.5c-0.1,0.1-0.2,0.2-0.3,0.3"/>
	<path class="st1" d="M104.7,28.9c0.1-0.4,0.3-0.8,0.4-1.1c0.1-0.3-0.1-0.6-0.3-0.8c-0.2-0.1-0.5,0-0.8,0.3
		c-0.1,0.1-0.1,0.2-0.3,0.2c-0.4,0-0.6,0.2-0.6,0.5c0,0.2,0.1,0.6,0.4,0.7C103.9,28.7,104.3,28.9,104.7,28.9"/>
	<path class="st1" d="M124.7,15.5c-0.5,0.1-1,0.2-1.4,0.7c-0.1,0.2-0.2,0.3-0.4,0.5c-0.4,0.6-1,0.8-1.7,0.8c-0.5,0-0.9,0.1-1.3,0.5
		c-0.1,0.1-0.3,0.3-0.4,0.4"/>
	<path class="st1" d="M124.2,14.6c-0.4,0.1-0.7,0.2-1.1,0.4c-0.2,0.2-0.4,0.3-0.5,0.6c-0.4,0.7-1,1-1.9,1c-0.7,0-1.2,0.3-1.6,0.9"/>
	<path class="st1" d="M125.4,16.4c-0.5-0.1-0.9,0.1-1.3,0.4c-0.2,0.2-0.4,0.4-0.6,0.6c-0.4,0.6-1,0.9-1.7,0.9
		c-0.4,0-0.9,0.1-1.2,0.4c-0.2,0.1-0.3,0.3-0.4,0.4"/>
	<path class="st1" d="M123.7,13.7c-0.8,0.1-1.3,0.5-1.7,1.2c-0.4,0.6-1,0.9-1.7,0.8c-0.6,0-1.1,0.2-1.5,0.7c0,0.1-0.1,0.1-0.1,0.1"
		/>
	<path class="st1" d="M95,29.8c0.3-0.2,0.5-0.5,0.4-0.9c-0.1-0.5-0.5-0.7-0.9-0.8C94,27.9,94,28,93.9,28.5c-0.1,0.7,0,1.1,0.4,1.3
		C94.5,29.9,94.8,29.8,95,29.8"/>
	<path class="st1" d="M98.6,32.8c-0.5-0.9-0.9-1.8-1.4-2.6c-0.1-0.2-0.1-0.4-0.3-0.5c-0.9,0.5-1.9,1.1-2.9,1.6
		c0.6,1,1.1,2.1,1.7,3.1"/>
	<path class="st1" d="M100.8,25.5c0.2,0.3,0.5,0.4,0.8,0.6c0.6,0.5,0.7,1.1,0.6,1.8c-0.1,0.7,0.1,1.2,0.6,1.6
		c0.2,0.1,0.4,0.3,0.6,0.3"/>
	<path class="st1" d="M112.6,23.6c0,0.3,0.1,0.5,0.1,0.8c0,0.1,0,0.2-0.1,0.2c-0.6,0.3-1.1,0.6-1.7,0.9c-1.1-1.4-1.9-2.9-2.5-4.5
		c1.6-0.9,3.2-1.8,4.9-2.7c1.1,1.3,1.9,2.8,2.5,4.5c-0.5,0.4-1.2,0.6-1.7,1c0,0-0.1,0.1-0.2,0c-0.1-0.1-0.2-0.1-0.2-0.2
		c-0.3-0.3-0.6-0.4-1-0.2c-0.4,0.2-0.8,0-1-0.5c-0.1-0.1-0.1-0.2-0.2-0.4"/>
	<path class="st1" d="M104.1,25.2c0.2,0.5,0.6,0.9,1.1,1c0.8,0.2,1.2,1.1,1,2"/>
	<path class="st1" d="M99.3,32.4c-1.2,0.6-2.4,1.4-3.6,2c-0.2,0.1-0.5,0.2-0.7,0.4"/>
	<path class="st1" d="M98.2,32.1c-0.9,0.5-1.9,1-2.8,1.5"/>
	<path class="st1" d="M103.9,23.8c0,0.3,0,0.6,0.1,0.9c0.1,0.4-0.3,0.8-0.8,0.8c-0.1,0-0.3-0.1-0.4-0.1"/>
	<path class="st1" d="M113.8,19.1c-1.1,0.6-2.2,1.2-3.4,1.9c-0.6,0.3-1.1,0.7-1.7,1"/>
	<path class="st1" d="M113,21.8c0.2,0.3,0.4,0.6,0.4,0.9c0,0.2-0.2,0.4-0.2,0.6"/>
	<path class="st1" d="M117.9,15.3c0.4,0.6,0.7,1.2,1,1.8c0.6,1.1,1.2,2.2,1.9,3.4c0,0,0.1,0,0.1,0.1"/>
	<path class="st1" d="M102.6,25.2c0.2,0.5,0,0.9-0.5,1c-0.1,0-0.2,0-0.3,0.1"/>
	<path class="st1" d="M109.9,20.3c0.2,0.2,0.3,0.5,0.4,0.7"/>
	<path class="st1" d="M111.8,19.2c0.1,0.2,0.3,0.5,0.4,0.7"/>
	<path class="st1" d="M95.1,29.8c0.1,0.2,0.2,0.3,0.3,0.5"/>
	<path class="st1" d="M130.9,10.2c-0.2,0.1-0.3,0.3-0.4,0.5c-0.2-0.1-0.3-0.1-0.5,0c-0.4,0.3-0.4,0.7,0.1,1c0.3,0.2,0.5,0.2,0.8,0.3
		c0.2,0,0.4,0,0.5-0.3c0.1-0.3,0.2-0.6,0.2-0.9C131.7,10.3,131.5,10.2,130.9,10.2"/>
</g>
<g class="st0">
	<path class="st1" d="M104.1,40.5c0-0.2-0.2-0.4-0.3-0.6c-0.1-0.2-0.2-0.4-0.1-0.6c0.3-1.1-0.2-2.2-1.4-2.6c-1.5-0.4-3,0.9-2.7,2.6
		c0.2,0.8,0.8,1.4,1.6,1.5c0.6,0.1,1.2,0,1.7-0.4c0.1-0.1,0.1-0.1,0.3-0.1c0.4,0.1,0.7,0.2,1.1,0.2"/>
	<path class="st1" d="M59.5,63c0.5,0.7,1,1.4,1.5,2.2c0.2,0,0.2-0.1,0.4-0.2c-0.4-0.9-0.8-1.9-1.2-2.8c-0.1-0.3-0.2-0.5-0.3-0.8
		c-0.2-0.5-0.7-0.8-1.3-0.9c-0.2,0-0.5-0.1-0.7-0.1c-0.1,0.1,0,0.2,0,0.4c0,1.4-0.1,2.7-0.1,4.1c0,0.7-0.7,1.2-1.3,0.9"/>
	<path class="st1" d="M60,61.9c-0.5,0.7-0.8,1.6-0.8,2.5c0,0.3,0,0.5,0,0.8c0.1,0.7-0.3,1.1-0.8,1.4c-0.7,0.3-1.3,0.7-2,1.1
		c-0.2,0.1-0.4,0.2-0.6,0.1c-0.3-0.2-0.4-0.5-0.2-0.8c0.2-0.4,0.5-0.7,0.8-1.1c0.1-0.1,0.1-0.2,0.1-0.3"/>
	<path class="st1" d="M96,44c-0.2-0.5-0.5-1-0.7-1.4c-0.3-0.6-0.6-1.1-0.9-1.6c-0.1-0.3-0.3-0.3-0.6-0.3c-0.5,0.1-1,0.4-1.2,0.9
		c-0.4,0.7-1,1.1-1.9,1c-0.5,0-0.9,0.2-1.3,0.5c-0.1,0.1-0.2,0.2-0.3,0.3"/>
	<path class="st1" d="M75.5,56.5c0.1-0.4,0.3-0.8,0.4-1.1c0.1-0.3-0.1-0.6-0.3-0.8c-0.2-0.1-0.5,0-0.8,0.3c-0.1,0.1-0.1,0.2-0.3,0.2
		c-0.4,0-0.6,0.2-0.6,0.5c0,0.2,0.1,0.6,0.4,0.7C74.7,56.3,75.1,56.5,75.5,56.5"/>
	<path class="st1" d="M95.6,43.1c-0.5,0.1-1,0.2-1.4,0.7c-0.1,0.2-0.2,0.3-0.4,0.5c-0.4,0.6-1,0.8-1.7,0.8c-0.5,0-0.9,0.1-1.3,0.5
		c-0.1,0.1-0.3,0.3-0.4,0.4"/>
	<path class="st1" d="M95.1,42.2c-0.4,0.1-0.7,0.2-1.1,0.4c-0.2,0.2-0.4,0.3-0.5,0.6c-0.4,0.7-1,1-1.9,1c-0.7,0-1.2,0.3-1.6,0.9"/>
	<path class="st1" d="M96.2,44.1c-0.5-0.1-0.9,0.1-1.3,0.4c-0.2,0.2-0.4,0.4-0.6,0.6c-0.4,0.6-1,0.9-1.7,0.9c-0.4,0-0.9,0.1-1.2,0.4
		c-0.2,0.1-0.3,0.3-0.4,0.4"/>
	<path class="st1" d="M94.6,41.4c-0.8,0.1-1.3,0.5-1.7,1.2c-0.4,0.6-1,0.9-1.7,0.8c-0.6,0-1.1,0.2-1.5,0.7c0,0.1-0.1,0.1-0.1,0.1"/>
	<path class="st1" d="M65.8,57.4c0.3-0.2,0.5-0.5,0.4-0.9c-0.1-0.5-0.5-0.7-0.9-0.8c-0.5-0.2-0.5-0.1-0.6,0.4
		c-0.1,0.7,0,1.1,0.4,1.3C65.4,57.6,65.6,57.5,65.8,57.4"/>
	<path class="st1" d="M69.4,60.4c-0.5-0.9-0.9-1.8-1.4-2.6c-0.1-0.2-0.1-0.4-0.3-0.5c-0.9,0.5-1.9,1.1-2.9,1.6
		c0.6,1,1.1,2.1,1.7,3.1"/>
	<path class="st1" d="M71.6,53.2c0.2,0.3,0.5,0.4,0.8,0.6c0.6,0.5,0.7,1.1,0.6,1.8c-0.1,0.7,0.1,1.2,0.6,1.6
		c0.2,0.1,0.4,0.3,0.6,0.3"/>
	<path class="st1" d="M83.4,51.2c0,0.3,0.1,0.5,0.1,0.8c0,0.1,0,0.2-0.1,0.2c-0.6,0.3-1.1,0.6-1.7,0.9c-1.1-1.4-1.9-2.9-2.5-4.5
		c1.6-0.9,3.2-1.8,4.9-2.7c1.1,1.3,1.9,2.8,2.5,4.5c-0.5,0.4-1.2,0.6-1.7,1c0,0-0.1,0.1-0.2,0c-0.1-0.1-0.2-0.1-0.2-0.2
		c-0.3-0.3-0.6-0.4-1-0.2c-0.4,0.2-0.8,0-1-0.5c-0.1-0.1-0.1-0.2-0.2-0.4"/>
	<path class="st1" d="M74.9,52.8c0.2,0.5,0.6,0.9,1.1,1c0.8,0.2,1.2,1.1,1,2"/>
	<path class="st1" d="M70.1,60.1c-1.2,0.6-2.4,1.4-3.6,2c-0.2,0.1-0.5,0.2-0.7,0.4"/>
	<path class="st1" d="M69,59.8c-0.9,0.5-1.9,1-2.8,1.5"/>
	<path class="st1" d="M74.7,51.5c0,0.3,0,0.6,0.1,0.9c0.1,0.4-0.3,0.8-0.8,0.8c-0.1,0-0.3-0.1-0.4-0.1"/>
	<path class="st1" d="M84.6,46.7c-1.1,0.6-2.2,1.2-3.4,1.9c-0.6,0.3-1.1,0.7-1.7,1"/>
	<path class="st1" d="M83.8,49.4c0.2,0.3,0.4,0.6,0.4,0.9c0,0.2-0.2,0.4-0.2,0.6"/>
	<path class="st1" d="M88.7,43c0.4,0.6,0.7,1.2,1,1.8c0.6,1.1,1.2,2.2,1.9,3.4c0,0,0.1,0,0.1,0.1"/>
	<path class="st1" d="M73.4,52.8c0.2,0.5,0,0.9-0.5,1c-0.1,0-0.2,0-0.3,0.1"/>
	<path class="st1" d="M80.7,47.9c0.2,0.2,0.3,0.5,0.4,0.7"/>
	<path class="st1" d="M82.6,46.8c0.1,0.2,0.3,0.5,0.4,0.7"/>
	<path class="st1" d="M65.9,57.5c0.1,0.2,0.2,0.3,0.3,0.5"/>
	<path class="st1" d="M101.8,37.8c-0.2,0.1-0.3,0.3-0.4,0.5c-0.2-0.1-0.3-0.1-0.5,0c-0.4,0.3-0.4,0.7,0.1,1c0.3,0.2,0.5,0.2,0.8,0.3
		c0.2,0,0.4,0,0.5-0.3c0.1-0.3,0.2-0.6,0.2-0.9C102.5,38,102.3,37.8,101.8,37.8"/>
</g>
<g class="st0">
	<path class="st1" d="M56.8,45.1c0-0.2-0.2-0.4-0.3-0.6c-0.1-0.2-0.2-0.4-0.1-0.6c0.3-1.1-0.2-2.2-1.4-2.6c-1.5-0.4-3,0.9-2.7,2.6
		c0.2,0.8,0.8,1.4,1.6,1.5c0.6,0.1,1.2,0,1.7-0.4c0.1-0.1,0.1-0.1,0.3-0.1c0.4,0.1,0.7,0.2,1.1,0.2"/>
	<path class="st1" d="M12.2,67.5c0.5,0.7,1,1.4,1.5,2.2c0.2,0,0.2-0.1,0.4-0.2c-0.4-0.9-0.8-1.9-1.2-2.8c-0.1-0.3-0.2-0.5-0.3-0.8
		c-0.2-0.5-0.7-0.8-1.3-0.9c-0.2,0-0.5-0.1-0.7-0.1c-0.1,0.1,0,0.2,0,0.4c0,1.4-0.1,2.7-0.1,4.1c0,0.7-0.7,1.2-1.3,0.9"/>
	<path class="st1" d="M12.6,66.5c-0.5,0.7-0.8,1.6-0.8,2.5c0,0.3,0,0.5,0,0.8c0.1,0.7-0.3,1.1-0.8,1.4c-0.7,0.3-1.3,0.7-2,1.1
		c-0.2,0.1-0.4,0.2-0.6,0.1c-0.3-0.2-0.4-0.5-0.2-0.8c0.2-0.4,0.5-0.7,0.8-1.1c0.1-0.1,0.1-0.2,0.1-0.3"/>
	<path class="st1" d="M48.7,48.6c-0.2-0.5-0.5-1-0.7-1.4c-0.3-0.6-0.6-1.1-0.9-1.6c-0.1-0.3-0.3-0.3-0.6-0.3c-0.5,0.1-1,0.4-1.2,0.9
		c-0.4,0.7-1,1.1-1.9,1c-0.5,0-0.9,0.2-1.3,0.5c-0.1,0.1-0.2,0.2-0.3,0.3"/>
	<path class="st1" d="M28.2,61.1c0.1-0.4,0.3-0.8,0.4-1.1c0.1-0.3-0.1-0.6-0.3-0.8c-0.2-0.1-0.5,0-0.8,0.3c-0.1,0.1-0.1,0.2-0.3,0.2
		c-0.4,0-0.6,0.2-0.6,0.5c0,0.2,0.1,0.6,0.4,0.7C27.3,60.9,27.7,61.1,28.2,61.1"/>
	<path class="st1" d="M48.2,47.7c-0.5,0.1-1,0.2-1.4,0.7c-0.1,0.2-0.2,0.3-0.4,0.5c-0.4,0.6-1,0.8-1.7,0.8c-0.5,0-0.9,0.1-1.3,0.5
		c-0.1,0.1-0.3,0.3-0.4,0.4"/>
	<path class="st1" d="M47.7,46.8c-0.4,0.1-0.7,0.2-1.1,0.4c-0.2,0.2-0.4,0.3-0.5,0.6c-0.4,0.7-1,1-1.9,1c-0.7,0-1.2,0.3-1.6,0.9"/>
	<path class="st1" d="M48.9,48.7c-0.5-0.1-0.9,0.1-1.3,0.4c-0.2,0.2-0.4,0.4-0.6,0.6c-0.4,0.6-1,0.9-1.7,0.9c-0.4,0-0.9,0.1-1.2,0.4
		c-0.2,0.1-0.3,0.3-0.4,0.4"/>
	<path class="st1" d="M47.2,46c-0.8,0.1-1.3,0.5-1.7,1.2c-0.4,0.6-1,0.9-1.7,0.8c-0.6,0-1.1,0.2-1.5,0.7c0,0.1-0.1,0.1-0.1,0.1"/>
	<path class="st1" d="M18.5,62c0.3-0.2,0.5-0.5,0.4-0.9c-0.1-0.5-0.5-0.7-0.9-0.8c-0.5-0.2-0.5-0.1-0.6,0.4c-0.1,0.7,0,1.1,0.4,1.3
		C18,62.1,18.3,62,18.5,62"/>
	<path class="st1" d="M22.1,65c-0.5-0.9-0.9-1.8-1.4-2.6c-0.1-0.2-0.1-0.4-0.3-0.5c-0.9,0.5-1.9,1.1-2.9,1.6c0.6,1,1.1,2.1,1.7,3.1"
		/>
	<path class="st1" d="M24.3,57.7c0.2,0.3,0.5,0.4,0.8,0.6c0.6,0.5,0.7,1.1,0.6,1.8c-0.1,0.7,0.1,1.2,0.6,1.6
		c0.2,0.1,0.4,0.3,0.6,0.3"/>
	<path class="st1" d="M36,55.8c0,0.3,0.1,0.5,0.1,0.8c0,0.1,0,0.2-0.1,0.2c-0.6,0.3-1.1,0.6-1.7,0.9c-1.1-1.4-1.9-2.9-2.5-4.5
		c1.6-0.9,3.2-1.8,4.9-2.7c1.1,1.3,1.9,2.8,2.5,4.5c-0.5,0.4-1.2,0.6-1.7,1c0,0-0.1,0.1-0.2,0c-0.1-0.1-0.2-0.1-0.2-0.2
		c-0.3-0.3-0.6-0.4-1-0.2c-0.4,0.2-0.8,0-1-0.5c-0.1-0.1-0.1-0.2-0.2-0.4"/>
	<path class="st1" d="M27.5,57.4c0.2,0.5,0.6,0.9,1.1,1c0.8,0.2,1.2,1.1,1,2"/>
	<path class="st1" d="M22.8,64.7c-1.2,0.6-2.4,1.4-3.6,2c-0.2,0.1-0.5,0.2-0.7,0.4"/>
	<path class="st1" d="M21.7,64.4c-0.9,0.5-1.9,1-2.8,1.5"/>
	<path class="st1" d="M27.4,56.1c0,0.3,0,0.6,0.1,0.9c0.1,0.4-0.3,0.8-0.8,0.8c-0.1,0-0.3-0.1-0.4-0.1"/>
	<path class="st1" d="M37.3,51.3c-1.1,0.6-2.2,1.2-3.4,1.9c-0.6,0.3-1.1,0.7-1.7,1"/>
	<path class="st1" d="M36.4,54c0.2,0.3,0.4,0.6,0.4,0.9c0,0.2-0.2,0.4-0.2,0.6"/>
	<path class="st1" d="M41.4,47.6c0.4,0.6,0.7,1.2,1,1.8c0.6,1.1,1.2,2.2,1.9,3.4c0,0,0.1,0,0.1,0.1"/>
	<path class="st1" d="M26.1,57.4c0.2,0.5,0,0.9-0.5,1c-0.1,0-0.2,0-0.3,0.1"/>
	<path class="st1" d="M33.3,52.5c0.2,0.2,0.3,0.5,0.4,0.7"/>
	<path class="st1" d="M35.2,51.4c0.1,0.2,0.3,0.5,0.4,0.7"/>
	<path class="st1" d="M18.5,62.1c0.1,0.2,0.2,0.3,0.3,0.5"/>
	<path class="st1" d="M54.4,42.4c-0.2,0.1-0.3,0.3-0.4,0.5c-0.2-0.1-0.3-0.1-0.5,0c-0.4,0.3-0.4,0.7,0.1,1c0.3,0.2,0.5,0.2,0.8,0.3
		c0.2,0,0.4,0,0.5-0.3c0.1-0.3,0.2-0.6,0.2-0.9C55.2,42.5,55,42.4,54.4,42.4"/>
</g>
<g class="st0">
	<path class="st1" d="M109.5,14.3c0-0.2-0.2-0.4-0.3-0.6c-0.1-0.2-0.2-0.4-0.1-0.6c0.3-1.1-0.2-2.2-1.4-2.6c-1.5-0.4-3,0.9-2.7,2.6
		c0.2,0.8,0.8,1.4,1.6,1.5c0.6,0.1,1.2,0,1.7-0.4c0.1-0.1,0.1-0.1,0.3-0.1c0.4,0.1,0.7,0.2,1.1,0.2"/>
	<path class="st1" d="M64.9,36.8c0.5,0.7,1,1.4,1.5,2.2c0.2,0,0.2-0.1,0.4-0.2c-0.4-0.9-0.8-1.9-1.2-2.8c-0.1-0.3-0.2-0.5-0.3-0.8
		c-0.2-0.5-0.7-0.8-1.3-0.9c-0.2,0-0.5-0.1-0.7-0.1c-0.1,0.1,0,0.2,0,0.4c0,1.4-0.1,2.7-0.1,4.1c0,0.7-0.7,1.2-1.3,0.9"/>
	<path class="st1" d="M65.4,35.8c-0.5,0.7-0.8,1.6-0.8,2.5c0,0.3,0,0.5,0,0.8c0.1,0.7-0.3,1.1-0.8,1.4c-0.7,0.3-1.3,0.7-2,1.1
		c-0.2,0.1-0.4,0.2-0.6,0.1c-0.3-0.2-0.4-0.5-0.2-0.8c0.2-0.4,0.5-0.7,0.8-1.1c0.1-0.1,0.1-0.2,0.1-0.3"/>
	<path class="st1" d="M101.5,17.8c-0.2-0.5-0.5-1-0.7-1.4c-0.3-0.6-0.6-1.1-0.9-1.6c-0.1-0.3-0.3-0.3-0.6-0.3
		c-0.5,0.1-1,0.4-1.2,0.9c-0.4,0.7-1,1.1-1.9,1c-0.5,0-0.9,0.2-1.3,0.5c-0.1,0.1-0.2,0.2-0.3,0.3"/>
	<path class="st1" d="M81,30.4c0.1-0.4,0.3-0.8,0.4-1.1c0.1-0.3-0.1-0.6-0.3-0.8c-0.2-0.1-0.5,0-0.8,0.3c-0.1,0.1-0.1,0.2-0.3,0.2
		c-0.4,0-0.6,0.2-0.6,0.5c0,0.2,0.1,0.6,0.4,0.7C80.1,30.1,80.5,30.3,81,30.4"/>
	<path class="st1" d="M101,16.9c-0.5,0.1-1,0.2-1.4,0.7c-0.1,0.2-0.2,0.3-0.4,0.5c-0.4,0.6-1,0.8-1.7,0.8c-0.5,0-0.9,0.1-1.3,0.5
		c-0.1,0.1-0.3,0.3-0.4,0.4"/>
	<path class="st1" d="M100.5,16.1c-0.4,0.1-0.7,0.2-1.1,0.4c-0.2,0.2-0.4,0.3-0.5,0.6c-0.4,0.7-1,1-1.9,1c-0.7,0-1.2,0.3-1.6,0.9"/>
	<path class="st1" d="M101.7,17.9c-0.5-0.1-0.9,0.1-1.3,0.4c-0.2,0.2-0.4,0.4-0.6,0.6c-0.4,0.6-1,0.9-1.7,0.9
		c-0.4,0-0.9,0.1-1.2,0.4c-0.2,0.1-0.3,0.3-0.4,0.4"/>
	<path class="st1" d="M100,15.2c-0.8,0.1-1.3,0.5-1.7,1.2c-0.4,0.6-1,0.9-1.7,0.8c-0.6,0-1.1,0.2-1.5,0.7c0,0.1-0.1,0.1-0.1,0.1"/>
	<path class="st1" d="M71.3,31.2c0.3-0.2,0.5-0.5,0.4-0.9c-0.1-0.5-0.5-0.7-0.9-0.8c-0.5-0.2-0.5-0.1-0.6,0.4
		c-0.1,0.7,0,1.1,0.4,1.3C70.8,31.4,71,31.3,71.3,31.2"/>
	<path class="st1" d="M74.8,34.3c-0.5-0.9-0.9-1.8-1.4-2.6c-0.1-0.2-0.1-0.4-0.3-0.5c-0.9,0.5-1.9,1.1-2.9,1.6
		c0.6,1,1.1,2.1,1.7,3.1"/>
	<path class="st1" d="M77.1,27c0.2,0.3,0.5,0.4,0.8,0.6c0.6,0.5,0.7,1.1,0.6,1.8c-0.1,0.7,0.1,1.2,0.6,1.6c0.2,0.1,0.4,0.3,0.6,0.3"
		/>
	<path class="st1" d="M88.8,25c0,0.3,0.1,0.5,0.1,0.8c0,0.1,0,0.2-0.1,0.2c-0.6,0.3-1.1,0.6-1.7,0.9c-1.1-1.4-1.9-2.9-2.5-4.5
		c1.6-0.9,3.2-1.8,4.9-2.7c1.1,1.3,1.9,2.8,2.5,4.5c-0.5,0.4-1.2,0.6-1.7,1c0,0-0.1,0.1-0.2,0c-0.1-0.1-0.2-0.1-0.2-0.2
		c-0.3-0.3-0.6-0.4-1-0.2c-0.4,0.2-0.8,0-1-0.5c-0.1-0.1-0.1-0.2-0.2-0.4"/>
	<path class="st1" d="M80.3,26.6c0.2,0.5,0.6,0.9,1.1,1c0.8,0.2,1.2,1.1,1,2"/>
	<path class="st1" d="M75.6,33.9c-1.2,0.6-2.4,1.4-3.6,2c-0.2,0.1-0.5,0.2-0.7,0.4"/>
	<path class="st1" d="M74.4,33.6c-0.9,0.5-1.9,1-2.8,1.5"/>
	<path class="st1" d="M80.2,25.3c0,0.3,0,0.6,0.1,0.9c0.1,0.4-0.3,0.8-0.8,0.8c-0.1,0-0.3-0.1-0.4-0.1"/>
	<path class="st1" d="M90.1,20.5c-1.1,0.6-2.2,1.2-3.4,1.9c-0.6,0.3-1.1,0.7-1.7,1"/>
	<path class="st1" d="M89.2,23.2c0.2,0.3,0.4,0.6,0.4,0.9c0,0.2-0.2,0.4-0.2,0.6"/>
	<path class="st1" d="M94.2,16.8c0.4,0.6,0.7,1.2,1,1.8c0.6,1.1,1.2,2.2,1.9,3.4c0,0,0.1,0,0.1,0.1"/>
	<path class="st1" d="M78.9,26.6c0.2,0.5,0,0.9-0.5,1c-0.1,0-0.2,0-0.3,0.1"/>
	<path class="st1" d="M86.1,21.7c0.2,0.2,0.3,0.5,0.4,0.7"/>
	<path class="st1" d="M88,20.7c0.1,0.2,0.3,0.5,0.4,0.7"/>
	<path class="st1" d="M71.3,31.3c0.1,0.2,0.2,0.3,0.3,0.5"/>
	<path class="st1" d="M107.2,11.6c-0.2,0.1-0.3,0.3-0.4,0.5c-0.2-0.1-0.3-0.1-0.5,0c-0.4,0.3-0.4,0.7,0.1,1c0.3,0.2,0.5,0.2,0.8,0.3
		c0.2,0,0.4,0,0.5-0.3c0.1-0.3,0.2-0.6,0.2-0.9C107.9,11.8,107.8,11.6,107.2,11.6"/>
</g>
<g class="st0">
	<path class="st1" d="M29.7,48.2c0-0.2-0.2-0.4-0.3-0.6c-0.1-0.2-0.2-0.4-0.1-0.6c0.3-1.1-0.2-2.2-1.4-2.6c-1.5-0.4-3,0.9-2.7,2.6
		c0.2,0.8,0.8,1.4,1.6,1.5c0.6,0.1,1.2,0,1.7-0.4c0.1-0.1,0.1-0.1,0.3-0.1c0.4,0.1,0.7,0.2,1.1,0.2"/>
	<path class="st1" d="M-14.9,70.7c0.5,0.7,1,1.4,1.5,2.2c0.2,0,0.2-0.1,0.4-0.2c-0.4-0.9-0.8-1.9-1.2-2.8c-0.1-0.3-0.2-0.5-0.3-0.8
		c-0.2-0.5-0.7-0.8-1.3-0.9c-0.2,0-0.5-0.1-0.7-0.1c-0.1,0.1,0,0.2,0,0.4c0,1.4-0.1,2.7-0.1,4.1c0,0.7-0.7,1.2-1.3,0.9"/>
	<path class="st1" d="M-14.4,69.7c-0.5,0.7-0.8,1.6-0.8,2.5c0,0.3,0,0.5,0,0.8c0.1,0.7-0.3,1.1-0.8,1.4c-0.7,0.3-1.3,0.7-2,1.1
		c-0.2,0.1-0.4,0.2-0.6,0.1c-0.3-0.2-0.4-0.5-0.2-0.8c0.2-0.4,0.5-0.7,0.8-1.1c0.1-0.1,0.1-0.2,0.1-0.3"/>
	<path class="st1" d="M21.7,51.7c-0.2-0.5-0.5-1-0.7-1.4c-0.3-0.6-0.6-1.1-0.9-1.6c-0.1-0.3-0.3-0.3-0.6-0.3c-0.5,0.1-1,0.4-1.2,0.9
		c-0.4,0.7-1,1.1-1.9,1c-0.5,0-0.9,0.2-1.3,0.5c-0.1,0.1-0.2,0.2-0.3,0.3"/>
	<path class="st1" d="M1.2,64.3c0.1-0.4,0.3-0.8,0.4-1.1c0.1-0.3-0.1-0.6-0.3-0.8c-0.2-0.1-0.5,0-0.8,0.3c-0.1,0.1-0.1,0.2-0.3,0.2
		c-0.4,0-0.6,0.2-0.6,0.5c0,0.2,0.1,0.6,0.4,0.7C0.3,64.1,0.7,64.3,1.2,64.3"/>
	<path class="st1" d="M21.2,50.9c-0.5,0.1-1,0.2-1.4,0.7c-0.1,0.2-0.2,0.3-0.4,0.5c-0.4,0.6-1,0.8-1.7,0.8c-0.5,0-0.9,0.1-1.3,0.5
		c-0.1,0.1-0.3,0.3-0.4,0.4"/>
	<path class="st1" d="M20.7,50c-0.4,0.1-0.7,0.2-1.1,0.4c-0.2,0.2-0.4,0.3-0.5,0.6c-0.4,0.7-1,1-1.9,1c-0.7,0-1.2,0.3-1.6,0.9"/>
	<path class="st1" d="M21.9,51.8c-0.5-0.1-0.9,0.1-1.3,0.4c-0.2,0.2-0.4,0.4-0.6,0.6c-0.4,0.6-1,0.9-1.7,0.9c-0.4,0-0.9,0.1-1.2,0.4
		c-0.2,0.1-0.3,0.3-0.4,0.4"/>
	<path class="st1" d="M20.2,49.1c-0.8,0.1-1.3,0.5-1.7,1.2c-0.4,0.6-1,0.9-1.7,0.8c-0.6,0-1.1,0.2-1.5,0.7c0,0.1-0.1,0.1-0.1,0.1"/>
	<path class="st1" d="M-8.5,65.2c0.3-0.2,0.5-0.5,0.4-0.9c-0.1-0.5-0.5-0.7-0.9-0.8c-0.5-0.2-0.5-0.1-0.6,0.4
		c-0.1,0.7,0,1.1,0.4,1.3C-9,65.3-8.8,65.2-8.5,65.2"/>
	<path class="st1" d="M-4.9,68.2c-0.5-0.9-0.9-1.8-1.4-2.6c-0.1-0.2-0.1-0.4-0.3-0.5c-0.9,0.5-1.9,1.1-2.9,1.6
		c0.6,1,1.1,2.1,1.7,3.1"/>
	<path class="st1" d="M-2.7,60.9c0.2,0.3,0.5,0.4,0.8,0.6c0.6,0.5,0.7,1.1,0.6,1.8c-0.1,0.7,0.1,1.2,0.6,1.6
		c0.2,0.1,0.4,0.3,0.6,0.3"/>
	<path class="st1" d="M9,59c0,0.3,0.1,0.5,0.1,0.8c0,0.1,0,0.2-0.1,0.2c-0.6,0.3-1.1,0.6-1.7,0.9c-1.1-1.4-1.9-2.9-2.5-4.5
		c1.6-0.9,3.2-1.8,4.9-2.7c1.1,1.3,1.9,2.8,2.5,4.5c-0.5,0.4-1.2,0.6-1.7,1c0,0-0.1,0.1-0.2,0c-0.1-0.1-0.2-0.1-0.2-0.2
		c-0.3-0.3-0.6-0.4-1-0.2c-0.4,0.2-0.8,0-1-0.5C8,58.3,8,58.1,7.9,58"/>
	<path class="st1" d="M0.5,60.6c0.2,0.5,0.6,0.9,1.1,1c0.8,0.2,1.2,1.1,1,2"/>
	<path class="st1" d="M-4.2,67.8c-1.2,0.6-2.4,1.4-3.6,2c-0.2,0.1-0.5,0.2-0.7,0.4"/>
	<path class="st1" d="M-5.3,67.5c-0.9,0.5-1.9,1-2.8,1.5"/>
	<path class="st1" d="M0.4,59.2c0,0.3,0,0.6,0.1,0.9c0.1,0.4-0.3,0.8-0.8,0.8c-0.1,0-0.3-0.1-0.4-0.1"/>
	<path class="st1" d="M10.3,54.5c-1.1,0.6-2.2,1.2-3.4,1.9c-0.6,0.3-1.1,0.7-1.7,1"/>
	<path class="st1" d="M9.4,57.1c0.2,0.3,0.4,0.6,0.4,0.9c0,0.2-0.2,0.4-0.2,0.6"/>
	<path class="st1" d="M14.4,50.7c0.4,0.6,0.7,1.2,1,1.8c0.6,1.1,1.2,2.2,1.9,3.4c0,0,0.1,0,0.1,0.1"/>
	<path class="st1" d="M-0.9,60.6c0.2,0.5,0,0.9-0.5,1c-0.1,0-0.2,0-0.3,0.1"/>
	<path class="st1" d="M6.3,55.7c0.2,0.2,0.3,0.5,0.4,0.7"/>
	<path class="st1" d="M8.2,54.6c0.1,0.2,0.3,0.5,0.4,0.7"/>
	<path class="st1" d="M-8.5,65.2c0.1,0.2,0.2,0.3,0.3,0.5"/>
	<path class="st1" d="M27.4,45.5c-0.2,0.1-0.3,0.3-0.4,0.5c-0.2-0.1-0.3-0.1-0.5,0c-0.4,0.3-0.4,0.7,0.1,1c0.3,0.2,0.5,0.2,0.8,0.3
		c0.2,0,0.4,0,0.5-0.3c0.1-0.3,0.2-0.6,0.2-0.9C28.1,45.7,28,45.5,27.4,45.5"/>
</g>
<g class="st0">
	<path class="st1" d="M82.5,17.5c0-0.2-0.2-0.4-0.3-0.6c-0.1-0.2-0.2-0.4-0.1-0.6c0.3-1.1-0.2-2.2-1.4-2.6c-1.5-0.4-3,0.9-2.7,2.6
		c0.2,0.8,0.8,1.4,1.6,1.5c0.6,0.1,1.2,0,1.7-0.4c0.1-0.1,0.1-0.1,0.3-0.1c0.4,0.1,0.7,0.2,1.1,0.2"/>
	<path class="st1" d="M37.9,39.9c0.5,0.7,1,1.4,1.5,2.2c0.2,0,0.2-0.1,0.4-0.2c-0.4-0.9-0.8-1.9-1.2-2.8c-0.1-0.3-0.2-0.5-0.3-0.8
		c-0.2-0.5-0.7-0.8-1.3-0.9c-0.2,0-0.5-0.1-0.7-0.1c-0.1,0.1,0,0.2,0,0.4c0,1.4-0.1,2.7-0.1,4.1c0,0.7-0.7,1.2-1.3,0.9"/>
	<path class="st1" d="M38.4,38.9c-0.5,0.7-0.8,1.6-0.8,2.5c0,0.3,0,0.5,0,0.8c0.1,0.7-0.3,1.1-0.8,1.4c-0.7,0.3-1.3,0.7-2,1.1
		c-0.2,0.1-0.4,0.2-0.6,0.1c-0.3-0.2-0.4-0.5-0.2-0.8c0.2-0.4,0.5-0.7,0.8-1.1c0.1-0.1,0.1-0.2,0.1-0.3"/>
	<path class="st1" d="M74.5,21c-0.2-0.5-0.5-1-0.7-1.4c-0.3-0.6-0.6-1.1-0.9-1.6c-0.1-0.3-0.3-0.3-0.6-0.3c-0.5,0.1-1,0.4-1.2,0.9
		c-0.4,0.7-1,1.1-1.9,1c-0.5,0-0.9,0.2-1.3,0.5c-0.1,0.1-0.2,0.2-0.3,0.3"/>
	<path class="st1" d="M54,33.5c0.1-0.4,0.3-0.8,0.4-1.1c0.1-0.3-0.1-0.6-0.3-0.8c-0.2-0.1-0.5,0-0.8,0.3c-0.1,0.1-0.1,0.2-0.3,0.2
		c-0.4,0-0.6,0.2-0.6,0.5c0,0.2,0.1,0.6,0.4,0.7C53.1,33.3,53.5,33.5,54,33.5"/>
	<path class="st1" d="M74,20.1c-0.5,0.1-1,0.2-1.4,0.7c-0.1,0.2-0.2,0.3-0.4,0.5c-0.4,0.6-1,0.8-1.7,0.8c-0.5,0-0.9,0.1-1.3,0.5
		c-0.1,0.1-0.3,0.3-0.4,0.4"/>
	<path class="st1" d="M73.5,19.2c-0.4,0.1-0.7,0.2-1.1,0.4c-0.2,0.2-0.4,0.3-0.5,0.6c-0.4,0.7-1,1-1.9,1c-0.7,0-1.2,0.3-1.6,0.9"/>
	<path class="st1" d="M74.6,21.1c-0.5-0.1-0.9,0.1-1.3,0.4c-0.2,0.2-0.4,0.4-0.6,0.6c-0.4,0.6-1,0.9-1.7,0.9c-0.4,0-0.9,0.1-1.2,0.4
		c-0.2,0.1-0.3,0.3-0.4,0.4"/>
	<path class="st1" d="M73,18.4c-0.8,0.1-1.3,0.5-1.7,1.2c-0.4,0.6-1,0.9-1.7,0.8c-0.6,0-1.1,0.2-1.5,0.7c0,0.1-0.1,0.1-0.1,0.1"/>
	<path class="st1" d="M44.3,34.4c0.3-0.2,0.5-0.5,0.4-0.9c-0.1-0.5-0.5-0.7-0.9-0.8c-0.5-0.2-0.5-0.1-0.6,0.4
		c-0.1,0.7,0,1.1,0.4,1.3C43.8,34.5,44,34.4,44.3,34.4"/>
	<path class="st1" d="M47.8,37.4c-0.5-0.9-0.9-1.8-1.4-2.6c-0.1-0.2-0.1-0.4-0.3-0.5c-0.9,0.5-1.9,1.1-2.9,1.6
		c0.6,1,1.1,2.1,1.7,3.1"/>
	<path class="st1" d="M50.1,30.1c0.2,0.3,0.5,0.4,0.8,0.6c0.6,0.5,0.7,1.1,0.6,1.8c-0.1,0.7,0.1,1.2,0.6,1.6
		c0.2,0.1,0.4,0.3,0.6,0.3"/>
	<path class="st1" d="M61.8,28.2c0,0.3,0.1,0.5,0.1,0.8c0,0.1,0,0.2-0.1,0.2c-0.6,0.3-1.1,0.6-1.7,0.9c-1.1-1.4-1.9-2.9-2.5-4.5
		c1.6-0.9,3.2-1.8,4.9-2.7c1.1,1.3,1.9,2.8,2.5,4.5c-0.5,0.4-1.2,0.6-1.7,1c0,0-0.1,0.1-0.2,0c-0.1-0.1-0.2-0.1-0.2-0.2
		c-0.3-0.3-0.6-0.4-1-0.2c-0.4,0.2-0.8,0-1-0.5c-0.1-0.1-0.1-0.2-0.2-0.4"/>
	<path class="st1" d="M53.3,29.8c0.2,0.5,0.6,0.9,1.1,1c0.8,0.2,1.2,1.1,1,2"/>
	<path class="st1" d="M48.6,37.1c-1.2,0.6-2.4,1.4-3.6,2c-0.2,0.1-0.5,0.2-0.7,0.4"/>
	<path class="st1" d="M47.4,36.8c-0.9,0.5-1.9,1-2.8,1.5"/>
	<path class="st1" d="M53.2,28.5c0,0.3,0,0.6,0.1,0.9c0.1,0.4-0.3,0.8-0.8,0.8c-0.1,0-0.3-0.1-0.4-0.1"/>
	<path class="st1" d="M63,23.7c-1.1,0.6-2.2,1.2-3.4,1.9c-0.6,0.3-1.1,0.7-1.7,1"/>
	<path class="st1" d="M62.2,26.4c0.2,0.3,0.4,0.6,0.4,0.9c0,0.2-0.2,0.4-0.2,0.6"/>
	<path class="st1" d="M67.2,20c0.4,0.6,0.7,1.2,1,1.8c0.6,1.1,1.2,2.2,1.9,3.4c0,0,0.1,0,0.1,0.1"/>
	<path class="st1" d="M51.8,29.8c0.2,0.5,0,0.9-0.5,1c-0.1,0-0.2,0-0.3,0.1"/>
	<path class="st1" d="M59.1,24.9c0.2,0.2,0.3,0.5,0.4,0.7"/>
	<path class="st1" d="M61,23.8c0.1,0.2,0.3,0.5,0.4,0.7"/>
	<path class="st1" d="M44.3,34.5c0.1,0.2,0.2,0.3,0.3,0.5"/>
	<path class="st1" d="M80.2,14.8c-0.2,0.1-0.3,0.3-0.4,0.5c-0.2-0.1-0.3-0.1-0.5,0c-0.4,0.3-0.4,0.7,0.1,1c0.3,0.2,0.5,0.2,0.8,0.3
		c0.2,0,0.4,0,0.5-0.3c0.1-0.3,0.2-0.6,0.2-0.9C80.9,14.9,80.7,14.8,80.2,14.8"/>
</g>
</svg>
