<?xml version="1.0" encoding="utf-8"?>
<!-- Generator: Adobe Illustrator 22.0.1, SVG Export Plug-In . SVG Version: 6.00 Build 0)  -->
<svg version="1.1" id="Capa_1" xmlns="http://www.w3.org/2000/svg" xmlns:xlink="http://www.w3.org/1999/xlink" x="0px" y="0px"
	 viewBox="0 0 56.7 56.7" style="enable-background:new 0 0 56.7 56.7;" xml:space="preserve">
<g>
	<path d="M28.5,36c-5.4-0.2-11.4-0.5-17.1-2.4c-2.6-0.8-4.7-2.3-6.4-4.3c-1.9-2.2-1-5.6,1.8-6.6c1.4-0.5,2.8-0.5,4.2-0.2
		c1,0.2,1.2-0.2,1.3-1c0.3-2.4,0.3-4.8,0.4-7.3c0.3-4.4,2.4-7.4,6.6-8.8c5.8-1.9,11.7-2,17.5-0.3c4.8,1.4,6.8,4.4,7.1,9.8
		c0.1,2,0.2,4.1,0.3,6.1c0.1,1.3,0.1,1.4,1.5,1.1c2.7-0.5,5,0.4,6.4,2.6c0.9,1.3,0.7,2.7,0.1,4c-1,2-2.7,3.2-4.6,4.1
		c-2.9,1.3-5.9,1.9-9,2.4C35.4,35.8,32.2,36,28.5,36z"/>
	<path d="M12.4,44.7c-0.3,0.4-0.8,0.4-1.3,0.5c-0.8,0.2-1.4,0.5-1.3,1.4c0.1,0.9,0.5,1.6,1.5,1.7c0.7,0.1,1.4-0.1,2.1-0.3
		c1.7-0.6,3.1-1.7,4.5-2.9c1.1-1,2.3-1.9,3.6-2.7c1.9-1.1,3.9-1.2,5.9-0.2c0.5,0.3,0.8,0.3,1.3,0c2.4-1.2,4.7-0.9,6.9,0.4
		c2,1.1,3.7,2.7,5.6,4.1c0.7,0.5,1.3,1,2.1,1.3c1.3,0.5,2.5,0.2,3.3-0.9c0.6-0.8,0.4-1.5-0.6-1.8c-0.3-0.1-0.6-0.1-0.9-0.2
		c-0.3-0.1-0.6-0.2-0.9-0.3c0.5-0.9,1.2-1,2-0.7c1.5,0.6,2.4,1.7,2.7,3.2c0.2,1.4-0.5,2.5-1.6,3.4c-1.8,1.4-4,1.8-6.2,2
		c-3.6,0.4-7.2,0.3-10.5-1.4c-1.9-1-3.2-1.1-5,0.2c-1.3,1-3,1-4.6,1.2c-3.5,0.3-6.9,0.2-10.1-1.2c-1.4-0.6-2.6-1.4-3.1-3
		c-0.4-1.2,0.3-3,1.4-3.9C10.3,44,11.3,44,12.4,44.7z"/>
</g>
</svg>
