<?xml version="1.0" encoding="utf-8"?>
<!-- Generator: Adobe Illustrator 22.0.1, SVG Export Plug-In . SVG Version: 6.00 Build 0)  -->
<svg version="1.1" id="Layer_1" xmlns="http://www.w3.org/2000/svg" xmlns:xlink="http://www.w3.org/1999/xlink" x="0px" y="0px"
	 viewBox="0 0 362.9 63.2" style="enable-background:new 0 0 362.9 63.2;" xml:space="preserve">
<style type="text/css">
	.st0{fill:#C501FE;}
</style>
<g id="Layer_1_1_">
</g>
<g id="logo_x5F_final">
	<g>
		<path d="M117.3,10.5v27.7h-4.5l-0.3-2.7c-1.5,2.3-3.9,3.1-6.3,3.1c-5.8,0-10.1-3.8-10.1-10.3c0-6.7,4.3-10.3,10-10.3
			c2.1,0,5.2,1.1,6.4,3.1V10.5H117.3z M100.9,28.4c0,3.4,2.5,5.8,5.5,5.8s5.7-2.2,5.7-5.8c0-3.4-2.6-5.7-5.7-5.7
			S100.9,24.9,100.9,28.4z"/>
		<path d="M141,28.5c0,5.6-3.8,10.2-10.2,10.2c-6.4,0-10.2-4.6-10.2-10.2s3.9-10.2,10.1-10.2C136.9,18.3,141,22.9,141,28.5z
			 M125.5,28.5c0,3,1.8,5.8,5.3,5.8s5.3-2.8,5.3-5.8c0-2.9-2.1-5.8-5.3-5.8C127.3,22.7,125.5,25.6,125.5,28.5z"/>
		<path d="M158.8,38.3V28c0-3-1.6-5.2-4.7-5.2c-3,0-5,2.5-5,5.5v10h-4.8V18.6h4.3l0.3,2.6c1.9-1.9,4-2.9,6.4-2.9
			c4.6,0,8.3,3.4,8.3,9.6v10.3L158.8,38.3L158.8,38.3z"/>
	</g>
	<g>
		<g>
			<path class="st0" d="M172,30.2c0.3,2.4,2.4,4.2,5.8,4.2c1.8,0,4.1-0.7,5.2-1.8l3.1,3.1c-2.1,2.2-5.5,3.1-8.4,3.1
				c-6.7,0-10.8-4.2-10.8-10.4c0-5.9,4-10.3,10.4-10.3c6.5,0,10.6,4,9.9,12.1L172,30.2L172,30.2z M182.7,26.2
				c-0.3-2.5-2.3-3.8-5.1-3.8c-2.6,0-4.8,1.3-5.5,3.8H182.7z"/>
			<path class="st0" d="M195.6,18.7l0.4,2.2c1.5-2.4,3.5-2.8,5.5-2.8s4,0.8,5,1.9l-2.2,4.2c-1-0.8-1.9-1.3-3.5-1.3
				c-2.5,0-4.9,1.3-4.9,4.9v10.3H191V18.7H195.6z"/>
			<path class="st0" d="M217.6,18.3c6.2,0,10.3,4.6,10.3,10.2s-3.8,10.2-10.2,10.2s-10.2-4.6-10.2-10.2S211.3,18.3,217.6,18.3z
				 M217.6,22.7c-3.5,0-5.3,2.8-5.3,5.8s1.8,5.8,5.3,5.8s5.3-2.8,5.3-5.8C222.9,25.6,220.9,22.7,217.6,22.7z M223.9,10.3h-5.7
				l-2.9,5.4v0.2h4.3l4.3-5.5L223.9,10.3L223.9,10.3z"/>
			<path class="st0" d="M237.6,13.1v5.5h5.4v4.2h-5.5v8.5c0,1.9,1,2.8,2.5,2.8c0.7,0,1.6-0.2,2.3-0.6l1.3,4.1
				c-1.4,0.5-2.5,0.8-4,0.8c-4.3,0.2-7-2.2-7-7.1v-8.5h-3.5v-4.2h3.7v-5L237.6,13.1z"/>
			<path class="st0" d="M251.9,13.1c0,3.7-5.7,3.7-5.7,0S251.9,9.4,251.9,13.1z M246.6,18.6v19.6h4.9V18.6H246.6z"/>
			<path class="st0" d="M272.6,35.8c-2.3,2.2-4.6,3.1-7.6,3.1c-5.7,0-10.4-3.4-10.4-10.3s4.7-10.3,10.4-10.3c2.8,0,4.9,0.8,7,2.9
				l-3.1,3.2c-1.1-1-2.5-1.6-3.9-1.6c-3.2,0-5.6,2.4-5.6,5.8c0,3.7,2.5,5.7,5.5,5.7c1.6,0,3.1-0.4,4.3-1.6L272.6,35.8z"/>
			<path class="st0" d="M294.7,28.5c0,5.6-3.8,10.2-10.2,10.2s-10.2-4.6-10.2-10.2s3.9-10.2,10.1-10.2S294.7,22.9,294.7,28.5z
				 M279.1,28.5c0,3,1.8,5.8,5.3,5.8s5.3-2.8,5.3-5.8c0-2.9-2.1-5.8-5.3-5.8C280.9,22.7,279.1,25.6,279.1,28.5z"/>
			<path class="st0" d="M310.8,23.9c-1.4-1.3-3-1.7-4.9-1.7c-2.3,0-3.6,0.7-3.6,1.9c0,1.3,1.1,1.9,3.7,2.2c3.7,0.2,8.4,1,8.4,6.3
				c0,3.4-2.8,6.4-8.4,6.4c-3.1,0-6.2-0.5-9.1-3.5l2.4-3.4c1.4,1.6,4.6,2.7,6.7,2.8c1.8,0.1,3.5-0.9,3.5-2.3c0-1.3-1.1-1.9-3.9-2.1
				c-3.7-0.3-8.1-1.6-8.1-6.1s4.7-6.1,8.2-6.1c3.1,0,5.4,0.6,7.6,2.5L310.8,23.9z"/>
		</g>
	</g>
	<g id="icono">
		<path d="M69.4,37.8c-4.6-0.2-9.7-0.4-14.6-2c-2.2-0.7-4-1.9-5.5-3.7c-1.6-1.9-0.8-4.8,1.5-5.6c1.2-0.4,2.4-0.4,3.6-0.1
			c0.9,0.2,1-0.1,1.1-0.8c0.3-2,0.2-4.1,0.4-6.1c0.2-3.7,2-6.3,5.6-7.4c4.9-1.7,9.9-1.8,14.8-0.3c4,1.2,5.8,3.7,6.1,8.3
			c0.1,1.7,0.2,3.5,0.3,5.2c0.1,1.1,0.1,1.1,1.3,1c2.3-0.4,4.3,0.4,5.5,2.2c0.7,1.1,0.7,2.2,0.1,3.4c-0.8,1.6-2.3,2.7-3.9,3.4
			c-2.5,1.1-5.1,1.6-7.7,2C75.3,37.7,72.6,37.8,69.4,37.8z"/>
		<path d="M55.7,45.2c-0.3,0.4-0.7,0.4-1.1,0.4c-0.7,0.1-1.2,0.4-1.1,1.2c0.1,0.7,0.4,1.3,1.3,1.5c0.6,0.1,1.2-0.1,1.8-0.2
			c1.4-0.5,2.7-1.4,3.8-2.4c1-0.8,1.9-1.6,3.1-2.2c1.6-0.9,3.3-1,5-0.2c0.4,0.2,0.7,0.2,1.1,0c2-1,4-0.7,5.9,0.4
			c1.7,1,3.1,2.3,4.7,3.4c0.5,0.4,1.1,0.8,1.8,1.1c1.1,0.4,2.1,0.1,2.8-0.8c0.4-0.7,0.3-1.3-0.4-1.6c-0.2-0.1-0.5-0.1-0.8-0.1
			c-0.2-0.1-0.4-0.2-0.7-0.2c0.4-0.7,1-0.8,1.7-0.6c1.3,0.5,2,1.4,2.2,2.7c0.2,1.2-0.4,2.2-1.3,2.8c-1.6,1.2-3.4,1.6-5.2,1.7
			c-3.1,0.3-6.1,0.2-8.9-1.2c-1.6-0.8-2.8-0.9-4.3,0.2c-1,0.8-2.5,0.8-3.9,1c-2.9,0.3-5.8,0.1-8.6-1c-1.2-0.5-2.2-1.2-2.6-2.5
			c-0.3-1,0.2-2.5,1.2-3.3C53.9,44.7,54.8,44.6,55.7,45.2z"/>
	</g>
</g>
<g id="Layer_4">
</g>
<g>
	<path d="M195.7,44.7h-1.2l0.2-1h2.3l-1.5,8.5h-1.1L195.7,44.7z"/>
	<path d="M203.1,43.5c2.4,0,2.7,1.9,2.2,4.3c-0.4,2.4-1.4,4.4-3.8,4.4c-2.4,0-2.7-1.9-2.2-4.4C199.8,45.5,200.7,43.5,203.1,43.5z
		 M202.9,44.5c-1.7,0-2.2,1.6-2.5,3.3c-0.3,1.8-0.4,3.4,1.3,3.4c1.7,0,2.2-1.6,2.5-3.4C204.6,46.1,204.6,44.5,202.9,44.5z"/>
	<path d="M211.8,43.5c2.4,0,2.7,1.9,2.2,4.3c-0.4,2.4-1.4,4.4-3.8,4.4s-2.7-1.9-2.2-4.4C208.5,45.5,209.4,43.5,211.8,43.5z
		 M211.7,44.5c-1.7,0-2.2,1.6-2.5,3.3c-0.3,1.8-0.4,3.4,1.3,3.4c1.7,0,2.2-1.6,2.5-3.4C213.3,46.1,213.4,44.5,211.7,44.5z"/>
	<path d="M222.7,43.9h1.1l-6.3,8.4h-1.1L222.7,43.9z M219,43.8c1,0,1.6,0.7,1.4,1.8c-0.2,1.1-1.1,1.8-2.1,1.8c-1,0-1.6-0.7-1.4-1.8
		C217.1,44.4,218,43.8,219,43.8z M217.8,45.5c-0.1,0.7,0.2,1.1,0.7,1.1c0.5,0,0.9-0.4,1.1-1.1c0.1-0.7-0.2-1.1-0.7-1.1
		C218.4,44.4,217.9,44.8,217.8,45.5z M221.8,48.8c1,0,1.6,0.7,1.4,1.8c-0.2,1.1-1.1,1.8-2.1,1.8c-1,0-1.6-0.7-1.4-1.8
		C219.9,49.5,220.7,48.8,221.8,48.8z M220.5,50.6c-0.1,0.7,0.2,1.1,0.7,1.1c0.5,0,0.9-0.4,1.1-1.1c0.1-0.7-0.2-1.1-0.7-1.1
		C221.1,49.5,220.7,49.9,220.5,50.6z"/>
	<path d="M235.5,43.8c1.8,0,3.1,0.9,3.4,2.5h-1.3c-0.3-1-1.1-1.5-2.3-1.5c-1.8,0-3.3,1.3-3.6,3.3c-0.3,2,0.7,3.3,2.5,3.3
		c1.2,0,2.2-0.6,2.8-1.5h1.3c-0.9,1.6-2.5,2.5-4.3,2.5c-2.3,0-3.9-1.8-3.4-4.3C231.1,45.5,233.2,43.8,235.5,43.8z"/>
	<path d="M243.6,52.3c-1.7,0-2.8-1.1-2.8-2.7c0-2.2,1.7-4.1,4-4.1c1.7,0,2.8,1.1,2.8,2.7C247.6,50.6,245.9,52.3,243.6,52.3z
		 M243.8,51.4c1.6,0,2.7-1.5,2.7-3.1c0-1.3-0.9-1.9-1.8-1.9c-1.6,0-2.7,1.5-2.7,3.1C242,50.8,242.8,51.4,243.8,51.4z"/>
	<path d="M251.2,43.4h1.1l-1.6,8.9h-1.1L251.2,43.4z"/>
	<path d="M256.7,52.3c-1.7,0-2.8-1.1-2.8-2.7c0-2.2,1.7-4.1,4-4.1c1.7,0,2.8,1.1,2.8,2.7C260.7,50.6,258.9,52.3,256.7,52.3z
		 M256.8,51.4c1.6,0,2.7-1.5,2.7-3.1c0-1.3-0.9-1.9-1.8-1.9c-1.6,0-2.7,1.5-2.7,3.1C255,50.8,255.8,51.4,256.8,51.4z"/>
	<path d="M272.8,48.5c0.2-1.3-0.4-2-1.4-2c-1.1,0-1.9,0.6-2.2,1.9l-0.7,3.8h-1.1l0.7-3.7c0.2-1.3-0.3-2-1.4-2c-1.1,0-2,0.7-2.2,2.1
		v0l-0.6,3.6h-1.1l1.2-6.6h1.1l-0.2,0.9c0.6-0.7,1.4-1.1,2.3-1.1c1.1,0,1.9,0.5,2.1,1.5c0.6-0.9,1.6-1.5,2.6-1.5
		c1.5,0,2.5,0.9,2.2,2.8l-0.7,3.9h-1.1L272.8,48.5z"/>
	<path d="M280.9,45.6c1.8,0,2.9,1.3,2.5,3.4c-0.4,2-2,3.4-3.7,3.4c-1.2,0-1.9-0.6-2.2-1.3l-0.2,1.2h-1.1l1.6-8.9h1.1l-0.6,3.5
		C278.8,46.2,279.8,45.6,280.9,45.6z M280.6,46.5c-1.2,0-2.4,0.9-2.7,2.4c-0.3,1.5,0.6,2.4,1.8,2.4c1.2,0,2.4-0.9,2.7-2.5
		C282.6,47.4,281.8,46.5,280.6,46.5z"/>
	<path d="M286.7,45.7h1.1l-1.2,6.6h-1.1L286.7,45.7z M286.8,43.9c0.1-0.4,0.5-0.7,0.9-0.7c0.4,0,0.7,0.3,0.6,0.7
		c-0.1,0.4-0.5,0.7-0.9,0.7S286.8,44.3,286.8,43.9z"/>
	<path d="M293.6,45.6c1.2,0,1.9,0.6,2.2,1.3l0.2-1.2h1.1l-1.2,6.6h-1.1l0.2-1.2c-0.5,0.7-1.5,1.3-2.7,1.3c-1.8,0-2.9-1.4-2.5-3.4
		C290.2,46.9,291.8,45.6,293.6,45.6z M293.6,46.5c-1.2,0-2.4,0.9-2.7,2.4c-0.3,1.5,0.6,2.5,1.8,2.5c1.2,0,2.4-0.9,2.7-2.4
		C295.7,47.4,294.8,46.5,293.6,46.5z"/>
	<path d="M304.5,48.5c0.2-1.3-0.4-2-1.5-2c-1.1,0-2,0.7-2.3,2.1v0l-0.6,3.7H299l1.2-6.6h1.1l-0.2,0.9c0.6-0.7,1.4-1.1,2.3-1.1
		c1.5,0,2.5,0.9,2.2,2.8l-0.7,3.9h-1.1L304.5,48.5z"/>
	<path d="M310.8,52.3c-1.7,0-2.8-1.1-2.8-2.7c0-2.2,1.7-4.1,4-4.1c1.7,0,2.8,1.1,2.8,2.7C314.8,50.6,313,52.3,310.8,52.3z
		 M310.9,51.4c1.6,0,2.7-1.5,2.7-3.1c0-1.3-0.9-1.9-1.8-1.9c-1.6,0-2.7,1.5-2.7,3.1C309.1,50.8,309.9,51.4,310.9,51.4z"/>
</g>
</svg>
