<?xml version="1.0" encoding="utf-8"?>
<!-- Generator: Adobe Illustrator 22.0.1, SVG Export Plug-In . SVG Version: 6.00 Build 0)  -->
<svg version="1.1" id="Layer_1" xmlns="http://www.w3.org/2000/svg" xmlns:xlink="http://www.w3.org/1999/xlink" x="0px" y="0px"
	 viewBox="0 0 362.9 63.2" style="enable-background:new 0 0 362.9 63.2;" xml:space="preserve">
<style type="text/css">
	.st0{fill:#C501FE;}
	.st1{fill:#666666;}
</style>
<g id="Layer_1_1_">
</g>
<g id="logo_x5F_final">
	<g>
		<path d="M117.3,10.5v27.7h-4.5l-0.3-2.7c-1.5,2.3-3.9,3.1-6.3,3.1c-5.8,0-10.1-3.8-10.1-10.3c0-6.7,4.3-10.3,10-10.3
			c2.1,0,5.2,1.1,6.4,3.1V10.5H117.3z M100.9,28.4c0,3.4,2.5,5.8,5.5,5.8s5.7-2.2,5.7-5.8c0-3.4-2.6-5.7-5.7-5.7
			S100.9,24.9,100.9,28.4z"/>
		<path d="M141,28.5c0,5.6-3.8,10.2-10.2,10.2c-6.4,0-10.2-4.6-10.2-10.2s3.9-10.2,10.1-10.2C136.9,18.3,141,22.9,141,28.5z
			 M125.5,28.5c0,3,1.8,5.8,5.3,5.8s5.3-2.8,5.3-5.8c0-2.9-2.1-5.8-5.3-5.8C127.3,22.7,125.5,25.6,125.5,28.5z"/>
		<path d="M158.8,38.3V28c0-3-1.6-5.2-4.7-5.2c-3,0-5,2.5-5,5.5v10h-4.8V18.6h4.3l0.3,2.6c1.9-1.9,4-2.9,6.4-2.9
			c4.6,0,8.3,3.4,8.3,9.6v10.3L158.8,38.3L158.8,38.3z"/>
	</g>
	<g>
		<g>
			<path class="st0" d="M172,30.2c0.3,2.4,2.4,4.2,5.8,4.2c1.8,0,4.1-0.7,5.2-1.8l3.1,3.1c-2.1,2.2-5.5,3.1-8.4,3.1
				c-6.7,0-10.8-4.2-10.8-10.4c0-5.9,4-10.3,10.4-10.3c6.5,0,10.6,4,9.9,12.1L172,30.2L172,30.2z M182.7,26.2
				c-0.3-2.5-2.3-3.8-5.1-3.8c-2.6,0-4.8,1.3-5.5,3.8H182.7z"/>
			<path class="st0" d="M195.6,18.7l0.4,2.2c1.5-2.4,3.5-2.8,5.5-2.8s4,0.8,5,1.9l-2.2,4.2c-1-0.8-1.9-1.3-3.5-1.3
				c-2.5,0-4.9,1.3-4.9,4.9v10.3H191V18.7H195.6z"/>
			<path class="st0" d="M217.6,18.3c6.2,0,10.3,4.6,10.3,10.2s-3.8,10.2-10.2,10.2s-10.2-4.6-10.2-10.2S211.3,18.3,217.6,18.3z
				 M217.6,22.7c-3.5,0-5.3,2.8-5.3,5.8s1.8,5.8,5.3,5.8s5.3-2.8,5.3-5.8C222.9,25.6,220.9,22.7,217.6,22.7z M223.9,10.3h-5.7
				l-2.9,5.4v0.2h4.3l4.3-5.5L223.9,10.3L223.9,10.3z"/>
			<path class="st0" d="M237.6,13.1v5.5h5.4v4.2h-5.5v8.5c0,1.9,1,2.8,2.5,2.8c0.7,0,1.6-0.2,2.3-0.6l1.3,4.1
				c-1.4,0.5-2.5,0.8-4,0.8c-4.3,0.2-7-2.2-7-7.1v-8.5h-3.5v-4.2h3.7v-5L237.6,13.1z"/>
			<path class="st0" d="M251.9,13.1c0,3.7-5.7,3.7-5.7,0S251.9,9.4,251.9,13.1z M246.6,18.6v19.6h4.9V18.6H246.6z"/>
			<path class="st0" d="M272.6,35.8c-2.3,2.2-4.6,3.1-7.6,3.1c-5.7,0-10.4-3.4-10.4-10.3s4.7-10.3,10.4-10.3c2.8,0,4.9,0.8,7,2.9
				l-3.1,3.2c-1.1-1-2.5-1.6-3.9-1.6c-3.2,0-5.6,2.4-5.6,5.8c0,3.7,2.5,5.7,5.5,5.7c1.6,0,3.1-0.4,4.3-1.6L272.6,35.8z"/>
			<path class="st0" d="M294.7,28.5c0,5.6-3.8,10.2-10.2,10.2s-10.2-4.6-10.2-10.2s3.9-10.2,10.1-10.2S294.7,22.9,294.7,28.5z
				 M279.1,28.5c0,3,1.8,5.8,5.3,5.8s5.3-2.8,5.3-5.8c0-2.9-2.1-5.8-5.3-5.8C280.9,22.7,279.1,25.6,279.1,28.5z"/>
			<path class="st0" d="M310.8,23.9c-1.4-1.3-3-1.7-4.9-1.7c-2.3,0-3.6,0.7-3.6,1.9c0,1.3,1.1,1.9,3.7,2.2c3.7,0.2,8.4,1,8.4,6.3
				c0,3.4-2.8,6.4-8.4,6.4c-3.1,0-6.2-0.5-9.1-3.5l2.4-3.4c1.4,1.6,4.6,2.7,6.7,2.8c1.8,0.1,3.5-0.9,3.5-2.3c0-1.3-1.1-1.9-3.9-2.1
				c-3.7-0.3-8.1-1.6-8.1-6.1s4.7-6.1,8.2-6.1c3.1,0,5.4,0.6,7.6,2.5L310.8,23.9z"/>
		</g>
	</g>
	<g id="icono">
		<path d="M69.4,37.8c-4.6-0.2-9.7-0.4-14.6-2c-2.2-0.7-4-1.9-5.5-3.7c-1.6-1.9-0.8-4.8,1.5-5.6c1.2-0.4,2.4-0.4,3.6-0.1
			c0.9,0.2,1-0.1,1.1-0.8c0.3-2,0.2-4.1,0.4-6.1c0.2-3.7,2-6.3,5.6-7.4c4.9-1.7,9.9-1.8,14.8-0.3c4,1.2,5.8,3.7,6.1,8.3
			c0.1,1.7,0.2,3.5,0.3,5.2c0.1,1.1,0.1,1.1,1.3,1c2.3-0.4,4.3,0.4,5.5,2.2c0.7,1.1,0.7,2.2,0.1,3.4c-0.8,1.6-2.3,2.7-3.9,3.4
			c-2.5,1.1-5.1,1.6-7.7,2C75.3,37.7,72.6,37.8,69.4,37.8z"/>
		<path d="M55.7,45.2c-0.3,0.4-0.7,0.4-1.1,0.4c-0.7,0.1-1.2,0.4-1.1,1.2c0.1,0.7,0.4,1.3,1.3,1.5c0.6,0.1,1.2-0.1,1.8-0.2
			c1.4-0.5,2.7-1.4,3.8-2.4c1-0.8,1.9-1.6,3.1-2.2c1.6-0.9,3.3-1,5-0.2c0.4,0.2,0.7,0.2,1.1,0c2-1,4-0.7,5.9,0.4
			c1.7,1,3.1,2.3,4.7,3.4c0.5,0.4,1.1,0.8,1.8,1.1c1.1,0.4,2.1,0.1,2.8-0.8c0.4-0.7,0.3-1.3-0.4-1.6c-0.2-0.1-0.5-0.1-0.8-0.1
			c-0.2-0.1-0.4-0.2-0.7-0.2c0.4-0.7,1-0.8,1.7-0.6c1.3,0.5,2,1.4,2.2,2.7c0.2,1.2-0.4,2.2-1.3,2.8c-1.6,1.2-3.4,1.6-5.2,1.7
			c-3.1,0.3-6.1,0.2-8.9-1.2c-1.6-0.8-2.8-0.9-4.3,0.2c-1,0.8-2.5,0.8-3.9,1c-2.9,0.3-5.8,0.1-8.6-1c-1.2-0.5-2.2-1.2-2.6-2.5
			c-0.3-1,0.2-2.5,1.2-3.3C53.9,44.7,54.8,44.6,55.7,45.2z"/>
	</g>
</g>
<g id="Layer_4">
</g>
<g>
	<path class="st1" d="M132.2,50.2h-3l-1,2h-1.5l4.3-8.5h1.4l1.7,8.5h-1.5L132.2,50.2z M129.8,49h2.2l-0.6-3.4l0,0L129.8,49z"/>
	<path class="st1" d="M140.2,46.7c0.3-0.3,0.6-0.6,0.9-0.7s0.7-0.3,1.1-0.3c0.6,0,1.1,0.2,1.4,0.6s0.4,1,0.3,1.9l-0.6,3.9h-1.4
		l0.6-3.9c0.1-0.5,0-0.9-0.1-1.1s-0.4-0.3-0.8-0.3c-0.3,0-0.6,0.1-0.8,0.2s-0.4,0.3-0.6,0.5l-0.7,4.6H138l0.9-6.3h1.3L140.2,46.7z"
		/>
	<path class="st1" d="M152.3,52.2l0-0.9c-0.2,0.3-0.5,0.6-0.9,0.8s-0.7,0.3-1.1,0.3c-0.7,0-1.1-0.2-1.5-0.7s-0.4-1.1-0.3-2.1
		l0.6-3.7h1.4l-0.6,3.7c-0.1,0.6-0.1,1,0.1,1.3s0.4,0.3,0.8,0.3c0.3,0,0.6-0.1,0.9-0.2s0.5-0.3,0.6-0.6l0.7-4.6h1.4l-0.9,6.3H152.3z
		"/>
	<path class="st1" d="M160.5,46.7c0.3-0.3,0.6-0.6,0.9-0.7s0.7-0.3,1.1-0.3c0.6,0,1.1,0.2,1.4,0.6s0.4,1,0.3,1.9l-0.6,3.9h-1.4
		l0.6-3.9c0.1-0.5,0-0.9-0.1-1.1s-0.4-0.3-0.8-0.3c-0.3,0-0.6,0.1-0.8,0.2s-0.4,0.3-0.6,0.5l-0.7,4.6h-1.4l0.9-6.3h1.3L160.5,46.7z"
		/>
	<path class="st1" d="M171.2,51.2c0.3,0,0.6-0.1,0.9-0.3s0.4-0.5,0.5-0.8h1.3l0,0c-0.1,0.6-0.4,1.1-0.9,1.6s-1.2,0.6-1.9,0.6
		c-0.9,0-1.5-0.3-2-0.9s-0.6-1.4-0.4-2.3l0-0.2c0.1-0.9,0.5-1.7,1.1-2.3s1.3-0.9,2.2-0.9c0.7,0,1.3,0.2,1.7,0.7s0.6,1,0.4,1.7l0,0
		h-1.3c0.1-0.4,0-0.7-0.2-0.9s-0.4-0.4-0.8-0.4c-0.5,0-0.9,0.2-1.2,0.6s-0.5,0.9-0.6,1.4l0,0.2c-0.1,0.6-0.1,1.1,0.1,1.5
		S170.7,51.2,171.2,51.2z"/>
	<path class="st1" d="M179.6,52.2h-1.4l0.9-6.3h1.4L179.6,52.2z M180.8,44.3h-1.4l0.2-1.2h1.4L180.8,44.3z"/>
	<path class="st1" d="M184.8,49c0.1-1,0.5-1.8,1.1-2.3s1.4-0.9,2.3-0.9c0.9,0,1.5,0.3,2,0.9s0.6,1.4,0.5,2.3l0,0.1
		c-0.2,1-0.5,1.8-1.1,2.4s-1.4,0.9-2.3,0.9c-0.9,0-1.5-0.3-2-0.9s-0.6-1.4-0.5-2.3L184.8,49z M186.2,49.1c-0.1,0.6-0.1,1.1,0.1,1.5
		s0.5,0.6,1,0.6c0.5,0,0.9-0.2,1.2-0.6s0.5-0.9,0.6-1.5l0-0.1c0.1-0.6,0-1.1-0.1-1.5s-0.5-0.6-1-0.6c-0.5,0-0.9,0.2-1.2,0.6
		s-0.5,0.9-0.6,1.5L186.2,49.1z"/>
	<path class="st1" d="M198.6,50.5c0-0.2,0-0.4-0.2-0.5s-0.5-0.3-1-0.4c-0.7-0.2-1.3-0.4-1.6-0.7s-0.5-0.7-0.4-1.2
		c0.1-0.6,0.4-1,0.9-1.4s1.1-0.6,1.9-0.6c0.7,0,1.3,0.2,1.7,0.6s0.6,0.9,0.5,1.4l0,0h-1.4c0-0.3,0-0.5-0.2-0.7s-0.4-0.3-0.8-0.3
		c-0.3,0-0.6,0.1-0.8,0.2s-0.3,0.3-0.4,0.6s0,0.4,0.2,0.5s0.5,0.2,1,0.3c0.8,0.2,1.3,0.4,1.7,0.7s0.5,0.7,0.4,1.2
		c-0.1,0.6-0.4,1.1-0.9,1.4s-1.2,0.5-1.9,0.5c-0.8,0-1.4-0.2-1.8-0.6s-0.6-0.9-0.5-1.4l0,0h1.3c0,0.4,0.1,0.6,0.3,0.8
		s0.5,0.3,0.9,0.3c0.4,0,0.6-0.1,0.9-0.2S198.5,50.7,198.6,50.5z"/>
	<path class="st1" d="M217.5,49.4L217.5,49.4c-0.1,0.9-0.5,1.6-1.1,2.1s-1.5,0.8-2.4,0.8c-1,0-1.7-0.3-2.2-1s-0.7-1.5-0.6-2.6
		l0.2-1.6c0.2-1.1,0.6-1.9,1.3-2.6s1.6-1,2.5-1c1,0,1.7,0.3,2.2,0.8s0.7,1.2,0.6,2.1l0,0h-1.4c0.1-0.6,0-1-0.3-1.3s-0.7-0.4-1.3-0.4
		c-0.6,0-1,0.2-1.5,0.7s-0.7,1-0.8,1.7l-0.2,1.6c-0.1,0.7,0,1.3,0.2,1.8s0.7,0.7,1.3,0.7c0.6,0,1-0.2,1.4-0.5s0.6-0.7,0.7-1.3H217.5
		z"/>
	<path class="st1" d="M223.2,52.2h-1.4l1.4-9.1h1.4L223.2,52.2z"/>
	<path class="st1" d="M231.9,52.2c0-0.2,0-0.3-0.1-0.5s0-0.3,0-0.5c-0.2,0.3-0.5,0.5-0.9,0.7s-0.7,0.3-1.1,0.3
		c-0.6,0-1.1-0.2-1.4-0.5s-0.4-0.8-0.3-1.4c0.1-0.6,0.4-1.1,0.9-1.5s1.2-0.5,2.1-0.5h1.1l0.1-0.6c0.1-0.3,0-0.6-0.2-0.8
		s-0.4-0.3-0.8-0.3c-0.3,0-0.6,0.1-0.8,0.2s-0.3,0.4-0.4,0.6l-1.4,0l0,0c0.1-0.5,0.3-1,0.9-1.3s1.2-0.6,1.9-0.6
		c0.7,0,1.3,0.2,1.7,0.6s0.6,0.9,0.5,1.6l-0.4,2.8c0,0.3-0.1,0.5-0.1,0.8s0,0.5,0.1,0.7H231.9z M230.4,51.2c0.3,0,0.7-0.1,1-0.3
		s0.5-0.4,0.7-0.6l0.1-0.9H231c-0.4,0-0.7,0.1-1,0.3s-0.4,0.4-0.5,0.7c0,0.3,0,0.4,0.1,0.6S230.1,51.2,230.4,51.2z"/>
	<path class="st1" d="M241.8,50.5c0-0.2,0-0.4-0.2-0.5s-0.5-0.3-1-0.4c-0.7-0.2-1.3-0.4-1.6-0.7s-0.5-0.7-0.4-1.2
		c0.1-0.6,0.4-1,0.9-1.4s1.1-0.6,1.9-0.6c0.7,0,1.3,0.2,1.7,0.6s0.6,0.9,0.5,1.4l0,0h-1.4c0-0.3,0-0.5-0.2-0.7s-0.4-0.3-0.8-0.3
		c-0.3,0-0.6,0.1-0.8,0.2s-0.3,0.3-0.4,0.6s0,0.4,0.2,0.5s0.5,0.2,1,0.3c0.8,0.2,1.3,0.4,1.7,0.7s0.5,0.7,0.4,1.2
		c-0.1,0.6-0.4,1.1-0.9,1.4s-1.2,0.5-1.9,0.5c-0.8,0-1.4-0.2-1.8-0.6s-0.6-0.9-0.5-1.4l0,0h1.3c0,0.4,0.1,0.6,0.3,0.8
		s0.5,0.3,0.9,0.3c0.4,0,0.6-0.1,0.9-0.2S241.8,50.7,241.8,50.5z"/>
	<path class="st1" d="M249.1,52.2h-1.4l0.9-6.3h1.4L249.1,52.2z M250.3,44.3h-1.4l0.2-1.2h1.4L250.3,44.3z"/>
	<path class="st1" d="M254.4,52.2l0.8-5.3h-1l0.2-1.1h1l0.1-0.5c0.1-0.8,0.4-1.4,0.9-1.8s1.2-0.6,2-0.6c0.3,0,0.5,0,0.8,0.1
		s0.6,0.1,0.9,0.3l-0.4,1.2c-0.2-0.1-0.5-0.1-0.7-0.2s-0.5-0.1-0.8-0.1c-0.4,0-0.7,0.1-1,0.3s-0.4,0.5-0.4,0.8l-0.1,0.5h1.2
		l-0.2,1.1h-1.2l-0.8,5.3H254.4z M259.5,52.2H258l0.9-6.3h1.4L259.5,52.2z"/>
	<path class="st1" d="M267.2,51.2c0.3,0,0.6-0.1,0.9-0.3s0.4-0.5,0.5-0.8h1.3l0,0c-0.1,0.6-0.4,1.1-0.9,1.6s-1.2,0.6-1.9,0.6
		c-0.9,0-1.5-0.3-2-0.9s-0.6-1.4-0.4-2.3l0-0.2c0.1-0.9,0.5-1.7,1.1-2.3s1.3-0.9,2.2-0.9c0.7,0,1.3,0.2,1.7,0.7s0.6,1,0.4,1.7l0,0
		h-1.3c0.1-0.4,0-0.7-0.2-0.9s-0.4-0.4-0.8-0.4c-0.5,0-0.9,0.2-1.2,0.6s-0.5,0.9-0.6,1.4l0,0.2c-0.1,0.6-0.1,1.1,0.1,1.5
		S266.6,51.2,267.2,51.2z"/>
	<path class="st1" d="M277.8,52.2c0-0.2,0-0.3-0.1-0.5s0-0.3,0-0.5c-0.2,0.3-0.5,0.5-0.9,0.7s-0.7,0.3-1.1,0.3
		c-0.6,0-1.1-0.2-1.4-0.5s-0.4-0.8-0.3-1.4c0.1-0.6,0.4-1.1,0.9-1.5s1.2-0.5,2.1-0.5h1.1l0.1-0.6c0.1-0.3,0-0.6-0.2-0.8
		s-0.4-0.3-0.8-0.3c-0.3,0-0.6,0.1-0.8,0.2s-0.3,0.4-0.4,0.6l-1.4,0l0,0c0.1-0.5,0.3-1,0.9-1.3s1.2-0.6,1.9-0.6
		c0.7,0,1.3,0.2,1.7,0.6s0.6,0.9,0.5,1.6l-0.4,2.8c0,0.3-0.1,0.5-0.1,0.8s0,0.5,0.1,0.7H277.8z M276.3,51.2c0.3,0,0.7-0.1,1-0.3
		s0.5-0.4,0.7-0.6l0.1-0.9h-1.1c-0.4,0-0.7,0.1-1,0.3s-0.4,0.4-0.5,0.7c0,0.3,0,0.4,0.1,0.6S276,51.2,276.3,51.2z"/>
	<path class="st1" d="M284.1,49.1c0.2-1,0.5-1.9,1-2.5s1.2-0.9,2-0.9c0.3,0,0.6,0.1,0.9,0.2s0.5,0.4,0.6,0.6l0.5-3.5h1.4l-1.4,9.1
		H288l0-0.8c-0.3,0.3-0.5,0.5-0.8,0.7s-0.7,0.2-1,0.2c-0.7,0-1.3-0.3-1.7-0.9s-0.5-1.3-0.3-2.2L284.1,49.1z M285.5,49.2
		c-0.1,0.6-0.1,1.1,0.1,1.4s0.5,0.5,1,0.5c0.3,0,0.5-0.1,0.8-0.2s0.4-0.3,0.6-0.6l0.4-2.8c-0.1-0.2-0.2-0.4-0.4-0.5
		s-0.4-0.2-0.7-0.2c-0.5,0-0.8,0.2-1.2,0.6s-0.5,0.9-0.6,1.6L285.5,49.2z"/>
	<path class="st1" d="M294.3,49c0.1-1,0.5-1.8,1.1-2.3s1.4-0.9,2.3-0.9c0.9,0,1.5,0.3,2,0.9s0.6,1.4,0.5,2.3l0,0.1
		c-0.2,1-0.5,1.8-1.1,2.4s-1.4,0.9-2.3,0.9c-0.9,0-1.5-0.3-2-0.9s-0.6-1.4-0.5-2.3L294.3,49z M295.7,49.1c-0.1,0.6-0.1,1.1,0.1,1.5
		s0.5,0.6,1,0.6c0.5,0,0.9-0.2,1.2-0.6s0.5-0.9,0.6-1.5l0-0.1c0.1-0.6,0-1.1-0.1-1.5s-0.5-0.6-1-0.6c-0.5,0-0.9,0.2-1.2,0.6
		s-0.5,0.9-0.6,1.5L295.7,49.1z"/>
	<path class="st1" d="M308.1,50.5c0-0.2,0-0.4-0.2-0.5s-0.5-0.3-1-0.4c-0.7-0.2-1.3-0.4-1.6-0.7s-0.5-0.7-0.4-1.2
		c0.1-0.6,0.4-1,0.9-1.4s1.1-0.6,1.9-0.6c0.7,0,1.3,0.2,1.7,0.6s0.6,0.9,0.5,1.4l0,0h-1.4c0-0.3,0-0.5-0.2-0.7s-0.4-0.3-0.8-0.3
		c-0.3,0-0.6,0.1-0.8,0.2s-0.3,0.3-0.4,0.6s0,0.4,0.2,0.5s0.5,0.2,1,0.3c0.8,0.2,1.3,0.4,1.7,0.7s0.5,0.7,0.4,1.2
		c-0.1,0.6-0.4,1.1-0.9,1.4s-1.2,0.5-1.9,0.5c-0.8,0-1.4-0.2-1.8-0.6s-0.6-0.9-0.5-1.4l0,0h1.3c0,0.4,0.1,0.6,0.3,0.8
		s0.5,0.3,0.9,0.3c0.4,0,0.6-0.1,0.9-0.2S308,50.7,308.1,50.5z"/>
</g>
</svg>
