<?xml version="1.0" encoding="utf-8"?>
<!-- Generator: Adobe Illustrator 22.0.1, SVG Export Plug-In . SVG Version: 6.00 Build 0)  -->
<svg version="1.1" id="phone_plus_xA0_Image_1_" xmlns="http://www.w3.org/2000/svg" xmlns:xlink="http://www.w3.org/1999/xlink"
	 x="0px" y="0px" viewBox="0 0 549 556" style="enable-background:new 0 0 549 556;" xml:space="preserve">
<style type="text/css">
	.st0{fill:#BFBFBF;}
</style>
<g>
	<path class="st0" d="M511.3,99.4c-2.1,58.7-14,115.1-38.6,168.6c-25.4,55.3-60.6,103.2-106.3,143.5
		c-43.4,38.2-92.5,66.7-147.3,85.2c-29.1,9.8-58.9,16.4-89.5,19.7c-15.1,1.6-30.1,2.9-45.3,2.9c-16.7,0-28.1-9.2-31.7-25.4
		c-6.9-30.7-14.1-61.3-21.1-91.9c-3.2-14,4.1-28.5,17.2-34.1c33.5-14.4,67-28.8,100.6-43.1c13.2-5.6,27.5-1.9,36.5,9.2
		c12.4,15.3,24.9,30.4,37.1,45.8c2.4,3,4.4,3,7.6,1.4c23.5-12.2,45.3-26.8,65.3-44.1c31.7-27.5,57-60.1,76.5-97.2
		c2.2-4.2,2.3-6.6-1.8-9.9c-15.9-12.6-31.7-25.4-47.1-38.7c-9.3-8-11.8-21.1-7-32.5c14.5-34.2,29-68.4,43.7-102.4
		c5.5-12.7,19.5-19.7,32.9-16.7c31.3,7,62.6,14.1,93.9,21.4c16,3.8,24.4,14.9,24.4,31.4C511.4,94.8,511.3,97.1,511.3,99.4z
		 M92.5,488.7c11.4-1.3,24.2-1.1,37-2.8c35.7-4.7,70.2-13.2,103.5-26.9c55.4-22.8,103.3-56.2,143.7-100.5
		c33.4-36.6,58.9-78,77-124.1c17.4-44.3,25.5-90.5,27-137.9c0.1-4.4-1.5-6.1-5.6-7c-27.3-6.1-54.5-12.3-81.7-18.6
		c-4.1-1-6.4-0.1-8.1,4c-12.8,30.4-25.8,60.6-38.8,90.9c-1.3,3-1,5,1.8,7.2c20.2,16.3,40.3,32.8,60.4,49.2c2.4,2,4.3,3.6,2.4,7.4
		c-10.1,19.7-19.9,39.5-32.2,58.1c-21.2,32.1-46.6,60.3-77.2,83.7c-24.6,18.8-51.5,33.7-79.2,47.4c-3.8,1.9-6,1.7-8.7-1.7
		c-16.2-20.1-32.7-40-48.8-60.1c-2.6-3.2-4.6-3.6-8.4-1.9c-29.6,12.9-59.2,25.7-89,38.2c-5.2,2.2-6,4.6-4.8,9.6
		c6.2,25.9,12.2,51.8,18.2,77.7C83.2,489.8,81.9,488.5,92.5,488.7z"/>
	<path class="st0" d="M120.6,85.6c0-12.3,0-24.7,0-37c0-6.9,2.8-9.7,9.6-9.9c3.5-0.1,7,0,10.5,0c7.9,0.1,10.6,2.7,10.6,10.5
		c0,24.5,0.1,49-0.1,73.5c0,4.8,1.4,6.2,6.2,6.2c24.3-0.2,48.6-0.1,73-0.1c8.5,0,10.9,2.5,10.9,11c0,3.3,0,6.7,0,10
		c-0.1,6.8-2.9,9.6-9.8,9.7c-24.3,0-48.6,0-73,0c-7.2,0-7.2,0-7.2,7.4c0,24,0,48,0,72c0,7.9-2.6,10.5-10.4,10.6c-3.3,0-6.7,0-10,0
		c-7.7-0.1-10.3-2.7-10.3-10.7c0-24,0-48,0-72c0-7.4,0-7.4-7.3-7.4c-24,0-48,0-72,0c-8.2,0-10.7-2.5-10.7-10.7c0-3.5,0-7,0-10.5
		c0.1-6.5,3-9.4,9.5-9.4c24-0.1,48,0,72,0c1.3,0,2.7-0.1,4,0c3.5,0.4,4.6-1.3,4.6-4.7C120.6,111.2,120.6,98.4,120.6,85.6z"/>
</g>
</svg>
